<svg width="709" height="677" viewBox="0 0 709 677" fill="none" xmlns="http://www.w3.org/2000/svg">
<path d="M-5 676.317V472.705C-5 472.705 166.141 441.275 312.98 470.314C609.807 529.013 709 677 709 677L-5 676.317Z" fill="#81C321"/>
<g clip-path="url(#clip0_1009_11421)">
<path d="M175.331 249.82C181.267 255.668 195.262 268.605 207.291 274.81C192.422 274.787 178.163 268.879 167.622 258.372C157.081 247.864 151.112 233.609 151.015 218.712V218.085C154.802 229.267 168.212 242.831 175.331 249.82Z" fill="#7CBC20"/>
<path d="M151 218.085V217.971L160.681 225.416C165.812 229.955 172.429 232.447 179.274 232.419C185.563 232.393 191.649 234.641 196.416 238.749C201.184 242.857 204.313 248.551 205.227 254.784L208.174 274.852C207.875 274.852 207.59 274.852 207.291 274.852C195.261 268.648 181.267 255.711 175.331 249.863C168.212 242.831 154.801 229.267 151 218.085Z" fill="#9AD046"/>
<path d="M351.906 362.771C345.998 359.063 332.7 350.162 325.283 341.547C328.223 353.7 335.837 364.197 346.465 370.752C357.093 377.308 369.876 379.391 382.031 376.549L382.557 376.435C372.691 375.522 359.01 367.221 351.906 362.771Z" fill="#9AD046"/>
<path d="M382.557 376.435H382.643L374.685 369.988C369.975 366.685 366.645 361.76 365.332 356.153C364.114 351.007 361.086 346.474 356.803 343.383C352.52 340.292 347.269 338.85 342.012 339.322L325.085 340.848C325.085 341.091 325.227 341.319 325.284 341.576C332.701 350.134 345.998 359.091 351.906 362.799C359.01 367.221 372.691 375.522 382.557 376.435Z" fill="#7CBC20"/>
<path d="M351.095 106.817C345.586 111.096 332.673 120.539 322.038 124.546C334.447 125.967 346.914 122.417 356.722 114.669C366.53 106.922 372.884 95.6041 374.4 83.1831V82.6554C370.214 91.6555 357.715 101.668 351.095 106.817Z" fill="#9AD046"/>
<path d="M374.457 82.6982V82.6125L365.673 87.8757C360.952 91.1586 355.193 92.5947 349.486 91.9122C344.247 91.2785 338.955 92.5596 334.582 95.5204C330.21 98.4811 327.05 102.923 325.683 108.03L321.284 124.489H322.025C332.659 120.481 345.571 111.039 351.081 106.76C357.715 101.668 370.215 91.6555 374.457 82.6982Z" fill="#7CBC20"/>
<path d="M324.529 0.342285C325.435 2.6178 326.149 4.96515 326.665 7.35981C327.134 9.78777 327.287 12.2665 327.12 14.7339C326.964 17.1639 326.485 19.5621 325.697 21.8655C324.914 24.1333 323.918 26.1445 323.035 28.341C323.462 26.0732 324.031 23.7625 324.316 21.5375C324.601 19.3216 324.601 17.0781 324.316 14.8622C324.018 12.7102 323.443 10.6056 322.607 8.60071C321.708 6.61429 320.646 4.70599 319.433 2.89541L324.529 0.342285Z" fill="#755236"/>
<path d="M335.918 5.2346C332.685 5.64375 329.414 5.64375 326.181 5.2346C328.997 7.43533 332.567 8.43189 336.114 8.00711C339.66 7.58233 342.896 5.77063 345.115 2.96675L345.214 2.85266C342.894 4.36456 338.353 4.96359 335.918 5.2346Z" fill="#9AD046"/>
<path d="M345.272 2.83834H342.339C340.698 2.93347 339.079 2.42642 337.784 1.41202C336.599 0.473611 335.117 -0.00545888 333.608 0.0626549C332.099 0.130769 330.665 0.741515 329.57 1.78288L326.039 5.14898C326.104 5.18681 326.166 5.22977 326.224 5.27739C329.457 5.68654 332.728 5.68654 335.962 5.27739C338.353 4.96359 342.895 4.36451 345.272 2.83834Z" fill="#7CBC20"/>
<path d="M325.199 11.0397C323.277 9.09374 320.963 7.57916 318.413 6.59625C315.862 5.61334 313.133 5.18456 310.404 5.3383C307.676 5.49203 305.011 6.22478 302.587 7.48801C300.162 8.75123 298.034 10.5161 296.341 12.6657L296.27 12.7513C295.729 13.5073 295.202 14.2775 294.718 15.0762C291.897 19.7484 290.323 25.0688 290.146 30.5264C289.969 35.984 291.195 41.3955 293.708 46.2413C295.199 49.0696 297.121 51.6487 299.402 53.8865C301.338 55.8548 303.587 57.4951 305.68 59.2922C307.766 61.1275 309.643 63.1893 311.275 65.4397L311.731 66.0387C312.544 67.1326 313.748 67.8686 315.091 68.0926L315.945 68.2353L325.341 10.9684L325.199 11.0397Z" fill="#F28C36"/>
<path d="M352.618 23.7768C352.504 23.3203 352.376 22.8639 352.234 22.4218C351.152 19.0304 349.155 16.0046 346.465 13.6788C343.774 11.353 340.493 9.81773 336.986 9.24258C332.977 8.56524 328.857 9.18996 325.227 11.0255L315.831 68.2923L316.429 68.3922C317.809 68.615 319.222 68.2817 320.358 67.465C322.98 65.5852 325.79 63.9838 328.743 62.6869C332.07 61.9379 335.256 60.6619 338.182 58.9071C344.028 55.3785 348.585 50.059 351.18 43.735C353.774 37.411 354.268 30.4183 352.59 23.791L352.618 23.7768Z" fill="#E79A5F"/>
<path d="M332.222 227.923C332.474 230.36 332.522 232.814 332.365 235.258C332.155 237.722 331.627 240.148 330.794 242.476C329.981 244.77 328.866 246.946 327.479 248.945C326.107 250.911 324.6 252.573 323.152 254.443C324.181 252.379 325.359 250.313 326.24 248.251C327.118 246.198 327.73 244.04 328.059 241.83C328.358 239.679 328.379 237.497 328.121 235.339C327.797 233.182 327.295 231.056 326.62 228.981L332.222 227.923Z" fill="#755236"/>
<path d="M341.845 235.746C338.623 235.253 335.476 234.357 332.477 233.078C334.587 235.965 337.75 237.901 341.278 238.464C344.806 239.028 348.412 238.173 351.311 236.086L351.437 236.004C348.793 236.821 344.261 236.152 341.845 235.746Z" fill="#9AD046"/>
<path d="M351.498 236.004L348.676 235.2C347.071 234.842 345.652 233.911 344.682 232.581C343.798 231.354 342.502 230.487 341.032 230.139C339.562 229.791 338.016 229.986 336.678 230.686L332.365 232.954C332.417 233.008 332.465 233.067 332.508 233.128C335.507 234.407 338.654 235.304 341.876 235.797C344.262 236.15 348.795 236.819 351.498 236.004Z" fill="#7CBC20"/>
<path d="M329.952 238.407C328.632 236.008 326.819 233.917 324.632 232.273C322.445 230.628 319.934 229.467 317.266 228.867C314.599 228.267 311.834 228.241 309.157 228.791C306.479 229.341 303.95 230.455 301.735 232.058L301.643 232.121C300.916 232.7 300.2 233.296 299.516 233.932C295.528 237.652 292.563 242.336 290.905 247.537C289.248 252.737 288.954 258.278 290.051 263.627C290.716 266.756 291.863 269.763 293.449 272.54C294.776 274.964 296.493 277.158 298.018 279.461C299.526 281.798 300.77 284.295 301.728 286.907L302.003 287.608C302.487 288.883 303.446 289.921 304.677 290.504L305.461 290.876L330.108 238.377L329.952 238.407Z" fill="#F28C36"/>
<path d="M352.856 258.164C352.871 257.694 352.872 257.22 352.855 256.756C352.738 253.198 351.641 249.741 349.685 246.766C347.729 243.792 344.99 241.416 341.772 239.901C338.098 238.15 333.963 237.622 329.969 238.392L305.322 290.889L305.87 291.149C307.138 291.742 308.588 291.808 309.904 291.335C312.94 290.246 316.081 289.476 319.277 289.038C322.682 289.23 326.096 288.877 329.39 287.991C335.978 286.2 341.813 282.334 346.033 276.964C350.254 271.593 352.634 265.004 352.824 258.17L352.856 258.164Z" fill="#E79A5F"/>
<path d="M189.624 157.908C191.921 158.751 194.14 159.792 196.258 161.018C198.368 162.295 200.307 163.838 202.024 165.61C203.69 167.349 205.125 169.295 206.295 171.401C207.448 173.498 208.302 175.68 209.299 177.72C207.875 175.88 206.58 173.926 205.127 172.214C203.665 170.53 201.99 169.043 200.145 167.793C198.347 166.571 196.4 165.589 194.351 164.869C192.269 164.213 190.135 163.736 187.973 163.442L189.624 157.908Z" fill="#755236"/>
<path d="M200.899 152.702C199.039 155.383 196.842 157.813 194.364 159.934C197.883 159.313 201.015 157.325 203.079 154.403C205.142 151.481 205.971 147.861 205.384 144.33V144.187C204.942 146.997 202.294 150.72 200.899 152.702Z" fill="#9AD046"/>
<path d="M205.355 144.144L203.362 146.298C202.339 147.591 200.872 148.455 199.247 148.723C197.757 148.979 196.409 149.765 195.45 150.935C194.49 152.106 193.984 153.584 194.023 155.098L194.151 159.962H194.364C196.842 157.842 199.039 155.411 200.899 152.731C202.294 150.719 204.942 146.997 205.355 144.144Z" fill="#7CBC20"/>
<path d="M197.995 164.583C195.265 164.708 192.592 165.413 190.154 166.651C187.716 167.889 185.569 169.631 183.854 171.763C182.139 173.896 180.896 176.368 180.207 179.018C179.518 181.668 179.399 184.434 179.857 187.134C179.857 187.134 179.857 187.205 179.857 187.233C180.037 188.153 180.265 189.062 180.541 189.958C180.534 189.981 180.534 190.006 180.541 190.029C181.704 193.924 183.609 197.556 186.15 200.726C190.43 206.085 196.322 209.917 202.949 211.652C206.029 212.448 209.212 212.766 212.388 212.593C215.15 212.465 217.869 211.895 220.603 211.538C223.361 211.231 226.144 211.231 228.903 211.538H229.657C231.012 211.66 232.362 211.257 233.429 210.411L234.099 209.855L197.952 164.512L197.995 164.583Z" fill="#F28C36"/>
<path d="M225.785 152.702C225.372 152.474 224.959 152.26 224.532 152.075C221.995 150.926 219.24 150.34 216.456 150.359C213.672 150.378 210.925 151 208.403 152.183C205.882 153.366 203.646 155.082 201.85 157.213C200.053 159.343 198.738 161.838 197.995 164.526L234.141 209.869L234.626 209.498C235.712 208.622 236.408 207.35 236.562 205.961C236.932 202.751 237.629 199.587 238.64 196.519C240.321 193.545 241.509 190.318 242.157 186.962C243.463 180.251 242.576 173.297 239.627 167.131C236.678 160.965 231.824 155.916 225.785 152.731V152.702Z" fill="#E79A5F"/>
<path d="M285.436 388.659C263.184 388.659 242.584 399.713 225.842 420.623C202.679 449.534 192.77 489.856 195.304 501.295L203.647 499.441C201.71 490.74 210.865 453 232.504 425.971C247.78 406.887 265.59 397.217 285.436 397.217H285.991V388.659H285.436Z" fill="#E7BD71"/>
<path d="M350.056 425.629C332.659 401.624 310.521 388.873 285.991 388.673V397.231C313.354 397.473 332.16 415.502 343.136 430.664C362.569 457.479 368.976 490.313 366.613 497.587L374.742 500.24C378.358 489.1 370.357 453.656 350.056 425.629Z" fill="#EDC380"/>
<path d="M345.586 447.951C346.347 450.277 346.914 452.662 347.28 455.082C347.601 457.54 347.601 460.028 347.28 462.485C346.971 464.877 346.349 467.217 345.429 469.446C344.504 471.656 343.379 473.724 342.354 475.75C342.923 473.511 343.635 471.243 344.063 469.046C344.475 466.851 344.599 464.612 344.432 462.385C344.274 460.217 343.834 458.078 343.123 456.024C342.346 453.963 341.393 451.973 340.275 450.076L345.586 447.951Z" fill="#755236"/>
<path d="M356.689 453.656C353.434 453.856 350.167 453.641 346.966 453.014C349.637 455.391 353.137 456.615 356.704 456.42C360.271 456.225 363.618 454.627 366.015 451.973L366.114 451.859C363.651 453.228 359.081 453.514 356.689 453.656Z" fill="#9AD046"/>
<path d="M366.115 451.83L363.182 451.617C361.541 451.601 359.962 450.988 358.74 449.891C357.616 448.879 356.166 448.306 354.655 448.278C353.144 448.249 351.673 448.766 350.511 449.734L346.781 452.857L346.938 453C350.139 453.626 353.406 453.842 356.661 453.642C359.082 453.514 363.652 453.228 366.115 451.83Z" fill="#7CBC20"/>
<path d="M345.571 458.734C343.777 456.669 341.566 455.009 339.084 453.865C336.601 452.721 333.904 452.118 331.172 452.096C328.44 452.075 325.734 452.635 323.234 453.74C320.734 454.845 318.497 456.469 316.671 458.506V458.591C316.073 459.304 315.489 460.018 314.962 460.816C311.852 465.297 309.942 470.502 309.416 475.934C308.89 481.367 309.765 486.843 311.958 491.839C313.256 494.752 314.988 497.45 317.098 499.84C318.906 501.937 321.041 503.706 323.02 505.631C324.98 507.602 326.722 509.777 328.216 512.121L328.615 512.749C329.362 513.892 330.519 514.705 331.847 515.017L332.701 515.216L345.713 458.663L345.571 458.734Z" fill="#F28C36"/>
<path d="M372.123 473.182C372.037 472.726 371.938 472.251 371.824 471.756C371.144 469.053 369.888 466.528 368.143 464.356C366.398 462.184 364.206 460.416 361.715 459.172C359.224 457.928 356.495 457.239 353.713 457.151C350.932 457.063 348.164 457.579 345.6 458.663L332.588 515.216L333.171 515.345C333.845 515.5 334.542 515.521 335.224 515.406C335.905 515.291 336.558 515.042 337.143 514.674C339.882 512.95 342.793 511.516 345.828 510.395C349.194 509.867 352.454 508.798 355.48 507.229C361.543 504.084 366.433 499.066 369.426 492.918C372.418 486.77 373.354 479.819 372.094 473.097L372.123 473.182Z" fill="#E79A5F"/>
<path d="M274.887 452.544C276.395 454.474 277.743 456.525 278.916 458.677C280.049 460.878 280.892 463.218 281.422 465.637C281.94 467.977 282.155 470.374 282.062 472.769C281.948 475.165 281.564 477.419 281.322 479.729C281.094 477.433 280.995 475.065 280.639 472.854C280.274 470.651 279.627 468.503 278.717 466.465C277.827 464.48 276.683 462.619 275.315 460.93C273.896 459.26 272.339 457.715 270.659 456.309L274.887 452.544Z" fill="#755236"/>
<path d="M287.23 454.027C284.247 455.333 281.108 456.248 277.892 456.751C281.212 458.072 284.918 458.024 288.203 456.619C291.489 455.214 294.086 452.565 295.431 449.249V449.106C293.651 451.26 289.451 453.1 287.23 454.027Z" fill="#9AD046"/>
<path d="M295.487 449.106L292.64 449.905C291.093 450.462 289.396 450.431 287.871 449.819C286.472 449.248 284.914 449.203 283.485 449.693C282.056 450.184 280.853 451.176 280.097 452.487L277.648 456.766H277.863C281.079 456.263 284.218 455.347 287.201 454.041C289.45 453.1 293.651 451.26 295.487 449.106Z" fill="#7CBC20"/>
<path d="M278.531 462.628C276.139 461.304 273.494 460.504 270.771 460.28C268.047 460.057 265.308 460.414 262.733 461.329C260.158 462.245 257.805 463.697 255.831 465.59C253.858 467.483 252.307 469.775 251.282 472.312C251.278 472.346 251.278 472.379 251.282 472.412C250.953 473.29 250.673 474.185 250.443 475.094C250.443 475.094 250.443 475.094 250.443 475.094C249.043 480.372 249.023 485.922 250.384 491.211C251.746 496.499 254.443 501.347 258.216 505.289C260.431 507.56 262.975 509.483 265.762 510.994C268.182 512.335 270.787 513.276 273.307 514.403C275.83 515.562 278.217 516.997 280.425 518.682L281.023 519.139C282.117 519.955 283.484 520.317 284.838 520.151L285.693 520.051L278.645 462.457L278.531 462.628Z" fill="#F28C36"/>
<path d="M308.414 467.121C308.172 466.721 307.929 466.322 307.659 465.937C306.102 463.625 304.063 461.679 301.684 460.232C299.304 458.786 296.639 457.873 293.874 457.557C291.108 457.241 288.307 457.53 285.663 458.403C283.02 459.276 280.596 460.712 278.56 462.614L285.607 520.208H286.219C286.905 520.123 287.568 519.902 288.169 519.56C288.77 519.217 289.297 518.759 289.721 518.212C291.707 515.668 293.955 513.339 296.426 511.265C299.412 509.611 302.114 507.488 304.427 504.975C304.427 504.975 304.427 504.975 304.427 504.975C309.048 499.944 311.93 493.556 312.645 486.756C313.361 479.956 311.872 473.107 308.399 467.221L308.414 467.121Z" fill="#E79A5F"/>
<path d="M316.102 470.544C317.287 472.684 318.287 474.922 319.092 477.233C319.871 479.583 320.35 482.023 320.516 484.493C320.648 486.883 320.475 489.279 320.003 491.625C319.504 493.978 318.764 496.132 318.152 498.386C318.295 496.075 318.579 493.722 318.579 491.482C318.567 489.248 318.271 487.024 317.697 484.864C317.138 482.767 316.305 480.753 315.219 478.874C314.088 476.992 312.798 475.212 311.361 473.553L316.102 470.544Z" fill="#755236"/>
<path d="M328.06 473.967C324.902 474.777 321.654 475.18 318.394 475.165C321.461 476.998 325.128 477.543 328.594 476.68C332.061 475.817 335.047 473.617 336.901 470.558L336.987 470.43C334.823 472.27 330.381 473.396 328.06 473.967Z" fill="#9AD046"/>
<path d="M336.987 470.43L334.069 470.758C332.451 471.058 330.779 470.754 329.37 469.902C328.075 469.123 326.543 468.839 325.055 469.101C323.567 469.363 322.223 470.154 321.27 471.328L318.194 475.094L318.38 475.208C321.64 475.223 324.889 474.82 328.047 474.01C330.381 473.396 334.823 472.27 336.987 470.43Z" fill="#7CBC20"/>
<path d="M318.081 481.07C315.93 479.374 313.444 478.155 310.787 477.494C308.131 476.834 305.365 476.747 302.672 477.239C299.98 477.731 297.422 478.792 295.17 480.35C292.917 481.908 291.022 483.928 289.608 486.276V486.362C289.166 487.189 288.739 488.016 288.354 488.872C286.132 493.856 285.227 499.328 285.726 504.764C286.225 510.199 288.11 515.415 291.202 519.909C293.017 522.525 295.221 524.849 297.737 526.798C299.901 528.51 302.335 529.85 304.627 531.376C306.931 532.934 309.051 534.747 310.948 536.782L311.475 537.324C312.417 538.306 313.704 538.884 315.063 538.936H315.931L318.152 480.956L318.081 481.07Z" fill="#F28C36"/>
<path d="M346.867 490.284C346.71 489.842 346.525 489.414 346.326 488.986C345.157 486.455 343.454 484.207 341.335 482.398C339.215 480.589 336.73 479.262 334.049 478.509C331.368 477.755 328.557 477.592 325.807 478.032C323.058 478.472 320.436 479.503 318.123 481.056L315.902 539.036H316.515C317.206 539.058 317.895 538.943 318.542 538.699C319.19 538.454 319.783 538.084 320.287 537.609C322.656 535.415 325.247 533.474 328.018 531.819C331.228 530.66 334.232 528.994 336.916 526.884C342.291 522.663 346.164 516.818 347.96 510.217C349.755 503.616 349.377 496.61 346.881 490.241L346.867 490.284Z" fill="#E79A5F"/>
<path d="M224.987 448.45C226.507 450.372 227.855 452.425 229.016 454.583C231.266 458.944 232.35 463.813 232.163 468.718C232.049 471.114 231.664 473.368 231.422 475.693C231.195 473.396 231.095 471.029 230.739 468.804C230.379 466.599 229.732 464.451 228.817 462.414C227.924 460.435 226.78 458.58 225.414 456.894C223.996 455.219 222.439 453.669 220.759 452.258L224.987 448.45Z" fill="#755236"/>
<path d="M237.33 449.919C234.347 451.225 231.208 452.141 227.991 452.643C231.311 453.964 235.018 453.917 238.303 452.511C241.588 451.106 244.186 448.457 245.53 445.141V444.998C243.751 447.166 239.551 448.992 237.33 449.919Z" fill="#9AD046"/>
<path d="M245.587 444.998L242.74 445.797C241.19 446.343 239.496 446.307 237.971 445.697C236.57 445.133 235.013 445.094 233.585 445.586C232.158 446.079 230.955 447.07 230.198 448.379L227.749 452.658H227.962C231.179 452.155 234.318 451.239 237.302 449.933C239.551 448.992 243.751 447.166 245.587 444.998Z" fill="#7CBC20"/>
<path d="M228.632 458.534C226.241 457.206 223.596 456.402 220.871 456.176C218.146 455.95 215.405 456.306 212.828 457.222C210.252 458.138 207.899 459.592 205.926 461.488C203.953 463.384 202.404 465.678 201.383 468.219C201.375 468.252 201.375 468.286 201.383 468.319C201.07 469.189 200.771 470.087 200.544 470.986C200.544 470.986 200.544 470.986 200.544 471.057C199.145 476.336 199.126 481.886 200.487 487.174C201.849 492.462 204.545 497.31 208.317 501.253C210.531 503.524 213.074 505.447 215.862 506.958C218.282 508.299 220.888 509.24 223.408 510.381C225.93 511.54 228.318 512.975 230.526 514.66L231.109 515.102C232.202 515.923 233.568 516.291 234.925 516.129L235.779 516.015L228.732 458.42L228.632 458.534Z" fill="#F28C36"/>
<path d="M258.514 463.027C258.272 462.613 258.03 462.214 257.76 461.829C256.203 459.517 254.164 457.571 251.784 456.124C249.404 454.678 246.74 453.765 243.974 453.449C241.208 453.133 238.408 453.422 235.764 454.295C233.12 455.168 230.697 456.604 228.66 458.506L235.707 516.101H236.319C237.702 515.93 238.962 515.217 239.821 514.118C241.812 511.573 244.059 509.241 246.527 507.158C249.513 505.504 252.214 503.38 254.528 500.867V500.867C259.149 495.836 262.03 489.448 262.745 482.648C263.46 475.848 261.972 468.999 258.5 463.113L258.514 463.027Z" fill="#E79A5F"/>
<path d="M357.587 589.157C356.986 589.927 356.334 590.656 355.637 591.339L355.096 590.555L356.818 588.044L357.587 589.157Z" fill="#D8B07C"/>
<path d="M183.474 497.116L210.808 582.339C212.262 586.892 215.122 590.866 218.975 593.686C222.829 596.505 227.477 598.026 232.248 598.029H311.973L335.534 497.145L183.474 497.116Z" fill="#D3A76E"/>
<path d="M335.492 497.116L311.93 598H339.862C344.684 597.995 349.377 596.44 353.251 593.565C357.126 590.689 359.977 586.645 361.388 582.025L387.398 497.088L335.492 497.116Z" fill="#D8B07C"/>
<path d="M204.871 564.111L203.562 562.242L204.046 561.557L204.871 564.111Z" fill="#CC9F6E"/>
<path d="M371.696 517.983H368.236L355.85 535.926L343.479 517.983L340.959 514.332L339.236 511.822L337.499 514.332L334.979 517.983L328.146 527.882L321.754 537.167L308.542 517.983L305.809 514.018L304.072 511.508L302.349 514.018L299.602 517.983L287.045 536.226L274.474 517.983L271.741 514.018L270.004 511.508L268.267 514.018L265.534 517.983L252.322 537.167L239.111 517.983L236.591 514.332L234.868 511.822L233.131 514.332L230.569 517.983L218.197 535.926L205.826 517.983H202.366L216.475 538.451L202.907 558.12L204.003 561.557L218.24 540.961L233.986 563.783L219.322 585.063L204.943 564.125L207.961 573.524L217.657 587.588L215.592 590.583C216.239 591.3 216.933 591.972 217.67 592.594L219.393 590.098L223.664 596.217C225.069 596.795 226.529 597.23 228.02 597.515L221.173 587.531L235.837 566.25L251.141 588.458L245.318 596.916L246.741 597.872H248.165L252.934 590.968L257.689 597.872H259.113L260.537 596.916L254.7 588.458L269.591 566.849L285.551 589.998L280.781 596.916L282.205 597.872H283.628L287.33 592.509L291.017 597.872H292.441L293.864 596.916L289.095 589.998L305.054 566.849L315.746 582.367L320.017 588.458L314.18 596.916L315.604 597.872H317.027L321.782 590.968L326.551 597.872H327.975L329.399 596.916L323.576 588.458L338.397 566.336L353.359 588.058L347.479 596.616C349.438 595.895 351.287 594.906 352.975 593.678L355.096 590.597L355.637 591.382C356.335 590.699 356.987 589.97 357.588 589.2L356.819 588.087L361.474 581.341L364.236 572.34L355.096 585.591L340.19 563.797L355.936 540.976L368.378 559.019L369.432 555.538L357.672 538.422L371.696 517.983ZM219.977 538.451L234.071 517.983L234.868 516.842L235.651 517.983L250.599 539.678L235.708 561.286L219.977 538.451ZM252.721 586.005L237.417 563.797L252.308 542.188L267.584 564.396L252.721 586.005ZM254.031 539.678L269.008 517.983L270.018 516.557L271.029 517.983L285.266 538.736L269.306 561.885L254.031 539.678ZM287.031 587.545L271.072 564.396L287.031 541.247L302.976 564.396L287.031 587.545ZM288.754 538.736L302.99 517.983L304.001 516.557L305.012 517.983L319.96 539.678L304.656 561.885L288.754 538.736ZM321.327 586.005L316.287 578.688L306.435 564.424L321.74 542.217L324.032 545.526L336.631 563.811L321.327 586.005ZM338.411 561.286L324.943 541.746L323.519 539.678L326.367 535.484L338.425 517.983L339.222 516.842L340.005 517.983L354.099 538.451L338.411 561.286Z" fill="#CC9F6E"/>
<path d="M186.89 495.875C185.408 495.742 183.914 495.92 182.504 496.397C181.094 496.874 179.799 497.641 178.7 498.647C177.602 499.653 176.725 500.878 176.125 502.242C175.525 503.607 175.215 505.082 175.215 506.573C175.215 508.064 175.525 509.539 176.125 510.903C176.725 512.268 177.602 513.492 178.7 514.499C179.799 515.505 181.094 516.271 182.504 516.748C183.914 517.225 185.408 517.403 186.89 517.27H330.395L335.406 495.875H186.89Z" fill="#E7BD71"/>
<path d="M383.612 495.875H335.407L330.396 517.27H383.612C385.094 517.403 386.588 517.225 387.998 516.748C389.408 516.271 390.703 515.505 391.802 514.499C392.9 513.492 393.777 512.268 394.377 510.903C394.977 509.539 395.288 508.064 395.288 506.573C395.288 505.082 394.977 503.607 394.377 502.242C393.777 500.878 392.9 499.653 391.802 498.647C390.703 497.641 389.408 496.874 387.998 496.397C386.588 495.92 385.094 495.742 383.612 495.875Z" fill="#EDC380"/>
</g>
<defs>
<clipPath id="clip0_1009_11421">
<rect width="244" height="598" fill="white" transform="translate(151)"/>
</clipPath>
</defs>
</svg>
