<svg width="394" height="329" viewBox="0 0 394 329" fill="none" xmlns="http://www.w3.org/2000/svg">
<path d="M125.674 162.223L168.185 173.588C171.663 174.514 175.366 174.023 178.482 172.223C181.599 170.423 183.875 167.46 184.811 163.984L217.76 41.0714C218.691 37.5901 218.203 33.8813 216.403 30.7595C214.603 27.6377 211.638 25.3582 208.159 24.4217L165.648 13.0566" fill="white"/>
<path d="M125.674 162.223L168.185 173.588C171.663 174.514 175.366 174.023 178.482 172.223C181.599 170.423 183.875 167.46 184.811 163.984L217.76 41.0714C218.691 37.5901 218.203 33.8813 216.403 30.7595C214.603 27.6377 211.638 25.3582 208.159 24.4217L165.648 13.0566" stroke="#2D2928" stroke-miterlimit="10"/>
<path d="M165.647 13.0751L123.136 1.67222C121.415 1.2081 119.62 1.08792 117.852 1.31855C116.085 1.54918 114.381 2.1261 112.837 3.0163C111.292 3.9065 109.939 5.09251 108.853 6.50649C107.768 7.92047 106.972 9.53467 106.51 11.2567L73.5616 134.188C72.6304 137.667 73.1187 141.374 74.9191 144.492C76.7195 147.611 79.6845 149.887 83.1621 150.819L125.673 162.184" fill="#F9F9F9"/>
<path d="M165.647 13.0751L123.136 1.67222C121.415 1.2081 119.62 1.08792 117.852 1.31855C116.085 1.54918 114.381 2.1261 112.837 3.0163C111.292 3.9065 109.939 5.09251 108.853 6.50649C107.768 7.92047 106.972 9.53466 106.51 11.2567L73.5616 134.188C72.6304 137.667 73.1187 141.374 74.9191 144.492C76.7195 147.611 79.6845 149.887 83.1621 150.819L125.673 162.184" stroke="black" stroke-miterlimit="10"/>
<path d="M108.026 61.7363L149.685 72.893L148.056 78.9922L106.397 67.8355C105.677 67.6272 105.45 66.1118 105.905 64.426C106.359 62.7592 107.287 61.5469 108.026 61.7363Z" fill="#B7B7B7"/>
<path d="M191.188 84.0497C191.927 84.2392 192.135 85.7545 191.699 87.4403C191.245 89.1261 190.279 90.3384 189.56 90.13L147.9 78.9923L149.529 72.8931L191.188 84.0497Z" fill="#C9C9C9"/>
<path d="M113.912 39.7644L155.571 50.921L153.867 57.0771L112.208 45.9204C111.488 45.7121 111.261 44.1967 111.715 42.5109C112.245 40.7683 113.192 39.5749 113.912 39.7644Z" fill="#B7B7B7"/>
<path d="M197.081 62.0779C197.82 62.2673 198.028 63.7826 197.592 65.4684C197.138 67.1543 196.172 68.3665 195.453 68.1582L153.869 57.0773L155.498 50.978L197.081 62.0779Z" fill="#C9C9C9"/>
<path d="M119.803 17.7922L161.462 28.9489L159.834 35.0481L118.174 23.8914C117.455 23.6831 117.228 22.1678 117.682 20.4819C118.137 18.7961 119.083 17.6028 119.803 17.7922Z" fill="#B7B7B7"/>
<path d="M202.969 40.0297C203.708 40.2191 203.916 41.7345 203.481 43.4203C203.026 45.1061 202.06 46.3184 201.341 46.11L159.682 34.9723L161.31 28.873L202.969 40.0297Z" fill="#C9C9C9"/>
<path d="M102.343 82.9135L144.002 94.0702L142.355 100.169L100.696 89.0128C99.9763 88.8234 99.7491 87.2891 100.204 85.6033C100.677 83.9364 101.605 82.7241 102.343 82.9135Z" fill="#B7B7B7"/>
<path d="M185.529 105.227C186.249 105.416 186.476 106.932 186.022 108.618C185.567 110.303 184.62 111.516 183.882 111.326L142.223 100.17L143.87 94.0703L185.529 105.227Z" fill="#C9C9C9"/>
<path d="M96.6831 104.09L138.342 115.247L136.695 121.346L95.0357 110.113C94.3161 109.924 94.0889 108.39 94.5434 106.723C94.9978 105.113 95.9257 103.9 96.6831 104.09Z" fill="#B7B7B7"/>
<path d="M179.85 126.404C180.57 126.593 180.797 128.127 180.343 129.794C179.888 131.48 178.941 132.692 178.222 132.503L136.562 121.346L138.21 115.247L179.85 126.404Z" fill="#C9C9C9"/>
<path d="M69.111 120.399C68.9398 120.21 68.8116 119.986 68.7355 119.743C68.6593 119.499 68.6369 119.242 68.6698 118.989C68.7027 118.736 68.7901 118.494 68.926 118.278C69.062 118.062 69.2431 117.878 69.457 117.739C69.6709 117.6 69.9124 117.51 70.1648 117.473C70.4172 117.437 70.6745 117.456 70.9189 117.528C71.1633 117.601 71.389 117.726 71.5804 117.895C71.7717 118.064 71.9241 118.272 72.0271 118.505L75.7007 123.941L76.515 123.07L80.7756 106.78C77.1529 105.959 73.353 106.577 70.1766 108.503C67.0002 110.43 64.6954 113.514 63.7478 117.107C62.8002 120.699 63.2837 124.52 65.0966 127.763C66.9095 131.006 69.9102 133.418 73.4663 134.492L74.9243 129.056L69.111 120.399Z" fill="#479A66"/>
<path d="M80.7761 106.78L76.5155 122.994L83.8627 115.057C84.0206 114.887 84.2105 114.749 84.4215 114.652C84.6326 114.555 84.8607 114.501 85.0928 114.492C85.3249 114.483 85.5565 114.52 85.7743 114.601C85.9921 114.682 86.1919 114.805 86.3622 114.963C86.5325 115.121 86.6701 115.311 86.7671 115.522C86.864 115.733 86.9184 115.961 86.9272 116.193C86.936 116.425 86.899 116.657 86.8183 116.875C86.7376 117.093 86.6148 117.293 86.4569 117.463L75.2657 129.529L74.9249 129.055L73.4668 134.529C77.1455 135.499 81.0586 134.967 84.3452 133.051C87.6318 131.134 90.0228 127.99 90.9921 124.31C91.9613 120.631 91.4295 116.716 89.5137 113.429C87.5978 110.141 84.4548 107.749 80.7761 106.78Z" fill="#5BA574"/>
<path d="M75.2647 129.529L86.4558 117.463C86.6138 117.293 86.7366 117.093 86.8173 116.875C86.898 116.657 86.935 116.426 86.9262 116.193C86.9174 115.961 86.863 115.733 86.766 115.522C86.6691 115.311 86.5315 115.121 86.3612 114.963C86.1908 114.805 85.9911 114.682 85.7733 114.601C85.5555 114.521 85.3239 114.484 85.0918 114.492C84.8597 114.501 84.6316 114.556 84.4205 114.653C84.2094 114.75 84.0195 114.887 83.8616 115.058L76.5145 122.994L74.9238 129.056L75.2647 129.529Z" fill="white"/>
<path d="M72.0244 118.429C71.9214 118.196 71.769 117.987 71.5777 117.819C71.3863 117.65 71.1606 117.525 70.9162 117.452C70.6718 117.379 70.4145 117.361 70.1621 117.397C69.9097 117.433 69.6682 117.524 69.4543 117.663C69.2404 117.802 69.0593 117.986 68.9233 118.202C68.7874 118.417 68.7 118.66 68.6671 118.913C68.6342 119.166 68.6566 119.423 68.7328 119.667C68.8089 119.91 68.9371 120.134 69.1083 120.323L74.9216 129.055L76.5123 123.032L75.698 123.903L72.0244 118.429Z" fill="#F9F9F9"/>
<path d="M33.1906 260.454H33.0391V273.013H33.1906C38.6195 273.013 43.8261 275.17 47.6649 279.01C51.5037 282.85 53.6604 288.058 53.6604 293.489C53.6604 298.919 51.5037 304.127 47.6649 307.967C43.8261 311.807 38.6195 313.965 33.1906 313.965H33.0391V328.076H33.1906C42.024 327.867 50.4254 324.21 56.599 317.887C62.7726 311.563 66.2287 303.075 66.2287 294.237C66.2287 285.398 62.7726 276.91 56.599 270.587C50.4254 264.264 42.024 260.607 33.1906 260.397V260.454Z" fill="#4C4C4C"/>
<path d="M12.7199 293.564C12.6947 288.145 14.82 282.937 18.6294 279.084C22.4387 275.231 27.6208 273.047 33.0382 273.012V260.378C24.2047 260.587 15.8034 264.244 9.62976 270.567C3.45614 276.891 0 285.379 0 294.217C0 303.056 3.45614 311.544 9.62976 317.867C15.8034 324.191 24.2047 327.848 33.0382 328.057V313.945C27.6504 313.91 22.494 311.75 18.6895 307.934C14.885 304.117 12.7397 298.953 12.7199 293.564Z" fill="#3E3F41"/>
<path d="M43.9841 293.848C43.9866 292.429 43.7092 291.023 43.1679 289.711C42.6266 288.399 41.8319 287.206 40.8294 286.202C39.8269 285.197 38.6362 284.4 37.3254 283.856C36.0147 283.313 34.6096 283.033 33.1906 283.033H33.0391V304.645H33.1906C36.0532 304.645 38.7985 303.508 40.8227 301.483C42.8469 299.458 43.9841 296.712 43.9841 293.848Z" fill="#C4C4C2"/>
<path d="M22.377 293.849C22.3768 296.689 23.4957 299.416 25.4913 301.437C27.4869 303.458 30.1984 304.611 33.0379 304.646V283.014C30.1933 283.054 27.4791 284.214 25.4835 286.242C23.4879 288.27 22.3717 291.003 22.377 293.849Z" fill="#AFB0B4"/>
<path d="M12.719 293.564C12.7189 298.967 14.8553 304.15 18.662 307.983C22.4686 311.816 27.6364 313.986 33.0373 314.022V304.551C30.2504 304.434 27.6165 303.244 25.6858 301.231C23.7552 299.217 22.6772 296.535 22.6772 293.744C22.6772 290.954 23.7552 288.272 25.6858 286.258C27.6165 284.244 30.2504 283.055 33.0373 282.938V273.013C27.6199 273.048 22.4378 275.232 18.6285 279.085C14.8191 282.938 12.6938 288.145 12.719 293.564Z" fill="#8A8A8A"/>
<path d="M33.1906 273.013H33.0391V282.938H33.1906C35.9774 283.055 38.6114 284.244 40.542 286.258C42.4727 288.272 43.5506 290.954 43.5506 293.744C43.5506 296.535 42.4727 299.217 40.542 301.231C38.6114 303.244 35.9774 304.434 33.1906 304.551H33.0391V314.022H33.1906C38.6195 314.022 43.8261 311.864 47.6649 308.024C51.5037 304.184 53.6604 298.976 53.6604 293.546C53.6604 288.115 51.5037 282.907 47.6649 279.067C43.8261 275.227 38.6195 273.07 33.1906 273.07V273.013Z" fill="#9C9C9C"/>
<path d="M195.813 318.169L271.765 156.937C274.699 150.762 279.168 145.443 284.744 141.49C290.321 137.537 296.818 135.081 303.615 134.359L384.851 126.062C386.486 125.833 387.969 124.977 388.988 123.677C390.006 122.376 390.481 120.73 390.312 119.087C390.142 117.443 389.343 115.929 388.081 114.863C386.818 113.797 385.192 113.263 383.544 113.371L302.328 121.687C293.345 122.631 284.756 125.869 277.385 131.09C270.013 136.311 264.107 143.34 260.233 151.501L194.392 291.082L164.095 240.3H90.5664L29.3842 288.828C28.658 289.317 28.0404 289.95 27.57 290.688C27.0995 291.426 26.7863 292.253 26.65 293.118C26.5136 293.983 26.5571 294.866 26.7776 295.713C26.9981 296.56 27.3909 297.353 27.9315 298.041C28.4721 298.73 29.1488 299.299 29.9194 299.714C30.69 300.129 31.5378 300.38 32.4099 300.452C33.282 300.525 34.1597 300.416 34.9879 300.134C35.8162 299.851 36.5773 299.401 37.2237 298.811L94.9217 253.048H156.842L195.813 318.169Z" fill="#C4C4C2"/>
<path d="M259.154 133.526L201.456 240.073H154.703L210.091 137.807L259.154 133.526Z" fill="#0A8690"/>
<path d="M9.8418 155.233L210.09 137.807L154.702 240.073H46.1232L9.8418 155.233Z" fill="#09797B"/>
<path d="M348.246 133.98H349.401L385.19 129.832C386.484 129.695 387.738 129.302 388.88 128.677C390.022 128.052 391.028 127.207 391.841 126.19C392.654 125.174 393.258 124.006 393.617 122.755C393.976 121.503 394.084 120.193 393.934 118.9C393.783 117.607 393.378 116.356 392.742 115.221C392.106 114.085 391.251 113.087 390.226 112.284C389.202 111.481 388.028 110.889 386.774 110.542C385.519 110.196 384.209 110.102 382.917 110.265L347.128 114.394C344.617 114.665 342.306 115.89 340.673 117.817C339.039 119.743 338.208 122.224 338.352 124.747C338.495 127.269 339.602 129.64 341.444 131.369C343.285 133.098 345.72 134.053 348.246 134.037V133.98Z" fill="#8A8A8A"/>
</svg>
