<svg width="374" height="326" viewBox="0 0 374 326" fill="none" xmlns="http://www.w3.org/2000/svg">
<path d="M369.292 125.473V267.903H460.334L482.341 201.868L542.811 170.57L604.448 199.029L625.239 267.842L690.267 249.41C698.478 247.077 705.921 242.603 711.832 236.446C713.403 234.785 714.281 232.588 714.29 230.302V218.112C714.279 215.827 713.4 213.631 711.832 211.968L702.961 202.556V134.357C702.961 131.998 702.023 129.735 700.355 128.066C698.686 126.398 696.424 125.461 694.064 125.461L369.292 125.473Z" fill="#09797B"/>
<path d="M-6.10352e-05 154.215V209.633C-0.0067749 221 3.55273 232.082 10.1772 241.319C16.8016 250.556 26.1568 257.481 36.9252 261.12L57.09 267.928L79.6014 193.659L139.506 168.444L199.029 197.001L221.934 267.903H369.291C372.32 267.855 375.207 266.618 377.331 264.459C379.456 262.301 380.646 259.393 380.646 256.365V128.311L375.067 11.219C374.925 8.19581 373.624 5.34353 371.434 3.2544C369.244 1.16528 366.333 -0.000181546 363.307 2.12117e-08H299.79C285.7 0.000924017 272 4.6337 260.8 13.185L187.195 72.1675C174.555 82.2807 159.671 89.2089 143.794 92.369L32.6244 114.487C23.4332 116.319 15.1602 121.278 9.21237 128.521C3.26456 135.763 0.00946045 144.843 -6.10352e-05 154.215Z" fill="#0A8690"/>
<path d="M139.506 224.404C123.262 224.389 107.261 228.345 92.8947 235.926C78.5286 243.508 66.2328 254.485 57.0777 267.903C54.7948 255.785 55.2117 243.314 58.2987 231.375C61.3857 219.437 67.0671 208.327 74.9379 198.835C82.8087 189.343 92.6755 181.703 103.836 176.459C114.996 171.215 127.175 168.496 139.506 168.496C151.837 168.496 164.016 171.215 175.176 176.459C186.336 181.703 196.203 189.343 204.074 198.835C211.944 208.327 217.626 219.437 220.713 231.375C223.8 243.314 224.217 255.785 221.934 267.903C212.776 254.487 200.48 243.512 186.115 235.93C171.749 228.349 155.749 224.392 139.506 224.404Z" fill="#09797B"/>
<path d="M139.432 185.623H139.752V211.735H139.432C128.202 211.735 117.431 216.196 109.49 224.137C101.549 232.078 97.0877 242.849 97.0877 254.079C97.0877 265.31 101.549 276.08 109.49 284.021C117.431 291.962 128.202 296.424 139.432 296.424H139.752V325.595H139.432C121.292 324.96 104.107 317.306 91.4993 304.248C78.8913 291.191 71.8445 273.748 71.8445 255.597C71.8445 237.446 78.8913 220.003 91.4993 206.945C104.107 193.888 121.292 186.234 139.432 185.598V185.623Z" fill="#4C4C4C"/>
<path d="M181.789 254.091C181.786 242.915 177.366 232.193 169.492 224.261C161.618 216.329 150.928 211.831 139.752 211.747V185.635C157.832 186.354 174.932 194.042 187.47 207.088C200.008 220.134 207.011 237.527 207.011 255.621C207.011 273.716 200.008 291.108 187.47 304.154C174.932 317.201 157.832 324.889 139.752 325.608V296.436C150.928 296.351 161.618 291.853 169.492 283.922C177.366 275.99 181.786 265.268 181.789 254.091Z" fill="#3E3F41"/>
<path d="M134.026 222.032C134.026 223.551 134.629 225.007 135.703 226.081C136.776 227.155 138.233 227.758 139.752 227.758V232.293H139.432C133.504 232.293 127.819 234.648 123.627 238.84C119.435 243.031 117.08 248.717 117.08 254.645C117.08 260.573 119.435 266.258 123.627 270.45C127.819 274.642 133.504 276.997 139.432 276.997H139.752V280.941C138.233 280.941 136.776 281.544 135.703 282.618C134.629 283.692 134.026 285.149 134.026 286.667C134.026 288.186 134.629 289.642 135.703 290.716C136.776 291.79 138.233 292.393 139.752 292.393V296.449H139.432C128.202 296.449 117.431 291.987 109.49 284.046C101.549 276.105 97.0877 265.334 97.0877 254.104C97.0877 242.874 101.549 232.103 109.49 224.162C117.431 216.221 128.202 211.76 139.432 211.76H139.752V216.318C138.235 216.318 136.78 216.92 135.707 217.991C134.633 219.062 134.029 220.516 134.026 222.032ZM112.718 281.248C113.519 282.049 114.539 282.595 115.65 282.816C116.761 283.036 117.912 282.923 118.958 282.49C120.005 282.056 120.899 281.322 121.528 280.381C122.157 279.439 122.494 278.332 122.494 277.199C122.494 276.067 122.157 274.96 121.528 274.018C120.899 273.076 120.005 272.342 118.958 271.909C117.912 271.476 116.761 271.362 115.65 271.583C114.539 271.804 113.519 272.35 112.718 273.15C111.645 274.224 111.041 275.681 111.041 277.199C111.041 278.718 111.645 280.174 112.718 281.248ZM107.656 248.624C106.523 248.624 105.416 248.959 104.474 249.589C103.533 250.218 102.799 251.112 102.365 252.158C101.932 253.205 101.819 254.356 102.04 255.467C102.26 256.578 102.805 257.598 103.606 258.399C104.407 259.2 105.428 259.745 106.538 259.966C107.649 260.187 108.8 260.074 109.847 259.64C110.893 259.207 111.787 258.473 112.417 257.531C113.046 256.589 113.382 255.482 113.382 254.35C113.382 253.598 113.233 252.853 112.946 252.158C112.658 251.464 112.236 250.832 111.704 250.301C111.173 249.769 110.541 249.347 109.847 249.059C109.152 248.772 108.407 248.624 107.656 248.624ZM120.951 227.451C120.15 226.65 119.13 226.105 118.019 225.884C116.909 225.663 115.757 225.776 114.711 226.21C113.665 226.643 112.77 227.377 112.141 228.319C111.511 229.261 111.176 230.368 111.176 231.5C111.176 232.633 111.511 233.74 112.141 234.682C112.77 235.623 113.665 236.357 114.711 236.791C115.757 237.224 116.909 237.337 118.019 237.116C119.13 236.895 120.15 236.35 120.951 235.549C122.025 234.475 122.628 233.019 122.628 231.5C122.628 229.982 122.025 228.525 120.951 227.451Z" fill="#9C9C9C"/>
<path d="M181.789 254.091C181.786 265.268 177.366 275.99 169.492 283.922C161.618 291.853 150.928 296.352 139.752 296.436V292.381C141.271 292.381 142.727 291.777 143.801 290.704C144.875 289.63 145.478 288.173 145.478 286.655C145.478 285.136 144.875 283.679 143.801 282.605C142.727 281.532 141.271 280.928 139.752 280.928V276.984C145.588 276.847 151.138 274.433 155.217 270.257C159.296 266.081 161.58 260.475 161.58 254.638C161.58 248.801 159.296 243.195 155.217 239.019C151.138 234.844 145.588 232.429 139.752 232.292V227.758C141.271 227.758 142.727 227.155 143.801 226.081C144.875 225.007 145.478 223.551 145.478 222.032C145.478 220.513 144.875 219.057 143.801 217.983C142.727 216.909 141.271 216.306 139.752 216.306V211.747C150.928 211.831 161.618 216.329 169.492 224.261C177.366 232.193 181.786 242.915 181.789 254.091ZM158.553 273.15C157.752 273.951 157.206 274.971 156.985 276.082C156.764 277.193 156.878 278.344 157.311 279.39C157.745 280.437 158.478 281.331 159.42 281.96C160.362 282.59 161.469 282.925 162.601 282.925C163.734 282.925 164.841 282.59 165.783 281.96C166.725 281.331 167.458 280.437 167.892 279.39C168.325 278.344 168.439 277.193 168.218 276.082C167.997 274.971 167.451 273.951 166.65 273.15C165.577 272.076 164.12 271.473 162.601 271.473C161.083 271.473 159.626 272.076 158.553 273.15ZM166.54 227.451C165.739 226.65 164.719 226.105 163.608 225.884C162.497 225.663 161.346 225.776 160.299 226.209C159.253 226.643 158.359 227.377 157.729 228.318C157.1 229.26 156.764 230.367 156.764 231.5C156.764 232.632 157.1 233.739 157.729 234.681C158.359 235.623 159.253 236.357 160.299 236.79C161.346 237.224 162.497 237.337 163.608 237.116C164.719 236.895 165.739 236.35 166.54 235.549C167.073 235.018 167.496 234.387 167.785 233.692C168.073 232.997 168.222 232.252 168.222 231.5C168.222 230.747 168.073 230.002 167.785 229.308C167.496 228.613 167.073 227.982 166.54 227.451ZM166.54 254.349C166.54 255.482 166.876 256.589 167.505 257.531C168.134 258.472 169.028 259.206 170.075 259.64C171.121 260.073 172.272 260.187 173.383 259.966C174.494 259.745 175.514 259.199 176.315 258.398C177.116 257.598 177.661 256.577 177.882 255.466C178.103 254.356 177.99 253.204 177.556 252.158C177.123 251.112 176.389 250.217 175.447 249.588C174.506 248.959 173.398 248.623 172.266 248.623C170.747 248.623 169.291 249.226 168.217 250.3C167.143 251.374 166.54 252.831 166.54 254.349Z" fill="#8A8A8A"/>
<path d="M117.08 254.645C117.08 248.717 119.435 243.031 123.627 238.839C127.819 234.648 133.504 232.293 139.432 232.293H139.752V276.984H139.432C133.507 276.981 127.825 274.627 123.635 270.438C119.444 266.25 117.087 260.57 117.08 254.645Z" fill="#C4C4C2"/>
<path d="M161.784 254.645C161.785 260.517 159.473 266.153 155.35 270.334C151.227 274.514 145.624 276.903 139.752 276.984V232.293C145.625 232.377 151.228 234.769 155.351 238.951C159.474 243.134 161.785 248.771 161.784 254.645Z" fill="#AFB0B4"/>
<path d="M145.478 222.032C145.478 223.551 144.874 225.007 143.801 226.081C142.727 227.155 141.27 227.759 139.752 227.759V216.306C141.27 216.306 142.727 216.909 143.801 217.983C144.874 219.057 145.478 220.514 145.478 222.032Z" fill="#3E3F41"/>
<path d="M134.026 222.032C134.026 220.514 134.629 219.057 135.703 217.983C136.776 216.909 138.233 216.306 139.752 216.306V227.759C138.233 227.759 136.776 227.155 135.703 226.081C134.629 225.007 134.026 223.551 134.026 222.032Z" fill="#4D4D4D"/>
<path d="M145.478 286.655C145.478 288.174 144.874 289.63 143.801 290.704C142.727 291.778 141.27 292.381 139.752 292.381V280.929C141.27 280.929 142.727 281.532 143.801 282.606C144.874 283.68 145.478 285.136 145.478 286.655Z" fill="#3E3F41"/>
<path d="M134.026 286.655C134.026 285.136 134.629 283.68 135.703 282.606C136.776 281.532 138.233 280.929 139.752 280.929V292.381C138.233 292.381 136.776 291.778 135.703 290.704C134.629 289.63 134.026 288.174 134.026 286.655Z" fill="#4D4D4D"/>
<path d="M172.278 260.063C169.115 260.063 166.552 257.5 166.552 254.337C166.552 251.175 169.115 248.611 172.278 248.611C175.44 248.611 178.004 251.175 178.004 254.337C178.004 257.5 175.44 260.063 172.278 260.063Z" fill="#3E3F41"/>
<path d="M107.656 260.063C104.493 260.063 101.929 257.5 101.929 254.337C101.929 251.175 104.493 248.611 107.656 248.611C110.818 248.611 113.382 251.175 113.382 254.337C113.382 257.5 110.818 260.063 107.656 260.063Z" fill="#4D4D4D"/>
<path d="M162.608 282.919C159.445 282.919 156.882 280.356 156.882 277.193C156.882 274.031 159.445 271.467 162.608 271.467C165.77 271.467 168.334 274.031 168.334 277.193C168.334 280.356 165.77 282.919 162.608 282.919Z" fill="#3E3F41"/>
<path d="M116.909 237.22C113.746 237.22 111.182 234.656 111.182 231.494C111.182 228.331 113.746 225.768 116.909 225.768C120.071 225.768 122.635 228.331 122.635 231.494C122.635 234.656 120.071 237.22 116.909 237.22Z" fill="#4D4D4D"/>
<path d="M162.472 237.22C159.31 237.22 156.746 234.656 156.746 231.494C156.746 228.331 159.31 225.768 162.472 225.768C165.635 225.768 168.198 228.331 168.198 231.494C168.198 234.656 165.635 237.22 162.472 237.22Z" fill="#3E3F41"/>
<path d="M116.773 282.919C113.61 282.919 111.047 280.356 111.047 277.193C111.047 274.031 113.61 271.467 116.773 271.467C119.935 271.467 122.499 274.031 122.499 277.193C122.499 280.356 119.935 282.919 116.773 282.919Z" fill="#4D4D4D"/>
<path d="M358.073 33.4726L358.269 35.4632C360.654 59.2532 361.193 83.1923 359.879 107.066C359.714 110.097 358.385 112.948 356.169 115.022C353.952 117.097 351.02 118.235 347.984 118.198H197.259C195.209 118.173 193.214 117.527 191.539 116.344C189.864 115.162 188.586 113.499 187.876 111.576C187.165 109.652 187.054 107.558 187.558 105.571C188.061 103.583 189.156 101.795 190.697 100.442L263.799 34.345C271.225 27.8183 280.774 24.219 290.661 24.2197H347.911C350.448 24.2345 352.89 25.188 354.767 26.8965C356.643 28.605 357.821 30.9474 358.073 33.4726Z" fill="#B3C6CD"/>
<path d="M0.000530243 163.799V178.545H42.7134C44.0554 178.545 45.3845 178.28 46.6242 177.766C47.8639 177.252 48.9896 176.499 49.938 175.55C50.8864 174.6 51.6384 173.473 52.1508 172.233C52.6632 170.992 52.9264 169.663 52.9248 168.321V163.799H0.000530243Z" fill="#F69715"/>
<path d="M0.000541687 154.215V163.799H52.9248V147.456C52.9248 144.747 51.849 142.148 49.9344 140.231C48.0198 138.315 45.4227 137.236 42.7134 137.233H3.72355C1.26633 142.557 -0.00382996 148.351 0.000541687 154.215Z" fill="#E2DBE3"/>
</svg>
