<svg width="715" height="326" viewBox="0 0 715 326" fill="none" xmlns="http://www.w3.org/2000/svg">
<path d="M344.998 125.473V267.903H253.956L231.949 201.868L171.479 170.57L109.842 199.029L89.0512 267.842L24.0231 249.41C15.8123 247.077 8.36942 242.603 2.4576 236.446C0.887459 234.785 0.0087372 232.588 0 230.302V218.112C0.0111982 215.827 0.889572 213.631 2.4576 211.968L11.3295 202.556V134.357C11.3295 131.998 12.2669 129.735 13.9353 128.066C15.6037 126.398 17.8665 125.461 20.226 125.461L344.998 125.473Z" fill="#09797B"/>
<path d="M37.5155 139.924V190.047C37.5155 191.35 36.9976 192.6 36.0758 193.522C35.154 194.444 33.9039 194.962 32.6003 194.962H11.2559V135.033H32.6003C33.8996 135.033 35.146 135.548 36.0671 136.464C36.9882 137.381 37.509 138.624 37.5155 139.924Z" fill="#A82618"/>
<path d="M32.0351 183.632V188.682C32.0367 188.991 31.9771 189.298 31.8599 189.584C31.7427 189.87 31.5701 190.13 31.352 190.35C31.1339 190.569 30.8746 190.743 30.5891 190.862C30.3035 190.98 29.9971 191.041 29.6879 191.041H11.2559V181.211H29.6879C30.0024 181.211 30.3138 181.274 30.6035 181.396C30.8932 181.519 31.1553 181.698 31.3742 181.924C31.5931 182.15 31.7644 182.418 31.8779 182.711C31.9914 183.004 32.045 183.317 32.0351 183.632Z" fill="#E2DBE3"/>
<path d="M32.0351 169.624V178.914C32.0367 179.223 31.9771 179.529 31.8599 179.816C31.7427 180.102 31.5701 180.362 31.352 180.581C31.1339 180.8 30.8746 180.974 30.5891 181.093C30.3035 181.212 29.9971 181.273 29.6879 181.273H11.2559V167.265H29.6879C30.3115 167.268 30.9086 167.518 31.3484 167.96C31.7882 168.402 32.0351 169 32.0351 169.624Z" fill="#F69715"/>
<path d="M32.0351 147.272V164.917C32.0367 165.226 31.977 165.532 31.8596 165.818C31.7422 166.103 31.5693 166.362 31.3511 166.581C31.1328 166.799 30.8737 166.972 30.5882 167.089C30.3027 167.206 29.9966 167.266 29.6879 167.264H11.2559V144.925H29.6879C29.9966 144.923 30.3027 144.983 30.5882 145.1C30.8737 145.218 31.1328 145.39 31.3511 145.609C31.5693 145.827 31.7422 146.086 31.8596 146.372C31.977 146.657 32.0367 146.963 32.0351 147.272Z" fill="#CC3723"/>
<path d="M714.29 154.215V209.633C714.297 221 710.737 232.082 704.113 241.319C697.488 250.556 688.133 257.481 677.365 261.12L657.2 267.928L634.689 193.659L574.785 168.444L515.261 197.001L492.356 267.903H344.999C341.971 267.855 339.083 266.618 336.959 264.459C334.834 262.301 333.644 259.393 333.645 256.365V128.311L339.223 11.219C339.366 8.19581 340.667 5.34353 342.856 3.2544C345.046 1.16528 347.957 -0.000181546 350.983 2.12117e-08H414.5C428.59 0.000924017 442.29 4.6337 453.49 13.185L527.095 72.1675C539.735 82.2807 554.619 89.2089 570.496 92.369L681.666 114.487C690.857 116.319 699.13 121.278 705.078 128.521C711.025 135.763 714.281 144.843 714.29 154.215Z" fill="#0A8690"/>
<path d="M574.784 224.404C591.028 224.389 607.029 228.345 621.395 235.926C635.761 243.508 648.057 254.485 657.212 267.903C659.495 255.785 659.078 243.314 655.991 231.375C652.904 219.437 647.223 208.327 639.352 198.835C631.481 189.343 621.615 181.703 610.454 176.459C599.294 171.215 587.115 168.496 574.784 168.496C562.453 168.496 550.274 171.215 539.114 176.459C527.954 181.703 518.087 189.343 510.216 198.835C502.346 208.327 496.664 219.437 493.577 231.375C490.49 243.314 490.073 255.785 492.356 267.903C501.514 254.487 513.81 243.512 528.175 235.93C542.541 228.349 558.541 224.392 574.784 224.404Z" fill="#09797B"/>
<path d="M574.858 185.623H574.538V211.735H574.858C586.088 211.735 596.859 216.196 604.8 224.137C612.741 232.078 617.202 242.849 617.202 254.079C617.202 265.31 612.741 276.08 604.8 284.021C596.859 291.962 586.088 296.424 574.858 296.424H574.538V325.595H574.858C592.998 324.96 610.183 317.306 622.791 304.248C635.399 291.191 642.446 273.748 642.446 255.597C642.446 237.446 635.399 220.003 622.791 206.945C610.183 193.888 592.998 186.234 574.858 185.598V185.623Z" fill="#4C4C4C"/>
<path d="M532.501 254.091C532.504 242.915 536.924 232.193 544.798 224.261C552.672 216.329 563.362 211.831 574.538 211.747V185.635C556.458 186.354 539.358 194.042 526.82 207.088C514.282 220.134 507.279 237.527 507.279 255.621C507.279 273.716 514.282 291.108 526.82 304.154C539.358 317.201 556.458 324.889 574.538 325.608V296.436C563.362 296.351 552.672 291.853 544.798 283.922C536.924 275.99 532.504 265.268 532.501 254.091Z" fill="#3E3F41"/>
<path d="M580.264 222.032C580.264 223.551 579.661 225.007 578.587 226.081C577.514 227.155 576.057 227.758 574.538 227.758V232.293H574.858C580.786 232.293 586.471 234.648 590.663 238.84C594.855 243.031 597.21 248.717 597.21 254.645C597.21 260.573 594.855 266.258 590.663 270.45C586.471 274.642 580.786 276.997 574.858 276.997H574.538V280.941C576.057 280.941 577.514 281.544 578.587 282.618C579.661 283.692 580.264 285.149 580.264 286.667C580.264 288.186 579.661 289.642 578.587 290.716C577.514 291.79 576.057 292.393 574.538 292.393V296.449H574.858C586.088 296.449 596.859 291.987 604.8 284.046C612.741 276.105 617.202 265.334 617.202 254.104C617.202 242.874 612.741 232.103 604.8 224.162C596.859 216.221 586.088 211.76 574.858 211.76H574.538V216.318C576.055 216.318 577.51 216.92 578.583 217.991C579.657 219.062 580.261 220.516 580.264 222.032ZM601.572 281.248C600.771 282.049 599.751 282.595 598.64 282.816C597.529 283.036 596.378 282.923 595.332 282.49C594.285 282.056 593.391 281.322 592.762 280.381C592.133 279.439 591.797 278.332 591.797 277.199C591.797 276.067 592.133 274.96 592.762 274.018C593.391 273.076 594.285 272.342 595.332 271.909C596.378 271.476 597.529 271.362 598.64 271.583C599.751 271.804 600.771 272.35 601.572 273.15C602.646 274.224 603.249 275.681 603.249 277.199C603.249 278.718 602.646 280.174 601.572 281.248ZM606.635 248.624C607.767 248.624 608.874 248.959 609.816 249.589C610.757 250.218 611.491 251.112 611.925 252.158C612.358 253.205 612.471 254.356 612.251 255.467C612.03 256.578 611.485 257.598 610.684 258.399C609.883 259.2 608.863 259.745 607.752 259.966C606.641 260.187 605.49 260.074 604.443 259.64C603.397 259.207 602.503 258.473 601.874 257.531C601.244 256.589 600.908 255.482 600.908 254.35C600.908 253.598 601.057 252.853 601.344 252.158C601.632 251.464 602.054 250.832 602.586 250.301C603.117 249.769 603.749 249.347 604.443 249.059C605.138 248.772 605.883 248.624 606.635 248.624ZM593.339 227.451C594.14 226.65 595.16 226.105 596.271 225.884C597.382 225.663 598.533 225.776 599.579 226.21C600.625 226.643 601.52 227.377 602.15 228.319C602.779 229.261 603.114 230.368 603.114 231.5C603.114 232.633 602.779 233.74 602.15 234.682C601.52 235.623 600.625 236.357 599.579 236.791C598.533 237.224 597.382 237.337 596.271 237.116C595.16 236.895 594.14 236.35 593.339 235.549C592.265 234.475 591.662 233.019 591.662 231.5C591.662 229.982 592.265 228.525 593.339 227.451Z" fill="#9C9C9C"/>
<path d="M532.501 254.091C532.504 265.268 536.924 275.99 544.798 283.922C552.672 291.853 563.362 296.352 574.538 296.436V292.381C573.019 292.381 571.563 291.777 570.489 290.704C569.415 289.63 568.812 288.173 568.812 286.655C568.812 285.136 569.415 283.679 570.489 282.605C571.563 281.532 573.019 280.928 574.538 280.928V276.984C568.702 276.847 563.152 274.433 559.073 270.257C554.994 266.081 552.71 260.475 552.71 254.638C552.71 248.801 554.994 243.195 559.073 239.019C563.152 234.844 568.702 232.429 574.538 232.292V227.758C573.019 227.758 571.563 227.155 570.489 226.081C569.415 225.007 568.812 223.551 568.812 222.032C568.812 220.513 569.415 219.057 570.489 217.983C571.563 216.909 573.019 216.306 574.538 216.306V211.747C563.362 211.831 552.672 216.329 544.798 224.261C536.924 232.193 532.504 242.915 532.501 254.091ZM555.738 273.15C556.538 273.951 557.084 274.971 557.305 276.082C557.526 277.193 557.412 278.344 556.979 279.39C556.546 280.437 555.812 281.331 554.87 281.96C553.928 282.59 552.821 282.925 551.689 282.925C550.556 282.925 549.449 282.59 548.507 281.96C547.566 281.331 546.832 280.437 546.398 279.39C545.965 278.344 545.851 277.193 546.072 276.082C546.293 274.971 546.839 273.951 547.64 273.15C548.713 272.076 550.17 271.473 551.689 271.473C553.207 271.473 554.664 272.076 555.738 273.15ZM547.75 227.451C548.551 226.65 549.571 226.105 550.682 225.884C551.793 225.663 552.944 225.776 553.991 226.209C555.037 226.643 555.931 227.377 556.561 228.318C557.19 229.26 557.526 230.367 557.526 231.5C557.526 232.632 557.19 233.739 556.561 234.681C555.931 235.623 555.037 236.357 553.991 236.79C552.944 237.224 551.793 237.337 550.682 237.116C549.571 236.895 548.551 236.35 547.75 235.549C547.217 235.018 546.794 234.387 546.505 233.692C546.217 232.997 546.068 232.252 546.068 231.5C546.068 230.747 546.217 230.002 546.505 229.308C546.794 228.613 547.217 227.982 547.75 227.451ZM547.75 254.349C547.75 255.482 547.414 256.589 546.785 257.531C546.156 258.472 545.262 259.206 544.215 259.64C543.169 260.073 542.018 260.187 540.907 259.966C539.796 259.745 538.776 259.199 537.975 258.398C537.174 257.598 536.629 256.577 536.408 255.466C536.187 254.356 536.3 253.204 536.734 252.158C537.167 251.112 537.901 250.217 538.843 249.588C539.784 248.959 540.892 248.623 542.024 248.623C543.543 248.623 544.999 249.226 546.073 250.3C547.147 251.374 547.75 252.831 547.75 254.349Z" fill="#8A8A8A"/>
<path d="M597.21 254.645C597.21 248.717 594.855 243.031 590.663 238.839C586.471 234.648 580.786 232.293 574.858 232.293H574.538V276.984H574.858C580.783 276.981 586.465 274.627 590.655 270.438C594.846 266.25 597.203 260.57 597.21 254.645Z" fill="#C4C4C2"/>
<path d="M552.506 254.645C552.505 260.517 554.817 266.153 558.94 270.334C563.063 274.514 568.666 276.903 574.538 276.984V232.293C568.665 232.377 563.062 234.769 558.939 238.951C554.816 243.134 552.505 248.771 552.506 254.645Z" fill="#AFB0B4"/>
<path d="M568.812 222.032C568.812 223.551 569.416 225.007 570.49 226.081C571.563 227.155 573.02 227.759 574.538 227.759V216.306C573.02 216.306 571.563 216.909 570.49 217.983C569.416 219.057 568.812 220.514 568.812 222.032Z" fill="#3E3F41"/>
<path d="M580.264 222.032C580.264 220.514 579.661 219.057 578.587 217.983C577.514 216.909 576.057 216.306 574.538 216.306V227.759C576.057 227.759 577.514 227.155 578.587 226.081C579.661 225.007 580.264 223.551 580.264 222.032Z" fill="#4D4D4D"/>
<path d="M568.812 286.655C568.812 288.174 569.416 289.63 570.49 290.704C571.563 291.778 573.02 292.381 574.538 292.381V280.929C573.02 280.929 571.563 281.532 570.49 282.606C569.416 283.68 568.812 285.136 568.812 286.655Z" fill="#3E3F41"/>
<path d="M580.264 286.655C580.264 285.136 579.661 283.68 578.587 282.606C577.514 281.532 576.057 280.929 574.538 280.929V292.381C576.057 292.381 577.514 291.778 578.587 290.704C579.661 289.63 580.264 288.174 580.264 286.655Z" fill="#4D4D4D"/>
<path d="M542.012 260.063C545.175 260.063 547.739 257.5 547.739 254.337C547.739 251.175 545.175 248.611 542.012 248.611C538.85 248.611 536.286 251.175 536.286 254.337C536.286 257.5 538.85 260.063 542.012 260.063Z" fill="#3E3F41"/>
<path d="M606.634 260.063C609.797 260.063 612.361 257.5 612.361 254.337C612.361 251.175 609.797 248.611 606.634 248.611C603.472 248.611 600.908 251.175 600.908 254.337C600.908 257.5 603.472 260.063 606.634 260.063Z" fill="#4D4D4D"/>
<path d="M551.683 282.919C554.846 282.919 557.409 280.356 557.409 277.193C557.409 274.031 554.846 271.467 551.683 271.467C548.521 271.467 545.957 274.031 545.957 277.193C545.957 280.356 548.521 282.919 551.683 282.919Z" fill="#3E3F41"/>
<path d="M597.381 237.22C600.544 237.22 603.108 234.656 603.108 231.494C603.108 228.331 600.544 225.768 597.381 225.768C594.219 225.768 591.655 228.331 591.655 231.494C591.655 234.656 594.219 237.22 597.381 237.22Z" fill="#4D4D4D"/>
<path d="M551.818 237.22C554.981 237.22 557.544 234.656 557.544 231.494C557.544 228.331 554.981 225.768 551.818 225.768C548.656 225.768 546.092 228.331 546.092 231.494C546.092 234.656 548.656 237.22 551.818 237.22Z" fill="#3E3F41"/>
<path d="M597.517 282.919C600.68 282.919 603.243 280.356 603.243 277.193C603.243 274.031 600.68 271.467 597.517 271.467C594.355 271.467 591.791 274.031 591.791 277.193C591.791 280.356 594.355 282.919 597.517 282.919Z" fill="#4D4D4D"/>
<path d="M171.504 224.404C187.748 224.39 203.748 228.346 218.114 235.928C232.48 243.509 244.776 254.486 253.932 267.903C256.215 255.785 255.798 243.314 252.711 231.375C249.624 219.437 243.943 208.327 236.072 198.835C228.201 189.343 218.334 181.703 207.174 176.459C196.014 171.215 183.835 168.496 171.504 168.496C159.173 168.496 146.994 171.215 135.834 176.459C124.674 181.703 114.807 189.343 106.936 198.835C99.0654 208.327 93.384 219.437 90.297 231.375C87.21 243.314 86.7931 255.785 89.076 267.903C98.2335 254.487 110.53 243.512 124.895 235.93C139.261 228.349 155.261 224.392 171.504 224.404Z" fill="#056766"/>
<path d="M171.578 185.623H171.271V211.735H171.578C182.808 211.735 193.578 216.196 201.52 224.137C209.461 232.078 213.922 242.849 213.922 254.079C213.922 265.31 209.461 276.08 201.52 284.021C193.578 291.962 182.808 296.424 171.578 296.424H171.271V325.595H171.578C180.977 325.925 190.345 324.358 199.126 320.989C207.906 317.619 215.918 312.516 222.683 305.984C229.449 299.451 234.83 291.623 238.504 282.966C242.179 274.31 244.073 265.001 244.073 255.597C244.073 246.192 242.179 236.884 238.504 228.227C234.83 219.57 229.449 211.742 222.683 205.209C215.918 198.677 207.906 193.574 199.126 190.204C190.345 186.835 180.977 185.268 171.578 185.598V185.623Z" fill="#4C4C4C"/>
<path d="M129.233 254.091C129.233 242.914 133.652 232.19 141.527 224.257C149.402 216.325 160.094 211.828 171.271 211.747V185.635C153.191 186.354 136.09 194.042 123.552 207.088C111.014 220.134 104.012 237.527 104.012 255.621C104.012 273.716 111.014 291.108 123.552 304.154C136.09 317.201 153.191 324.889 171.271 325.608V296.436C160.094 296.355 149.402 291.858 141.527 283.925C133.652 275.993 129.233 265.269 129.233 254.091Z" fill="#3E3F41"/>
<path d="M176.997 222.032C176.997 223.551 176.393 225.007 175.319 226.081C174.245 227.155 172.789 227.758 171.271 227.758V232.293H171.578C177.506 232.293 183.191 234.648 187.383 238.84C191.574 243.031 193.93 248.717 193.93 254.645C193.93 260.573 191.574 266.258 187.383 270.45C183.191 274.642 177.506 276.997 171.578 276.997H171.271V280.941C172.789 280.941 174.245 281.544 175.319 282.618C176.393 283.692 176.997 285.149 176.997 286.667C176.997 288.186 176.393 289.642 175.319 290.716C174.245 291.79 172.789 292.393 171.271 292.393V296.449H171.578C182.808 296.449 193.578 291.987 201.52 284.046C209.461 276.105 213.922 265.334 213.922 254.104C213.922 242.874 209.461 232.103 201.52 224.162C193.578 216.221 182.808 211.76 171.578 211.76H171.271V216.318C172.787 216.318 174.242 216.92 175.315 217.991C176.389 219.062 176.993 220.516 176.997 222.032ZM198.304 281.248C197.503 282.049 196.483 282.595 195.372 282.816C194.261 283.036 193.11 282.923 192.064 282.49C191.017 282.056 190.123 281.322 189.494 280.381C188.865 279.439 188.529 278.332 188.529 277.199C188.529 276.067 188.865 274.96 189.494 274.018C190.123 273.076 191.017 272.342 192.064 271.909C193.11 271.476 194.261 271.362 195.372 271.583C196.483 271.804 197.503 272.35 198.304 273.15C199.378 274.224 199.981 275.681 199.981 277.199C199.981 278.718 199.378 280.174 198.304 281.248ZM203.367 248.624C204.499 248.624 205.606 248.959 206.548 249.589C207.49 250.218 208.223 251.112 208.657 252.158C209.09 253.205 209.204 254.356 208.983 255.467C208.762 256.578 208.217 257.598 207.416 258.399C206.615 259.2 205.595 259.745 204.484 259.966C203.373 260.187 202.222 260.074 201.175 259.64C200.129 259.207 199.235 258.473 198.605 257.531C197.976 256.589 197.641 255.482 197.641 254.35C197.641 252.831 198.244 251.375 199.318 250.301C200.391 249.227 201.848 248.624 203.367 248.624ZM190.071 227.451C190.872 226.65 191.892 226.105 193.003 225.884C194.114 225.663 195.265 225.776 196.312 226.21C197.358 226.643 198.252 227.377 198.881 228.319C199.511 229.261 199.846 230.368 199.846 231.5C199.846 232.633 199.511 233.74 198.881 234.682C198.252 235.623 197.358 236.357 196.312 236.791C195.265 237.224 194.114 237.337 193.003 237.116C191.892 236.895 190.872 236.35 190.071 235.549C188.997 234.475 188.394 233.019 188.394 231.5C188.394 229.982 188.997 228.525 190.071 227.451Z" fill="#9C9C9C"/>
<path d="M129.233 254.091C129.233 265.269 133.652 275.993 141.527 283.925C149.402 291.858 160.094 296.355 171.271 296.436V292.381C169.752 292.381 168.296 291.777 167.222 290.704C166.148 289.63 165.545 288.173 165.545 286.655C165.545 285.136 166.148 283.679 167.222 282.605C168.296 281.532 169.752 280.928 171.271 280.928V276.984C165.435 276.847 159.884 274.433 155.805 270.257C151.726 266.081 149.443 260.475 149.443 254.638C149.443 248.801 151.726 243.195 155.805 239.019C159.884 234.844 165.435 232.429 171.271 232.292V227.758C169.752 227.758 168.296 227.155 167.222 226.081C166.148 225.007 165.545 223.551 165.545 222.032C165.545 220.513 166.148 219.057 167.222 217.983C168.296 216.909 169.752 216.306 171.271 216.306V211.747C160.094 211.828 149.402 216.325 141.527 224.257C133.652 232.19 129.233 242.914 129.233 254.091ZM152.47 273.15C153.271 273.951 153.816 274.971 154.037 276.082C154.258 277.193 154.145 278.344 153.712 279.39C153.278 280.437 152.544 281.331 151.603 281.96C150.661 282.59 149.554 282.925 148.421 282.925C147.289 282.925 146.182 282.59 145.24 281.96C144.298 281.331 143.564 280.437 143.131 279.39C142.698 278.344 142.584 277.193 142.805 276.082C143.026 274.971 143.571 273.951 144.372 273.15C145.446 272.076 146.903 271.473 148.421 271.473C149.94 271.473 151.396 272.076 152.47 273.15ZM144.508 227.451C145.308 226.65 146.329 226.105 147.44 225.884C148.55 225.663 149.702 225.776 150.748 226.209C151.794 226.643 152.689 227.377 153.318 228.318C153.947 229.26 154.283 230.367 154.283 231.5C154.283 232.632 153.947 233.739 153.318 234.681C152.689 235.623 151.794 236.357 150.748 236.79C149.702 237.224 148.55 237.337 147.44 237.116C146.329 236.895 145.308 236.35 144.508 235.549C143.434 234.475 142.831 233.018 142.831 231.5C142.831 229.981 143.434 228.525 144.508 227.451ZM144.508 254.349C144.508 255.482 144.172 256.589 143.543 257.531C142.913 258.472 142.019 259.206 140.973 259.64C139.926 260.073 138.775 260.187 137.664 259.966C136.554 259.745 135.533 259.199 134.732 258.398C133.931 257.598 133.386 256.577 133.165 255.466C132.944 254.356 133.058 253.204 133.491 252.158C133.924 251.112 134.658 250.217 135.6 249.588C136.542 248.959 137.649 248.623 138.781 248.623C140.293 248.633 141.741 249.24 142.807 250.313C143.873 251.386 144.471 252.837 144.471 254.349H144.508Z" fill="#8A8A8A"/>
<path d="M193.93 254.645C193.931 251.709 193.354 248.802 192.231 246.089C191.109 243.376 189.462 240.912 187.386 238.836C185.31 236.76 182.846 235.114 180.133 233.991C177.421 232.868 174.513 232.291 171.578 232.293H171.271V276.984H171.578C177.504 276.984 183.187 274.631 187.378 270.442C191.57 266.253 193.926 260.571 193.93 254.645Z" fill="#C4C4C2"/>
<path d="M149.226 254.645C149.228 260.518 151.543 266.154 155.668 270.334C159.793 274.515 165.398 276.904 171.271 276.984V232.293C165.397 232.377 159.792 234.768 155.667 238.951C151.542 243.133 149.228 248.77 149.226 254.645Z" fill="#AFB0B4"/>
<path d="M165.594 222.032C165.594 223.551 166.197 225.007 167.271 226.081C168.345 227.155 169.801 227.759 171.32 227.759V216.306C169.801 216.306 168.345 216.909 167.271 217.983C166.197 219.057 165.594 220.514 165.594 222.032Z" fill="#3E3F41"/>
<path d="M176.997 222.032C176.997 220.514 176.393 219.057 175.319 217.983C174.245 216.909 172.789 216.306 171.271 216.306V227.759C172.789 227.759 174.245 227.155 175.319 226.081C176.393 225.007 176.997 223.551 176.997 222.032Z" fill="#4D4D4D"/>
<path d="M165.594 286.655C165.594 288.174 166.197 289.63 167.271 290.704C168.345 291.778 169.801 292.381 171.32 292.381V280.929C169.801 280.929 168.345 281.532 167.271 282.606C166.197 283.68 165.594 285.136 165.594 286.655Z" fill="#3E3F41"/>
<path d="M176.997 286.655C176.997 285.136 176.393 283.68 175.319 282.606C174.245 281.532 172.789 280.929 171.271 280.929V292.381C172.789 292.381 174.245 291.778 175.319 290.704C176.393 289.63 176.997 288.174 176.997 286.655Z" fill="#4D4D4D"/>
<path d="M138.732 260.063C141.895 260.063 144.458 257.5 144.458 254.337C144.458 251.175 141.895 248.611 138.732 248.611C135.57 248.611 133.006 251.175 133.006 254.337C133.006 257.5 135.57 260.063 138.732 260.063Z" fill="#3E3F41"/>
<path d="M203.354 260.063C206.517 260.063 209.08 257.5 209.08 254.337C209.08 251.175 206.517 248.611 203.354 248.611C200.192 248.611 197.628 251.175 197.628 254.337C197.628 257.5 200.192 260.063 203.354 260.063Z" fill="#4D4D4D"/>
<path d="M148.415 282.919C151.577 282.919 154.141 280.356 154.141 277.193C154.141 274.031 151.577 271.467 148.415 271.467C145.252 271.467 142.688 274.031 142.688 277.193C142.688 280.356 145.252 282.919 148.415 282.919Z" fill="#3E3F41"/>
<path d="M194.114 237.22C197.276 237.22 199.84 234.656 199.84 231.494C199.84 228.331 197.276 225.768 194.114 225.768C190.951 225.768 188.388 228.331 188.388 231.494C188.388 234.656 190.951 237.22 194.114 237.22Z" fill="#4D4D4D"/>
<path d="M148.549 237.22C151.712 237.22 154.276 234.656 154.276 231.494C154.276 228.331 151.712 225.768 148.549 225.768C145.387 225.768 142.823 228.331 142.823 231.494C142.823 234.656 145.387 237.22 148.549 237.22Z" fill="#3E3F41"/>
<path d="M194.249 282.919C197.411 282.919 199.975 280.356 199.975 277.193C199.975 274.031 197.411 271.467 194.249 271.467C191.086 271.467 188.522 274.031 188.522 277.193C188.522 280.356 191.086 282.919 194.249 282.919Z" fill="#4D4D4D"/>
<path d="M34.3204 42.3816H24.6006V125.461H34.3204V42.3816Z" fill="#6C3A07"/>
<path d="M179.577 42.3816H169.857V125.461H179.577V42.3816Z" fill="#6C3A07"/>
<path d="M319.169 42.3816H309.449V125.461H319.169V42.3816Z" fill="#6C3A07"/>
<path d="M325.448 86.4956H19.5869V114.094H325.448V86.4956Z" fill="#B18558"/>
<path d="M325.448 51.0444H19.5869V78.6433H325.448V51.0444Z" fill="#B18558"/>
<path d="M356.217 33.4726L356.021 35.4632C353.636 59.2532 353.097 83.1923 354.411 107.066C354.576 110.097 355.905 112.948 358.121 115.022C360.338 117.097 363.27 118.235 366.306 118.198H517.031C519.081 118.173 521.076 117.527 522.751 116.344C524.426 115.162 525.704 113.499 526.414 111.576C527.125 109.652 527.236 107.558 526.732 105.571C526.229 103.583 525.134 101.795 523.593 100.442L450.491 34.345C443.065 27.8183 433.516 24.219 423.629 24.2197H366.379C363.842 24.2345 361.4 25.188 359.523 26.8965C357.647 28.605 356.469 30.9474 356.217 33.4726Z" fill="#B3C6CD"/>
<path d="M714.29 163.799V178.545H671.577C670.235 178.545 668.906 178.28 667.666 177.766C666.426 177.252 665.3 176.499 664.352 175.55C663.404 174.6 662.652 173.473 662.139 172.233C661.627 170.992 661.364 169.663 661.365 168.321V163.799H714.29Z" fill="#F69715"/>
<path d="M714.289 154.215V163.799H661.365V147.456C661.365 144.747 662.441 142.148 664.356 140.231C666.27 138.315 668.867 137.236 671.577 137.233H710.566C713.024 142.557 714.294 148.351 714.289 154.215Z" fill="#E2DBE3"/>
</svg>
