<svg width="213" height="386" viewBox="0 0 213 386" fill="none" xmlns="http://www.w3.org/2000/svg">
<g clip-path="url(#clip0_2610_7951)">
<path d="M209.454 -0.0419922C211.386 12.0199 214.2 26.2215 214.053 39.9405C214.174 53.5113 212.543 67.0409 209.202 80.1955C205.914 93.0364 200.973 105.397 194.502 116.968C187.992 128.401 180.579 138.491 173.607 149.231C178.206 137.421 183.561 125.59 187.32 113.864C190.969 102.173 193.087 90.0593 193.62 77.8251C194.137 65.9194 193.113 53.9968 190.575 42.3527C188.265 30.7523 183.834 20.5157 179.13 8.16013L209.454 -0.0419922Z" fill="#755236"/>
<path d="M262.332 90.5581C251.643 87.9989 227.346 81.4332 211.932 72.3291C222.397 88.9392 239.012 100.743 258.153 105.168C277.295 109.592 297.412 106.279 314.118 95.9494L314.832 95.5089C299.712 99.117 275.079 93.5998 262.332 90.5581Z" fill="#9AD046"/>
<path d="M314.979 95.5089H315.105L299.985 89.8869C291.311 87.3325 283.882 81.6805 279.111 74.0073C274.717 66.964 267.929 61.7381 259.992 59.2878C252.054 56.8374 243.499 57.3266 235.893 60.6657L211.302 71.2802C211.512 71.6158 211.743 71.9094 211.974 72.2451C227.346 81.3491 251.643 87.9151 262.374 90.4743C275.079 93.5999 299.712 99.1169 314.979 95.5089Z" fill="#7CBC20"/>
<path d="M99.1201 123.199C95.8686 129.576 93.5489 136.386 92.232 143.421C88.662 162.531 75.243 177.802 57.8761 186.612C42.1087 194.608 28.604 206.431 18.6012 220.996C8.5983 235.562 2.41761 252.404 0.626253 269.976C-1.1651 287.549 1.49023 305.289 8.3486 321.57C15.207 337.85 26.0487 352.15 39.879 363.156C45.5036 367.506 51.538 371.3 57.8971 374.484L203.07 89.7612C194.051 85.1157 184.203 82.2954 174.09 81.4623C163.977 80.6292 153.799 81.7998 144.141 84.9067C134.482 88.0136 125.532 92.9956 117.807 99.5668C110.081 106.138 103.73 114.169 99.1201 123.199Z" fill="#F3D05C"/>
<path d="M209.412 260.62C205.821 242.244 212.478 223.469 225.141 209.645C232.18 201.879 237.556 192.757 240.937 182.841C244.318 172.924 245.635 162.421 244.805 151.978C243.975 141.534 241.016 131.37 236.111 122.111C231.206 112.851 224.457 104.691 216.279 98.1311C212.158 94.9149 207.734 92.1049 203.07 89.7402L57.8975 374.463C75.5008 383.446 95.2774 387.307 114.971 385.604C134.666 383.902 153.484 376.705 169.281 364.833C185.077 352.962 197.216 336.895 204.311 318.465C211.407 300.035 213.175 279.984 209.412 260.599V260.62Z" fill="#F6DE64"/>
</g>
<defs>
<clipPath id="clip0_2610_7951">
<rect width="315" height="386" fill="white"/>
</clipPath>
</defs>
</svg>
