<svg width="364" height="292" viewBox="0 0 364 292" fill="none" xmlns="http://www.w3.org/2000/svg">
<g clip-path="url(#clip0_1009_11002)">
<path d="M181.084 166.372H202.683C205.077 166.372 207.373 167.321 209.065 169.01C210.758 170.7 211.709 172.991 211.709 175.38V281.62C211.709 284.009 210.758 286.3 209.065 287.99C207.373 289.679 205.077 290.628 202.683 290.628H181.084" fill="#C9C9C9"/>
<path d="M181.136 290.628H159.528C157.135 290.626 154.84 289.676 153.148 287.987C151.456 286.298 150.504 284.008 150.502 281.62V175.38C150.504 172.992 151.456 170.702 153.148 169.013C154.84 167.324 157.135 166.374 159.528 166.372H181.136" fill="#B7B7B7"/>
<path d="M181.203 177.429H155.065V282.78H181.203V177.429Z" fill="#F9F9F9"/>
<path d="M207.214 177.429H181.076V282.78H207.214V177.429Z" fill="white"/>
<path d="M181.135 292H159.681C156.85 291.998 154.136 290.875 152.134 288.878C150.131 286.882 149.004 284.174 149 281.349V175.66C149.004 172.834 150.131 170.125 152.133 168.127C154.135 166.129 156.849 165.004 159.681 165H181.135V167.743H159.681C157.579 167.748 155.565 168.583 154.08 170.067C152.595 171.551 151.759 173.562 151.757 175.66V281.349C151.759 283.446 152.595 285.456 154.08 286.938C155.566 288.421 157.58 289.255 159.681 289.257H181.135V292Z" fill="black"/>
<path d="M202.336 292H181.127V289.257H202.336C204.436 289.255 206.45 288.421 207.936 286.938C209.421 285.456 210.257 283.446 210.259 281.349V175.66C210.257 173.562 209.422 171.551 207.936 170.067C206.451 168.583 204.437 167.748 202.336 167.743H181.127V165H202.336C205.167 165.004 207.881 166.129 209.883 168.127C211.885 170.125 213.012 172.834 213.016 175.66V281.349C213.012 284.174 211.885 286.882 209.882 288.878C207.88 290.875 205.166 291.998 202.336 292Z" fill="#2D2928"/>
<path d="M212.787 211.118C212.474 211.118 212.174 210.994 211.953 210.773C211.732 210.552 211.607 210.253 211.607 209.941V195.455C211.607 195.143 211.732 194.843 211.953 194.622C212.174 194.402 212.474 194.278 212.787 194.278C213.099 194.278 213.399 194.402 213.62 194.622C213.842 194.843 213.966 195.143 213.966 195.455V209.941C213.966 210.253 213.842 210.552 213.62 210.773C213.399 210.994 213.099 211.118 212.787 211.118Z" fill="#2D2928"/>
<path d="M168.452 165.22C167.771 165.258 167.13 165.556 166.661 166.051C166.192 166.546 165.931 167.202 165.931 167.883C165.931 168.564 166.192 169.22 166.661 169.715C167.13 170.21 167.771 170.507 168.452 170.546H181.11V165.22H168.452Z" fill="black"/>
<path d="M193.767 165.22H181.109V170.546H193.767C194.13 170.566 194.493 170.512 194.835 170.388C195.176 170.263 195.489 170.07 195.753 169.821C196.017 169.572 196.228 169.271 196.371 168.938C196.515 168.605 196.589 168.246 196.589 167.883C196.589 167.52 196.515 167.161 196.371 166.828C196.228 166.494 196.017 166.194 195.753 165.945C195.489 165.695 195.176 165.503 194.835 165.378C194.493 165.253 194.13 165.2 193.767 165.22Z" fill="#2D2928"/>
<path d="M203.481 183.076H158.62C158.217 183.076 157.891 183.402 157.891 183.804V188.249C157.891 188.652 158.217 188.978 158.62 188.978H203.481C203.883 188.978 204.21 188.652 204.21 188.249V183.804C204.21 183.402 203.883 183.076 203.481 183.076Z" fill="#09868F"/>
<path d="M203.48 266.922H177.292C176.889 266.922 176.562 267.248 176.562 267.65V273.695C176.562 274.097 176.889 274.423 177.292 274.423H203.48C203.883 274.423 204.21 274.097 204.21 273.695V267.65C204.21 267.248 203.883 266.922 203.48 266.922Z" fill="#09868F"/>
<path d="M181.135 218.348H161.437C159.74 218.348 158.357 219.424 158.357 220.736C158.357 222.048 159.732 223.132 161.437 223.132H181.135" fill="white"/>
<path d="M181.135 223.488H161.437C159.477 223.488 157.891 222.252 157.891 220.736C157.891 219.221 159.477 217.993 161.437 217.993H181.135V218.713H161.437C159.986 218.713 158.815 219.619 158.815 220.736C158.815 221.854 159.986 222.768 161.437 222.768H181.135V223.488Z" fill="#C9C9C9"/>
<path d="M181.084 223.132H192.045C192.995 223.132 193.741 222.057 193.741 220.736C193.741 219.415 192.978 218.348 192.045 218.348H181.084" fill="#F9F9F9"/>
<path d="M192.045 223.488H181.084V222.768H192.045C192.893 222.768 193.504 221.862 193.504 220.736C193.504 219.61 192.85 218.713 192.045 218.713H181.084V217.993H192.045C193.13 217.993 194.021 219.229 194.021 220.736C194.021 222.243 193.13 223.488 192.045 223.488Z" fill="#B7B7B7"/>
<path d="M201.665 223.268C200.99 223.268 200.343 223 199.866 222.524C199.388 222.047 199.12 221.401 199.12 220.728C199.12 220.054 199.388 219.408 199.866 218.932C200.343 218.455 200.99 218.188 201.665 218.188" fill="#C9C9C9"/>
<path d="M201.665 218.213C202.34 218.213 202.987 218.481 203.465 218.957C203.942 219.433 204.21 220.079 204.21 220.753C204.21 221.427 203.942 222.073 203.465 222.549C202.987 223.025 202.34 223.293 201.665 223.293" fill="#B7B7B7"/>
<path d="M201.665 213.438C200.99 213.438 200.343 213.17 199.866 212.694C199.388 212.217 199.12 211.571 199.12 210.898C199.12 210.224 199.388 209.578 199.866 209.102C200.343 208.625 200.99 208.358 201.665 208.358" fill="#C9C9C9"/>
<path d="M201.665 208.383C202.34 208.383 202.987 208.651 203.465 209.127C203.942 209.604 204.21 210.25 204.21 210.923C204.21 211.597 203.942 212.243 203.465 212.719C202.987 213.196 202.34 213.463 201.665 213.463" fill="#B7B7B7"/>
<path d="M181.084 198.511H161.428C159.731 198.511 158.349 199.578 158.349 200.899C158.349 202.219 159.731 203.286 161.428 203.286H181.084" fill="white"/>
<path d="M181.084 203.65H161.428C159.477 203.65 157.891 202.414 157.891 200.899C157.891 199.383 159.477 198.155 161.428 198.155H181.084V198.867H161.428C159.986 198.867 158.815 199.781 158.815 200.899C158.815 202.016 159.986 202.931 161.428 202.931H181.084V203.65Z" fill="#C9C9C9"/>
<path d="M181.084 203.286H192.045C192.995 203.286 193.741 202.219 193.741 200.899C193.741 199.578 192.978 198.511 192.045 198.511H181.084" fill="#F9F9F9"/>
<path d="M192.045 203.65H181.084V202.931H192.045C192.893 202.931 193.504 202.016 193.504 200.899C193.504 199.781 192.85 198.867 192.045 198.867H181.084V198.155H192.045C193.13 198.155 194.021 199.383 194.021 200.899C194.021 202.414 193.13 203.65 192.045 203.65Z" fill="#B7B7B7"/>
<path d="M201.682 203.43C201.007 203.43 200.359 203.163 199.882 202.686C199.405 202.21 199.137 201.564 199.137 200.89C199.137 200.217 199.405 199.57 199.882 199.094C200.359 198.618 201.007 198.35 201.682 198.35" fill="#E57607"/>
<path d="M201.682 198.376C202.357 198.376 203.004 198.643 203.481 199.12C203.959 199.596 204.227 200.242 204.227 200.916C204.227 201.589 203.959 202.235 203.481 202.712C203.004 203.188 202.357 203.456 201.682 203.456" fill="#FD8B0A"/>
<path d="M201.283 201.33L200.622 200.704C200.552 200.639 200.459 200.604 200.364 200.607C200.268 200.61 200.178 200.651 200.113 200.721C200.048 200.79 200.013 200.883 200.016 200.978C200.019 201.074 200.06 201.164 200.13 201.229L201.054 202.076C201.12 202.14 201.208 202.176 201.3 202.177C201.349 202.175 201.397 202.162 201.441 202.14C201.485 202.118 201.524 202.088 201.555 202.05L201.657 201.932V200.831L201.283 201.33Z" fill="#F9F9F9"/>
<path d="M203.226 199.637C203.158 199.571 203.066 199.534 202.971 199.534C202.876 199.534 202.785 199.571 202.717 199.637L201.682 200.839V201.94L203.26 200.103C203.311 200.034 203.336 199.949 203.33 199.864C203.324 199.778 203.287 199.698 203.226 199.637Z" fill="white"/>
<path d="M181.084 208.527H161.428C159.731 208.527 158.349 209.594 158.349 210.915C158.349 212.235 159.731 213.302 161.428 213.302H181.084" fill="white"/>
<path d="M181.084 213.658H161.428C159.477 213.658 157.891 212.43 157.891 210.915C157.891 209.399 159.477 208.163 161.428 208.163H181.084V208.883H161.428C159.986 208.883 158.815 209.789 158.815 210.915C158.815 212.041 159.986 212.938 161.428 212.938H181.084V213.658Z" fill="#C9C9C9"/>
<path d="M181.084 213.302H192.045C192.995 213.302 193.741 212.227 193.741 210.915C193.741 209.602 192.978 208.527 192.045 208.527H181.084" fill="#F9F9F9"/>
<path d="M192.045 213.658H181.084V212.938H192.045C192.893 212.938 193.504 212.032 193.504 210.915C193.504 209.797 192.85 208.883 192.045 208.883H181.084V208.163H192.045C193.13 208.163 194.021 209.399 194.021 210.915C194.021 212.43 193.13 213.658 192.045 213.658Z" fill="#B7B7B7"/>
<path d="M181.135 248.32H161.437C159.74 248.32 158.357 249.387 158.357 250.708C158.357 252.029 159.732 253.096 161.437 253.096H181.135" fill="white"/>
<path d="M181.135 253.451H161.437C159.477 253.451 157.891 252.224 157.891 250.708C157.891 249.193 159.477 247.965 161.437 247.965H181.135V248.676H161.437C159.986 248.676 158.815 249.59 158.815 250.708C158.815 251.826 159.986 252.74 161.437 252.74H181.135V253.451Z" fill="#C9C9C9"/>
<path d="M181.084 253.096H192.045C192.995 253.096 193.741 252.029 193.741 250.708C193.741 249.387 192.978 248.32 192.045 248.32H181.084" fill="#F9F9F9"/>
<path d="M192.045 253.451H181.084V252.74H192.045C192.893 252.74 193.504 251.826 193.504 250.708C193.504 249.59 192.85 248.676 192.045 248.676H181.084V247.965H192.045C193.13 247.965 194.021 249.193 194.021 250.708C194.021 252.224 193.13 253.451 192.045 253.451Z" fill="#B7B7B7"/>
<path d="M201.665 253.231C200.99 253.231 200.343 252.963 199.866 252.487C199.388 252.011 199.12 251.365 199.12 250.691C199.12 250.018 199.388 249.371 199.866 248.895C200.343 248.419 200.99 248.151 201.665 248.151" fill="#C9C9C9"/>
<path d="M201.665 248.185C202.34 248.185 202.987 248.453 203.465 248.929C203.942 249.405 204.21 250.051 204.21 250.725C204.21 251.399 203.942 252.045 203.465 252.521C202.987 252.997 202.34 253.265 201.665 253.265" fill="#B7B7B7"/>
<path d="M181.084 228.483H161.428C159.731 228.483 158.349 229.55 158.349 230.871C158.349 232.191 159.731 233.258 161.428 233.258H181.084" fill="white"/>
<path d="M181.084 233.614H161.428C159.477 233.614 157.891 232.386 157.891 230.871C157.891 229.355 159.477 228.119 161.428 228.119H181.084V228.839H161.428C159.986 228.839 158.815 229.745 158.815 230.871C158.815 231.997 159.986 232.894 161.428 232.894H181.084V233.614Z" fill="#C9C9C9"/>
<path d="M181.084 233.258H192.045C192.995 233.258 193.741 232.191 193.741 230.871C193.741 229.55 192.978 228.483 192.045 228.483H181.084" fill="#F9F9F9"/>
<path d="M192.045 233.614H181.084V232.894H192.045C192.893 232.894 193.504 231.988 193.504 230.871C193.504 229.753 192.85 228.839 192.045 228.839H181.084V228.119H192.045C193.13 228.119 194.021 229.355 194.021 230.871C194.021 232.386 193.13 233.614 192.045 233.614Z" fill="#B7B7B7"/>
<path d="M201.682 233.394C201.007 233.394 200.359 233.126 199.882 232.65C199.405 232.173 199.137 231.527 199.137 230.854C199.137 230.18 199.405 229.534 199.882 229.058C200.359 228.581 201.007 228.314 201.682 228.314" fill="#E57607"/>
<path d="M201.682 228.339C202.357 228.339 203.004 228.607 203.481 229.083C203.959 229.559 204.227 230.206 204.227 230.879C204.227 231.553 203.959 232.199 203.481 232.675C203.004 233.152 202.357 233.419 201.682 233.419" fill="#FD8B0A"/>
<path d="M201.283 231.328L200.622 230.701C200.553 230.636 200.461 230.601 200.367 230.603C200.272 230.606 200.182 230.646 200.117 230.714C200.052 230.783 200.016 230.874 200.019 230.969C200.021 231.063 200.061 231.153 200.13 231.218L201.054 232.065C201.12 232.129 201.208 232.165 201.3 232.166C201.398 232.157 201.489 232.112 201.555 232.039L201.657 231.912V230.811L201.283 231.328Z" fill="#F9F9F9"/>
<path d="M203.226 229.618C203.157 229.553 203.066 229.518 202.971 229.518C202.877 229.518 202.786 229.553 202.717 229.618L201.682 230.82V231.921L203.26 230.092C203.314 230.022 203.34 229.936 203.334 229.848C203.327 229.761 203.289 229.679 203.226 229.618Z" fill="white"/>
<path d="M181.084 238.491H161.428C159.731 238.491 158.349 239.557 158.349 240.878C158.349 242.199 159.731 243.266 161.428 243.266H181.084" fill="white"/>
<path d="M181.084 243.664H161.428C159.477 243.664 157.891 242.428 157.891 240.912C157.891 239.397 159.477 238.169 161.428 238.169H181.084V238.88H161.428C159.986 238.88 158.815 239.795 158.815 240.912C158.815 242.03 159.986 242.944 161.428 242.944H181.084V243.664Z" fill="#C9C9C9"/>
<path d="M181.084 243.266H192.045C192.995 243.266 193.741 242.199 193.741 240.878C193.741 239.557 192.978 238.491 192.045 238.491H181.084" fill="#F9F9F9"/>
<path d="M192.045 243.664H181.084V242.944H192.045C192.893 242.944 193.504 242.03 193.504 240.912C193.504 239.795 192.85 238.88 192.045 238.88H181.084V238.169H192.045C193.13 238.169 194.021 239.397 194.021 240.912C194.021 242.428 193.13 243.664 192.045 243.664Z" fill="#B7B7B7"/>
<path d="M201.674 243.41C200.999 243.41 200.352 243.142 199.874 242.666C199.397 242.189 199.129 241.543 199.129 240.87C199.129 240.196 199.397 239.55 199.874 239.074C200.352 238.597 200.999 238.33 201.674 238.33" fill="#E57607"/>
<path d="M201.674 238.355C202.349 238.355 202.996 238.623 203.473 239.099C203.951 239.575 204.219 240.222 204.219 240.895C204.219 241.569 203.951 242.215 203.473 242.691C202.996 243.168 202.349 243.435 201.674 243.435" fill="#FD8B0A"/>
<path d="M201.283 241.522L200.622 240.895C200.552 240.83 200.459 240.795 200.364 240.798C200.268 240.802 200.178 240.843 200.113 240.912C200.048 240.982 200.013 241.074 200.016 241.17C200.019 241.265 200.06 241.355 200.13 241.42L201.054 242.267C201.12 242.331 201.208 242.368 201.3 242.368C201.349 242.366 201.397 242.353 201.441 242.331C201.485 242.31 201.524 242.279 201.555 242.241L201.657 242.123V241.022L201.283 241.522Z" fill="#F9F9F9"/>
<path d="M203.226 239.811C203.158 239.745 203.066 239.708 202.971 239.708C202.876 239.708 202.785 239.745 202.717 239.811L201.682 241.014V242.114L203.26 240.277C203.311 240.209 203.336 240.124 203.33 240.038C203.324 239.952 203.287 239.872 203.226 239.811Z" fill="white"/>
</g>
<path d="M44.1506 80.44V83.848H49.6466V87.016H44.1506V90.712H50.3666V94H40.0466V77.152H50.3666V80.44H44.1506ZM58.479 94.192C57.311 94.192 56.271 93.992 55.359 93.592C54.447 93.192 53.727 92.648 53.199 91.96C52.671 91.256 52.375 90.472 52.311 89.608H56.367C56.415 90.072 56.631 90.448 57.015 90.736C57.399 91.024 57.871 91.168 58.431 91.168C58.943 91.168 59.335 91.072 59.607 90.88C59.895 90.672 60.039 90.408 60.039 90.088C60.039 89.704 59.839 89.424 59.439 89.248C59.039 89.056 58.391 88.848 57.495 88.624C56.535 88.4 55.735 88.168 55.095 87.928C54.455 87.672 53.903 87.28 53.439 86.752C52.975 86.208 52.743 85.48 52.743 84.568C52.743 83.8 52.951 83.104 53.367 82.48C53.799 81.84 54.423 81.336 55.239 80.968C56.071 80.6 57.055 80.416 58.191 80.416C59.871 80.416 61.191 80.832 62.151 81.664C63.127 82.496 63.687 83.6 63.831 84.976H60.039C59.975 84.512 59.767 84.144 59.415 83.872C59.079 83.6 58.631 83.464 58.071 83.464C57.591 83.464 57.223 83.56 56.967 83.752C56.711 83.928 56.583 84.176 56.583 84.496C56.583 84.88 56.783 85.168 57.183 85.36C57.599 85.552 58.239 85.744 59.103 85.936C60.095 86.192 60.903 86.448 61.527 86.704C62.151 86.944 62.695 87.344 63.159 87.904C63.639 88.448 63.887 89.184 63.903 90.112C63.903 90.896 63.679 91.6 63.231 92.224C62.799 92.832 62.167 93.312 61.335 93.664C60.519 94.016 59.567 94.192 58.479 94.192ZM65.5978 87.304C65.5978 85.912 65.8778 84.696 66.4378 83.656C67.0138 82.616 67.8058 81.816 68.8138 81.256C69.8378 80.696 71.0058 80.416 72.3178 80.416C73.9978 80.416 75.3978 80.856 76.5178 81.736C77.6538 82.616 78.3978 83.856 78.7498 85.456H74.3818C74.0138 84.432 73.3018 83.92 72.2458 83.92C71.4938 83.92 70.8938 84.216 70.4458 84.808C69.9978 85.384 69.7738 86.216 69.7738 87.304C69.7738 88.392 69.9978 89.232 70.4458 89.824C70.8938 90.4 71.4938 90.688 72.2458 90.688C73.3018 90.688 74.0138 90.176 74.3818 89.152H78.7498C78.3978 90.72 77.6538 91.952 76.5178 92.848C75.3818 93.744 73.9818 94.192 72.3178 94.192C71.0058 94.192 69.8378 93.912 68.8138 93.352C67.8058 92.792 67.0138 91.992 66.4378 90.952C65.8778 89.912 65.5978 88.696 65.5978 87.304ZM87.041 94.192C85.729 94.192 84.545 93.912 83.489 93.352C82.449 92.792 81.625 91.992 81.017 90.952C80.425 89.912 80.129 88.696 80.129 87.304C80.129 85.928 80.433 84.72 81.041 83.68C81.649 82.624 82.481 81.816 83.537 81.256C84.593 80.696 85.777 80.416 87.089 80.416C88.401 80.416 89.585 80.696 90.641 81.256C91.697 81.816 92.529 82.624 93.137 83.68C93.745 84.72 94.049 85.928 94.049 87.304C94.049 88.68 93.737 89.896 93.113 90.952C92.505 91.992 91.665 92.792 90.593 93.352C89.537 93.912 88.353 94.192 87.041 94.192ZM87.041 90.64C87.825 90.64 88.489 90.352 89.033 89.776C89.593 89.2 89.873 88.376 89.873 87.304C89.873 86.232 89.601 85.408 89.057 84.832C88.529 84.256 87.873 83.968 87.089 83.968C86.289 83.968 85.625 84.256 85.097 84.832C84.569 85.392 84.305 86.216 84.305 87.304C84.305 88.376 84.561 89.2 85.073 89.776C85.601 90.352 86.257 90.64 87.041 90.64ZM101.314 80.416C102.258 80.416 103.082 80.608 103.786 80.992C104.506 81.376 105.058 81.88 105.442 82.504V80.608H109.546V93.976C109.546 95.208 109.298 96.32 108.802 97.312C108.322 98.32 107.578 99.12 106.57 99.712C105.578 100.304 104.338 100.6 102.85 100.6C100.866 100.6 99.2583 100.128 98.0263 99.184C96.7943 98.256 96.0903 96.992 95.9143 95.392H99.9703C100.098 95.904 100.402 96.304 100.882 96.592C101.362 96.896 101.954 97.048 102.658 97.048C103.506 97.048 104.178 96.8 104.674 96.304C105.186 95.824 105.442 95.048 105.442 93.976V92.08C105.042 92.704 104.49 93.216 103.786 93.616C103.082 94 102.258 94.192 101.314 94.192C100.21 94.192 99.2103 93.912 98.3143 93.352C97.4183 92.776 96.7063 91.968 96.1783 90.928C95.6663 89.872 95.4103 88.656 95.4103 87.28C95.4103 85.904 95.6663 84.696 96.1783 83.656C96.7063 82.616 97.4183 81.816 98.3143 81.256C99.2103 80.696 100.21 80.416 101.314 80.416ZM105.442 87.304C105.442 86.28 105.154 85.472 104.578 84.88C104.018 84.288 103.33 83.992 102.514 83.992C101.698 83.992 101.002 84.288 100.426 84.88C99.8663 85.456 99.5863 86.256 99.5863 87.28C99.5863 88.304 99.8663 89.12 100.426 89.728C101.002 90.32 101.698 90.616 102.514 90.616C103.33 90.616 104.018 90.32 104.578 89.728C105.154 89.136 105.442 88.328 105.442 87.304ZM125.139 87.088C125.139 87.472 125.115 87.872 125.067 88.288H115.779C115.843 89.12 116.107 89.76 116.571 90.208C117.051 90.64 117.635 90.856 118.323 90.856C119.347 90.856 120.059 90.424 120.459 89.56H124.827C124.603 90.44 124.195 91.232 123.603 91.936C123.027 92.64 122.299 93.192 121.419 93.592C120.539 93.992 119.555 94.192 118.467 94.192C117.155 94.192 115.987 93.912 114.963 93.352C113.939 92.792 113.139 91.992 112.563 90.952C111.987 89.912 111.699 88.696 111.699 87.304C111.699 85.912 111.979 84.696 112.539 83.656C113.115 82.616 113.915 81.816 114.939 81.256C115.963 80.696 117.139 80.416 118.467 80.416C119.763 80.416 120.915 80.688 121.923 81.232C122.931 81.776 123.715 82.552 124.275 83.56C124.851 84.568 125.139 85.744 125.139 87.088ZM120.939 86.008C120.939 85.304 120.699 84.744 120.219 84.328C119.739 83.912 119.139 83.704 118.419 83.704C117.731 83.704 117.147 83.904 116.667 84.304C116.203 84.704 115.915 85.272 115.803 86.008H120.939ZM132.752 94.192C131.584 94.192 130.544 93.992 129.632 93.592C128.72 93.192 128 92.648 127.472 91.96C126.944 91.256 126.648 90.472 126.584 89.608H130.64C130.688 90.072 130.904 90.448 131.288 90.736C131.672 91.024 132.144 91.168 132.704 91.168C133.216 91.168 133.608 91.072 133.88 90.88C134.168 90.672 134.312 90.408 134.312 90.088C134.312 89.704 134.112 89.424 133.712 89.248C133.312 89.056 132.664 88.848 131.768 88.624C130.808 88.4 130.008 88.168 129.368 87.928C128.728 87.672 128.176 87.28 127.712 86.752C127.248 86.208 127.016 85.48 127.016 84.568C127.016 83.8 127.224 83.104 127.64 82.48C128.072 81.84 128.696 81.336 129.512 80.968C130.344 80.6 131.328 80.416 132.464 80.416C134.144 80.416 135.464 80.832 136.424 81.664C137.4 82.496 137.96 83.6 138.104 84.976H134.312C134.248 84.512 134.04 84.144 133.688 83.872C133.352 83.6 132.904 83.464 132.344 83.464C131.864 83.464 131.496 83.56 131.24 83.752C130.984 83.928 130.856 84.176 130.856 84.496C130.856 84.88 131.056 85.168 131.456 85.36C131.872 85.552 132.512 85.744 133.376 85.936C134.368 86.192 135.176 86.448 135.8 86.704C136.424 86.944 136.968 87.344 137.432 87.904C137.912 88.448 138.16 89.184 138.176 90.112C138.176 90.896 137.952 91.6 137.504 92.224C137.072 92.832 136.44 93.312 135.608 93.664C134.792 94.016 133.84 94.192 132.752 94.192ZM149.877 76.24V94H145.773V76.24H149.877ZM158.947 94.192C157.635 94.192 156.451 93.912 155.395 93.352C154.355 92.792 153.531 91.992 152.923 90.952C152.331 89.912 152.035 88.696 152.035 87.304C152.035 85.928 152.339 84.72 152.947 83.68C153.555 82.624 154.387 81.816 155.443 81.256C156.499 80.696 157.683 80.416 158.995 80.416C160.307 80.416 161.491 80.696 162.547 81.256C163.603 81.816 164.435 82.624 165.043 83.68C165.651 84.72 165.955 85.928 165.955 87.304C165.955 88.68 165.643 89.896 165.019 90.952C164.411 91.992 163.571 92.792 162.499 93.352C161.443 93.912 160.259 94.192 158.947 94.192ZM158.947 90.64C159.731 90.64 160.395 90.352 160.939 89.776C161.499 89.2 161.779 88.376 161.779 87.304C161.779 86.232 161.507 85.408 160.963 84.832C160.435 84.256 159.779 83.968 158.995 83.968C158.195 83.968 157.531 84.256 157.003 84.832C156.475 85.392 156.211 86.216 156.211 87.304C156.211 88.376 156.467 89.2 156.979 89.776C157.507 90.352 158.163 90.64 158.947 90.64ZM173.581 94.192C172.413 94.192 171.373 93.992 170.461 93.592C169.549 93.192 168.829 92.648 168.301 91.96C167.773 91.256 167.477 90.472 167.413 89.608H171.469C171.517 90.072 171.733 90.448 172.117 90.736C172.501 91.024 172.973 91.168 173.533 91.168C174.045 91.168 174.437 91.072 174.709 90.88C174.997 90.672 175.141 90.408 175.141 90.088C175.141 89.704 174.941 89.424 174.541 89.248C174.141 89.056 173.493 88.848 172.597 88.624C171.637 88.4 170.837 88.168 170.197 87.928C169.557 87.672 169.005 87.28 168.541 86.752C168.077 86.208 167.845 85.48 167.845 84.568C167.845 83.8 168.053 83.104 168.469 82.48C168.901 81.84 169.525 81.336 170.341 80.968C171.173 80.6 172.157 80.416 173.293 80.416C174.973 80.416 176.293 80.832 177.253 81.664C178.229 82.496 178.789 83.6 178.933 84.976H175.141C175.077 84.512 174.869 84.144 174.517 83.872C174.181 83.6 173.733 83.464 173.173 83.464C172.693 83.464 172.325 83.56 172.069 83.752C171.813 83.928 171.685 84.176 171.685 84.496C171.685 84.88 171.885 85.168 172.285 85.36C172.701 85.552 173.341 85.744 174.205 85.936C175.197 86.192 176.005 86.448 176.629 86.704C177.253 86.944 177.797 87.344 178.261 87.904C178.741 88.448 178.989 89.184 179.005 90.112C179.005 90.896 178.781 91.6 178.333 92.224C177.901 92.832 177.269 93.312 176.437 93.664C175.621 94.016 174.669 94.192 173.581 94.192ZM190.705 82.504C191.105 81.88 191.657 81.376 192.361 80.992C193.065 80.608 193.889 80.416 194.833 80.416C195.937 80.416 196.937 80.696 197.833 81.256C198.729 81.816 199.433 82.616 199.945 83.656C200.473 84.696 200.737 85.904 200.737 87.28C200.737 88.656 200.473 89.872 199.945 90.928C199.433 91.968 198.729 92.776 197.833 93.352C196.937 93.912 195.937 94.192 194.833 94.192C193.905 94.192 193.081 94 192.361 93.616C191.657 93.232 191.105 92.736 190.705 92.128V100.384H186.601V80.608H190.705V82.504ZM196.561 87.28C196.561 86.256 196.273 85.456 195.697 84.88C195.137 84.288 194.441 83.992 193.609 83.992C192.793 83.992 192.097 84.288 191.521 84.88C190.961 85.472 190.681 86.28 190.681 87.304C190.681 88.328 190.961 89.136 191.521 89.728C192.097 90.32 192.793 90.616 193.609 90.616C194.425 90.616 195.121 90.32 195.697 89.728C196.273 89.12 196.561 88.304 196.561 87.28ZM206.994 82.84C207.474 82.104 208.074 81.528 208.794 81.112C209.514 80.68 210.314 80.464 211.194 80.464V84.808H210.066C209.042 84.808 208.274 85.032 207.762 85.48C207.25 85.912 206.994 86.68 206.994 87.784V94H202.89V80.608H206.994V82.84ZM219.252 94.192C217.94 94.192 216.756 93.912 215.7 93.352C214.66 92.792 213.836 91.992 213.228 90.952C212.636 89.912 212.34 88.696 212.34 87.304C212.34 85.928 212.644 84.72 213.252 83.68C213.86 82.624 214.692 81.816 215.748 81.256C216.804 80.696 217.988 80.416 219.3 80.416C220.612 80.416 221.796 80.696 222.852 81.256C223.908 81.816 224.74 82.624 225.348 83.68C225.956 84.72 226.26 85.928 226.26 87.304C226.26 88.68 225.948 89.896 225.324 90.952C224.716 91.992 223.876 92.792 222.804 93.352C221.748 93.912 220.564 94.192 219.252 94.192ZM219.252 90.64C220.036 90.64 220.7 90.352 221.244 89.776C221.804 89.2 222.084 88.376 222.084 87.304C222.084 86.232 221.812 85.408 221.268 84.832C220.74 84.256 220.084 83.968 219.3 83.968C218.5 83.968 217.836 84.256 217.308 84.832C216.78 85.392 216.516 86.216 216.516 87.304C216.516 88.376 216.772 89.2 217.284 89.776C217.812 90.352 218.468 90.64 219.252 90.64ZM227.621 87.28C227.621 85.904 227.877 84.696 228.389 83.656C228.917 82.616 229.629 81.816 230.525 81.256C231.421 80.696 232.421 80.416 233.525 80.416C234.405 80.416 235.205 80.6 235.925 80.968C236.661 81.336 237.237 81.832 237.653 82.456V76.24H241.757V94H237.653V92.08C237.269 92.72 236.717 93.232 235.997 93.616C235.293 94 234.469 94.192 233.525 94.192C232.421 94.192 231.421 93.912 230.525 93.352C229.629 92.776 228.917 91.968 228.389 90.928C227.877 89.872 227.621 88.656 227.621 87.28ZM237.653 87.304C237.653 86.28 237.365 85.472 236.789 84.88C236.229 84.288 235.541 83.992 234.725 83.992C233.909 83.992 233.213 84.288 232.637 84.88C232.077 85.456 231.797 86.256 231.797 87.28C231.797 88.304 232.077 89.12 232.637 89.728C233.213 90.32 233.909 90.616 234.725 90.616C235.541 90.616 236.229 90.32 236.789 89.728C237.365 89.136 237.653 88.328 237.653 87.304ZM257.95 80.608V94H253.846V92.176C253.43 92.768 252.862 93.248 252.142 93.616C251.438 93.968 250.654 94.144 249.79 94.144C248.766 94.144 247.862 93.92 247.078 93.472C246.294 93.008 245.686 92.344 245.254 91.48C244.822 90.616 244.606 89.6 244.606 88.432V80.608H248.686V87.88C248.686 88.776 248.918 89.472 249.382 89.968C249.846 90.464 250.47 90.712 251.254 90.712C252.054 90.712 252.686 90.464 253.15 89.968C253.614 89.472 253.846 88.776 253.846 87.88V80.608H257.95ZM260.082 87.304C260.082 85.912 260.362 84.696 260.922 83.656C261.498 82.616 262.29 81.816 263.298 81.256C264.322 80.696 265.49 80.416 266.802 80.416C268.482 80.416 269.882 80.856 271.002 81.736C272.138 82.616 272.882 83.856 273.234 85.456H268.866C268.498 84.432 267.786 83.92 266.73 83.92C265.978 83.92 265.378 84.216 264.93 84.808C264.482 85.384 264.258 86.216 264.258 87.304C264.258 88.392 264.482 89.232 264.93 89.824C265.378 90.4 265.978 90.688 266.73 90.688C267.786 90.688 268.498 90.176 268.866 89.152H273.234C272.882 90.72 272.138 91.952 271.002 92.848C269.866 93.744 268.466 94.192 266.802 94.192C265.49 94.192 264.322 93.912 263.298 93.352C262.29 92.792 261.498 91.992 260.922 90.952C260.362 89.912 260.082 88.696 260.082 87.304ZM282.893 90.52V94H280.805C279.317 94 278.157 93.64 277.325 92.92C276.493 92.184 276.077 90.992 276.077 89.344V84.016H274.445V80.608H276.077V77.344H280.181V80.608H282.869V84.016H280.181V89.392C280.181 89.792 280.277 90.08 280.469 90.256C280.661 90.432 280.981 90.52 281.429 90.52H282.893ZM291.275 94.192C289.963 94.192 288.779 93.912 287.723 93.352C286.683 92.792 285.859 91.992 285.251 90.952C284.659 89.912 284.363 88.696 284.363 87.304C284.363 85.928 284.667 84.72 285.275 83.68C285.883 82.624 286.715 81.816 287.771 81.256C288.827 80.696 290.011 80.416 291.323 80.416C292.635 80.416 293.819 80.696 294.875 81.256C295.931 81.816 296.763 82.624 297.371 83.68C297.979 84.72 298.283 85.928 298.283 87.304C298.283 88.68 297.971 89.896 297.347 90.952C296.739 91.992 295.899 92.792 294.827 93.352C293.771 93.912 292.587 94.192 291.275 94.192ZM291.275 90.64C292.059 90.64 292.723 90.352 293.267 89.776C293.827 89.2 294.107 88.376 294.107 87.304C294.107 86.232 293.835 85.408 293.291 84.832C292.763 84.256 292.107 83.968 291.323 83.968C290.523 83.968 289.859 84.256 289.331 84.832C288.803 85.392 288.539 86.216 288.539 87.304C288.539 88.376 288.795 89.2 289.307 89.776C289.835 90.352 290.491 90.64 291.275 90.64ZM305.909 94.192C304.741 94.192 303.701 93.992 302.789 93.592C301.877 93.192 301.157 92.648 300.629 91.96C300.101 91.256 299.805 90.472 299.741 89.608H303.797C303.845 90.072 304.061 90.448 304.445 90.736C304.829 91.024 305.301 91.168 305.861 91.168C306.373 91.168 306.765 91.072 307.037 90.88C307.325 90.672 307.469 90.408 307.469 90.088C307.469 89.704 307.269 89.424 306.869 89.248C306.469 89.056 305.821 88.848 304.925 88.624C303.965 88.4 303.165 88.168 302.525 87.928C301.885 87.672 301.333 87.28 300.869 86.752C300.405 86.208 300.173 85.48 300.173 84.568C300.173 83.8 300.381 83.104 300.797 82.48C301.229 81.84 301.853 81.336 302.669 80.968C303.501 80.6 304.485 80.416 305.621 80.416C307.301 80.416 308.621 80.832 309.581 81.664C310.557 82.496 311.117 83.6 311.261 84.976H307.469C307.405 84.512 307.197 84.144 306.845 83.872C306.509 83.6 306.061 83.464 305.501 83.464C305.021 83.464 304.653 83.56 304.397 83.752C304.141 83.928 304.013 84.176 304.013 84.496C304.013 84.88 304.213 85.168 304.613 85.36C305.029 85.552 305.669 85.744 306.533 85.936C307.525 86.192 308.333 86.448 308.957 86.704C309.581 86.944 310.125 87.344 310.589 87.904C311.069 88.448 311.317 89.184 311.333 90.112C311.333 90.896 311.109 91.6 310.661 92.224C310.229 92.832 309.597 93.312 308.765 93.664C307.949 94.016 306.997 94.192 305.909 94.192ZM135.428 123.088C135.428 123.472 135.404 123.872 135.356 124.288H126.068C126.132 125.12 126.396 125.76 126.86 126.208C127.34 126.64 127.924 126.856 128.612 126.856C129.636 126.856 130.348 126.424 130.748 125.56H135.116C134.892 126.44 134.484 127.232 133.892 127.936C133.316 128.64 132.588 129.192 131.708 129.592C130.828 129.992 129.844 130.192 128.756 130.192C127.444 130.192 126.276 129.912 125.252 129.352C124.228 128.792 123.428 127.992 122.852 126.952C122.276 125.912 121.988 124.696 121.988 123.304C121.988 121.912 122.268 120.696 122.828 119.656C123.404 118.616 124.204 117.816 125.228 117.256C126.252 116.696 127.428 116.416 128.756 116.416C130.052 116.416 131.204 116.688 132.212 117.232C133.22 117.776 134.004 118.552 134.564 119.56C135.14 120.568 135.428 121.744 135.428 123.088ZM131.228 122.008C131.228 121.304 130.988 120.744 130.508 120.328C130.028 119.912 129.428 119.704 128.708 119.704C128.02 119.704 127.436 119.904 126.956 120.304C126.492 120.704 126.204 121.272 126.092 122.008H131.228ZM145.753 116.464C147.321 116.464 148.569 116.976 149.497 118C150.441 119.008 150.913 120.4 150.913 122.176V130H146.833V122.728C146.833 121.832 146.601 121.136 146.137 120.64C145.673 120.144 145.049 119.896 144.265 119.896C143.481 119.896 142.857 120.144 142.393 120.64C141.929 121.136 141.697 121.832 141.697 122.728V130H137.593V116.608H141.697V118.384C142.113 117.792 142.673 117.328 143.377 116.992C144.081 116.64 144.873 116.464 145.753 116.464ZM162.955 112.24V130H158.851V112.24H162.955ZM165.113 123.28C165.113 121.904 165.369 120.696 165.881 119.656C166.409 118.616 167.121 117.816 168.017 117.256C168.913 116.696 169.913 116.416 171.017 116.416C171.961 116.416 172.785 116.608 173.489 116.992C174.209 117.376 174.761 117.88 175.145 118.504V116.608H179.249V130H175.145V128.104C174.745 128.728 174.185 129.232 173.465 129.616C172.761 130 171.937 130.192 170.993 130.192C169.905 130.192 168.913 129.912 168.017 129.352C167.121 128.776 166.409 127.968 165.881 126.928C165.369 125.872 165.113 124.656 165.113 123.28ZM175.145 123.304C175.145 122.28 174.857 121.472 174.281 120.88C173.721 120.288 173.033 119.992 172.217 119.992C171.401 119.992 170.705 120.288 170.129 120.88C169.569 121.456 169.289 122.256 169.289 123.28C169.289 124.304 169.569 125.12 170.129 125.728C170.705 126.32 171.401 126.616 172.217 126.616C173.033 126.616 173.721 126.32 174.281 125.728C174.857 125.136 175.145 124.328 175.145 123.304ZM186.488 123.28C186.488 121.904 186.744 120.696 187.256 119.656C187.784 118.616 188.496 117.816 189.392 117.256C190.288 116.696 191.288 116.416 192.392 116.416C193.336 116.416 194.16 116.608 194.864 116.992C195.584 117.376 196.136 117.88 196.52 118.504V116.608H200.624V130H196.52V128.104C196.12 128.728 195.56 129.232 194.84 129.616C194.136 130 193.312 130.192 192.368 130.192C191.28 130.192 190.288 129.912 189.392 129.352C188.496 128.776 187.784 127.968 187.256 126.928C186.744 125.872 186.488 124.656 186.488 123.28ZM196.52 123.304C196.52 122.28 196.232 121.472 195.656 120.88C195.096 120.288 194.408 119.992 193.592 119.992C192.776 119.992 192.08 120.288 191.504 120.88C190.944 121.456 190.664 122.256 190.664 123.28C190.664 124.304 190.944 125.12 191.504 125.728C192.08 126.32 192.776 126.616 193.592 126.616C194.408 126.616 195.096 126.32 195.656 125.728C196.232 125.136 196.52 124.328 196.52 123.304ZM207.697 118.504C208.097 117.88 208.649 117.376 209.353 116.992C210.057 116.608 210.881 116.416 211.825 116.416C212.929 116.416 213.929 116.696 214.825 117.256C215.721 117.816 216.425 118.616 216.937 119.656C217.465 120.696 217.729 121.904 217.729 123.28C217.729 124.656 217.465 125.872 216.937 126.928C216.425 127.968 215.721 128.776 214.825 129.352C213.929 129.912 212.929 130.192 211.825 130.192C210.897 130.192 210.073 130 209.353 129.616C208.649 129.232 208.097 128.736 207.697 128.128V136.384H203.593V116.608H207.697V118.504ZM213.553 123.28C213.553 122.256 213.265 121.456 212.689 120.88C212.129 120.288 211.433 119.992 210.601 119.992C209.785 119.992 209.089 120.288 208.513 120.88C207.953 121.472 207.673 122.28 207.673 123.304C207.673 124.328 207.953 125.136 208.513 125.728C209.089 126.32 209.785 126.616 210.601 126.616C211.417 126.616 212.113 126.32 212.689 125.728C213.265 125.12 213.553 124.304 213.553 123.28ZM223.987 118.504C224.387 117.88 224.939 117.376 225.643 116.992C226.347 116.608 227.171 116.416 228.115 116.416C229.219 116.416 230.219 116.696 231.115 117.256C232.011 117.816 232.715 118.616 233.227 119.656C233.755 120.696 234.019 121.904 234.019 123.28C234.019 124.656 233.755 125.872 233.227 126.928C232.715 127.968 232.011 128.776 231.115 129.352C230.219 129.912 229.219 130.192 228.115 130.192C227.187 130.192 226.363 130 225.643 129.616C224.939 129.232 224.387 128.736 223.987 128.128V136.384H219.883V116.608H223.987V118.504ZM229.843 123.28C229.843 122.256 229.555 121.456 228.979 120.88C228.419 120.288 227.723 119.992 226.891 119.992C226.075 119.992 225.379 120.288 224.803 120.88C224.243 121.472 223.963 122.28 223.963 123.304C223.963 124.328 224.243 125.136 224.803 125.728C225.379 126.32 226.075 126.616 226.891 126.616C227.707 126.616 228.403 126.32 228.979 125.728C229.555 125.12 229.843 124.304 229.843 123.28Z" fill="#09868F"/>
<circle cx="182" cy="30" r="30" fill="#09868F"/>
<path d="M173.121 38.068C173.937 37.42 174.309 37.12 174.237 37.168C176.589 35.224 178.437 33.628 179.781 32.38C181.149 31.132 182.301 29.824 183.237 28.456C184.173 27.088 184.641 25.756 184.641 24.46C184.641 23.476 184.413 22.708 183.957 22.156C183.501 21.604 182.817 21.328 181.905 21.328C180.993 21.328 180.273 21.676 179.745 22.372C179.241 23.044 178.989 24.004 178.989 25.252H173.049C173.097 23.212 173.529 21.508 174.345 20.14C175.185 18.772 176.277 17.764 177.621 17.116C178.989 16.468 180.501 16.144 182.157 16.144C185.013 16.144 187.161 16.876 188.601 18.34C190.065 19.804 190.797 21.712 190.797 24.064C190.797 26.632 189.921 29.02 188.169 31.228C186.417 33.412 184.185 35.548 181.473 37.636H191.193V42.64H173.121V38.068Z" fill="#F9F9F9"/>
<defs>
<clipPath id="clip0_1009_11002">
<rect width="65" height="127" fill="white" transform="translate(149 165)"/>
</clipPath>
</defs>
</svg>
