<svg width="364" height="304" viewBox="0 0 364 304" fill="none" xmlns="http://www.w3.org/2000/svg">
<g clip-path="url(#clip0_1009_11168)">
<g clip-path="url(#clip1_1009_11168)">
<path d="M182 264.435H91.3721V162.422H182" fill="#F9F9F9"/>
<path d="M182 264.435H91.3721V162.422H182" stroke="black" stroke-miterlimit="10"/>
<path d="M182 162.422H272.628V264.435H182" fill="white"/>
<path d="M182 162.422H272.628V264.435H182" stroke="#2D2928" stroke-miterlimit="10"/>
<path d="M249.757 211.686H182V216.538H249.757C250.038 216.538 250.316 216.475 250.576 216.353C250.836 216.231 251.071 216.052 251.27 215.826C251.468 215.6 251.625 215.332 251.732 215.037C251.839 214.743 251.893 214.427 251.892 214.108C251.892 213.466 251.667 212.85 251.267 212.395C250.867 211.941 250.323 211.686 249.757 211.686Z" fill="#C9C9C9"/>
<path d="M114.25 211.686C113.683 211.686 113.139 211.941 112.738 212.395C112.336 212.849 112.109 213.465 112.107 214.108C112.107 214.753 112.333 215.371 112.735 215.826C113.137 216.282 113.682 216.538 114.25 216.538H182V211.686H114.25Z" fill="#B7B7B7"/>
<path d="M249.757 194.201H182V199.054H249.757C250.038 199.054 250.316 198.991 250.576 198.869C250.836 198.746 251.071 198.567 251.27 198.341C251.468 198.116 251.625 197.847 251.732 197.553C251.839 197.258 251.893 196.942 251.892 196.623C251.892 195.981 251.667 195.365 251.267 194.911C250.867 194.457 250.323 194.201 249.757 194.201Z" fill="#C9C9C9"/>
<path d="M114.25 194.201C113.683 194.201 113.139 194.456 112.738 194.91C112.336 195.364 112.109 195.98 112.107 196.623C112.107 197.268 112.333 197.886 112.735 198.342C113.137 198.798 113.682 199.054 114.25 199.054H182V194.201H114.25Z" fill="#B7B7B7"/>
<path d="M249.757 176.683H182V181.544H249.757C250.038 181.544 250.316 181.481 250.576 181.359C250.836 181.236 251.071 181.057 251.27 180.831C251.468 180.606 251.625 180.338 251.732 180.043C251.839 179.748 251.893 179.432 251.892 179.113C251.894 178.794 251.841 178.478 251.734 178.183C251.627 177.887 251.47 177.619 251.272 177.393C251.073 177.167 250.837 176.988 250.577 176.866C250.317 176.744 250.038 176.682 249.757 176.683Z" fill="#C9C9C9"/>
<path d="M114.25 176.683C113.969 176.682 113.691 176.744 113.431 176.865C113.171 176.986 112.935 177.164 112.735 177.389C112.536 177.614 112.378 177.882 112.271 178.176C112.163 178.471 112.107 178.786 112.107 179.105C112.107 179.749 112.333 180.368 112.735 180.823C113.137 181.279 113.682 181.535 114.25 181.535H182V176.683H114.25Z" fill="#B7B7B7"/>
<path d="M249.757 228.555H182V233.407H249.757C250.038 233.408 250.316 233.346 250.575 233.225C250.835 233.104 251.071 232.925 251.269 232.7C251.468 232.475 251.625 232.207 251.732 231.913C251.839 231.619 251.893 231.303 251.892 230.985C251.893 230.666 251.839 230.35 251.732 230.056C251.625 229.761 251.468 229.493 251.27 229.267C251.071 229.041 250.836 228.862 250.576 228.74C250.316 228.618 250.038 228.555 249.757 228.555Z" fill="#C9C9C9"/>
<path d="M114.25 228.555C113.969 228.555 113.69 228.618 113.43 228.74C113.17 228.862 112.934 229.041 112.735 229.267C112.536 229.492 112.378 229.76 112.271 230.055C112.163 230.35 112.107 230.666 112.107 230.985C112.107 231.304 112.163 231.619 112.271 231.914C112.378 232.208 112.536 232.476 112.735 232.701C112.935 232.926 113.171 233.104 113.431 233.225C113.691 233.346 113.969 233.408 114.25 233.407H182V228.555H114.25Z" fill="#B7B7B7"/>
<path d="M249.757 245.432H182V250.284H249.757C250.038 250.284 250.316 250.221 250.576 250.099C250.836 249.977 251.071 249.797 251.27 249.572C251.468 249.346 251.625 249.078 251.732 248.783C251.839 248.488 251.893 248.172 251.892 247.854C251.893 247.535 251.839 247.22 251.732 246.926C251.625 246.631 251.468 246.364 251.269 246.139C251.071 245.914 250.835 245.735 250.575 245.614C250.316 245.493 250.038 245.431 249.757 245.432Z" fill="#C9C9C9"/>
<path d="M114.25 245.432C113.969 245.431 113.691 245.493 113.431 245.614C113.171 245.735 112.935 245.913 112.735 246.138C112.536 246.363 112.378 246.631 112.271 246.925C112.163 247.219 112.107 247.535 112.107 247.854C112.107 248.498 112.333 249.116 112.735 249.572C113.137 250.028 113.682 250.284 114.25 250.284H182V245.432H114.25Z" fill="#B7B7B7"/>
<path d="M167.663 285.591L162.515 288.646L163.504 282.156L159.353 277.549L165.096 276.612L167.678 270.705" fill="#E57607"/>
<path d="M167.678 270.705L170.237 276.621L175.989 277.574L171.822 282.165L172.797 288.662L167.663 285.591" fill="#FD8B0A"/>
<path d="M190.311 285.591L185.169 288.646L186.152 282.156L182 277.549L187.751 276.612L190.325 270.705" fill="#E57607"/>
<path d="M190.325 270.705L192.892 276.621L198.636 277.574L194.47 282.165L195.452 288.662L190.311 285.591" fill="#FD8B0A"/>
<path d="M214.156 285.591L209.007 288.646L209.997 282.156L205.838 277.549L211.589 276.612L214.163 270.705" fill="#E57607"/>
<path d="M214.164 270.705L216.731 276.621L222.482 277.574L218.315 282.165L219.29 288.662L214.156 285.591" fill="#FD8B0A"/>
<path d="M237.228 285.591L242.369 288.662L241.394 282.165L245.553 277.574L239.809 276.621L237.242 270.705" fill="white"/>
<path d="M242.369 289C242.322 289.015 242.273 289.015 242.227 289L237.086 285.928C237.017 285.886 236.966 285.814 236.944 285.728C236.922 285.643 236.93 285.551 236.967 285.473C237.005 285.395 237.068 285.336 237.143 285.31C237.217 285.283 237.298 285.29 237.369 285.329L241.974 288.089L241.096 282.266C241.09 282.211 241.095 282.155 241.111 282.103C241.126 282.05 241.152 282.002 241.186 281.962L244.906 277.853L239.757 277.009C239.709 276.999 239.663 276.977 239.625 276.943C239.586 276.909 239.555 276.865 239.534 276.815L236.967 270.908C236.934 270.826 236.93 270.732 236.956 270.647C236.982 270.562 237.037 270.492 237.108 270.452C237.18 270.415 237.261 270.41 237.335 270.44C237.409 270.47 237.469 270.532 237.503 270.613L240.003 276.359L245.59 277.287C245.646 277.297 245.699 277.324 245.743 277.366C245.786 277.407 245.818 277.462 245.836 277.524C245.85 277.584 245.851 277.648 245.836 277.709C245.822 277.77 245.793 277.825 245.754 277.87L241.706 282.334L242.659 288.654C242.666 288.717 242.659 288.781 242.638 288.84C242.617 288.9 242.583 288.952 242.54 288.992C242.484 289.012 242.425 289.015 242.369 289Z" fill="#2D2928"/>
<path d="M237.242 270.705L234.668 276.612L228.917 277.549L233.076 282.156L232.086 288.646L237.228 285.591" fill="#F9F9F9"/>
<path d="M232.087 288.991C232.023 288.991 231.96 288.967 231.909 288.924C231.865 288.886 231.831 288.835 231.81 288.778C231.789 288.72 231.782 288.657 231.79 288.595L232.757 282.274L228.709 277.794C228.669 277.75 228.641 277.694 228.627 277.633C228.614 277.572 228.617 277.507 228.635 277.448C228.653 277.387 228.685 277.334 228.729 277.294C228.772 277.253 228.825 277.228 228.881 277.22L234.468 276.3L236.975 270.562C237.012 270.482 237.074 270.422 237.148 270.392C237.223 270.362 237.305 270.366 237.377 270.401C237.413 270.421 237.444 270.449 237.47 270.482C237.496 270.516 237.516 270.555 237.528 270.597C237.541 270.64 237.545 270.685 237.543 270.729C237.54 270.774 237.529 270.817 237.511 270.857L234.937 276.764C234.916 276.813 234.884 276.856 234.845 276.888C234.807 276.92 234.761 276.942 234.714 276.95L229.558 277.794L233.278 281.912C233.312 281.951 233.337 281.999 233.351 282.052C233.365 282.105 233.368 282.161 233.36 282.215L232.474 288.029L237.087 285.287C237.157 285.248 237.238 285.241 237.313 285.267C237.388 285.294 237.451 285.353 237.489 285.43C237.523 285.51 237.53 285.602 237.506 285.687C237.482 285.772 237.431 285.843 237.362 285.886L232.214 288.949C232.175 288.975 232.132 288.989 232.087 288.991Z" fill="black"/>
<path d="M260.501 285.591L265.642 288.662L264.667 282.165L268.826 277.574L263.083 276.621L260.516 270.705" fill="white"/>
<path d="M265.641 289C265.595 289.015 265.546 289.015 265.5 289L260.366 285.928C260.332 285.908 260.301 285.88 260.276 285.846C260.25 285.812 260.232 285.773 260.22 285.73C260.208 285.688 260.204 285.643 260.207 285.599C260.211 285.555 260.222 285.512 260.24 285.473C260.278 285.395 260.341 285.336 260.415 285.31C260.49 285.283 260.571 285.29 260.642 285.329L265.247 288.089L264.377 282.266C264.368 282.212 264.371 282.156 264.385 282.103C264.399 282.05 264.424 282.002 264.458 281.962L268.178 277.853L263.022 277.009C262.974 276.999 262.929 276.976 262.89 276.943C262.851 276.909 262.82 276.865 262.799 276.815L260.24 270.908C260.222 270.868 260.211 270.824 260.208 270.78C260.205 270.735 260.21 270.691 260.223 270.648C260.235 270.606 260.255 270.567 260.281 270.533C260.307 270.499 260.338 270.472 260.374 270.452C260.446 270.414 260.528 270.41 260.603 270.44C260.678 270.47 260.74 270.532 260.776 270.612L263.268 276.359L268.863 277.287C268.917 277.298 268.968 277.326 269.01 277.368C269.051 277.409 269.082 277.463 269.099 277.523C269.116 277.582 269.118 277.646 269.105 277.707C269.093 277.769 269.065 277.825 269.027 277.87L264.972 282.333L265.924 288.654C265.931 288.717 265.924 288.781 265.903 288.84C265.883 288.899 265.849 288.951 265.805 288.991C265.752 289.011 265.696 289.014 265.641 289Z" fill="#2D2928"/>
<path d="M260.516 270.705L257.942 276.612L252.19 277.549L256.349 282.156L255.36 288.646L260.501 285.591" fill="#F9F9F9"/>
<path d="M255.36 288.992C255.317 288.99 255.275 288.978 255.236 288.956C255.198 288.935 255.164 288.904 255.137 288.867C255.109 288.829 255.089 288.786 255.078 288.739C255.066 288.692 255.063 288.643 255.07 288.595L256.029 282.274L251.989 277.794C251.949 277.75 251.92 277.695 251.906 277.634C251.891 277.573 251.892 277.508 251.908 277.448C251.925 277.387 251.958 277.334 252.001 277.294C252.045 277.253 252.097 277.228 252.153 277.22L257.748 276.3L260.255 270.562C260.291 270.483 260.351 270.423 260.424 270.393C260.498 270.363 260.578 270.366 260.65 270.401C260.721 270.442 260.776 270.512 260.802 270.597C260.828 270.682 260.825 270.775 260.791 270.857L258.209 276.764C258.188 276.813 258.157 276.856 258.118 276.888C258.079 276.92 258.034 276.942 257.986 276.95L252.838 277.794L256.558 281.912C256.593 281.95 256.62 281.998 256.635 282.051C256.651 282.104 256.655 282.16 256.647 282.215L255.754 288.029L260.367 285.287C260.437 285.248 260.518 285.241 260.593 285.268C260.668 285.294 260.731 285.353 260.769 285.43C260.787 285.47 260.798 285.513 260.801 285.557C260.805 285.601 260.801 285.646 260.789 285.688C260.777 285.73 260.758 285.77 260.733 285.804C260.708 285.838 260.677 285.866 260.642 285.886L255.494 288.949C255.453 288.976 255.407 288.991 255.36 288.992Z" fill="black"/>
</g>
</g>
<path d="M72.1269 94L68.6229 87.64H67.6389V94H63.5349V77.152H70.4229C71.7509 77.152 72.8789 77.384 73.8069 77.848C74.7509 78.312 75.4549 78.952 75.9189 79.768C76.3829 80.568 76.6149 81.464 76.6149 82.456C76.6149 83.576 76.2949 84.576 75.6549 85.456C75.0309 86.336 74.1029 86.96 72.8709 87.328L76.7589 94H72.1269ZM67.6389 84.736H70.1829C70.9349 84.736 71.4949 84.552 71.8629 84.184C72.2469 83.816 72.4389 83.296 72.4389 82.624C72.4389 81.984 72.2469 81.48 71.8629 81.112C71.4949 80.744 70.9349 80.56 70.1829 80.56H67.6389V84.736ZM91.8151 87.088C91.8151 87.472 91.7911 87.872 91.7431 88.288H82.4551C82.5191 89.12 82.7831 89.76 83.2471 90.208C83.7271 90.64 84.3111 90.856 84.9991 90.856C86.0231 90.856 86.7351 90.424 87.1351 89.56H91.5031C91.2791 90.44 90.8711 91.232 90.2791 91.936C89.7031 92.64 88.9751 93.192 88.0951 93.592C87.2151 93.992 86.2311 94.192 85.1431 94.192C83.8311 94.192 82.6631 93.912 81.6391 93.352C80.6151 92.792 79.8151 91.992 79.2391 90.952C78.6631 89.912 78.3751 88.696 78.3751 87.304C78.3751 85.912 78.6551 84.696 79.2151 83.656C79.7911 82.616 80.5911 81.816 81.6151 81.256C82.6391 80.696 83.8151 80.416 85.1431 80.416C86.4391 80.416 87.5911 80.688 88.5991 81.232C89.6071 81.776 90.3911 82.552 90.9511 83.56C91.5271 84.568 91.8151 85.744 91.8151 87.088ZM87.6151 86.008C87.6151 85.304 87.3751 84.744 86.8951 84.328C86.4151 83.912 85.8151 83.704 85.0951 83.704C84.4071 83.704 83.8231 83.904 83.3431 84.304C82.8791 84.704 82.5911 85.272 82.4791 86.008H87.6151ZM93.1642 87.304C93.1642 85.912 93.4442 84.696 94.0042 83.656C94.5802 82.616 95.3722 81.816 96.3802 81.256C97.4042 80.696 98.5722 80.416 99.8842 80.416C101.564 80.416 102.964 80.856 104.084 81.736C105.22 82.616 105.964 83.856 106.316 85.456H101.948C101.58 84.432 100.868 83.92 99.8122 83.92C99.0602 83.92 98.4602 84.216 98.0122 84.808C97.5642 85.384 97.3402 86.216 97.3402 87.304C97.3402 88.392 97.5642 89.232 98.0122 89.824C98.4602 90.4 99.0602 90.688 99.8122 90.688C100.868 90.688 101.58 90.176 101.948 89.152H106.316C105.964 90.72 105.22 91.952 104.084 92.848C102.948 93.744 101.548 94.192 99.8842 94.192C98.5722 94.192 97.4042 93.912 96.3802 93.352C95.3722 92.792 94.5802 91.992 94.0042 90.952C93.4442 89.912 93.1642 88.696 93.1642 87.304ZM110.575 79.216C109.855 79.216 109.263 79.008 108.799 78.592C108.351 78.16 108.127 77.632 108.127 77.008C108.127 76.368 108.351 75.84 108.799 75.424C109.263 74.992 109.855 74.776 110.575 74.776C111.279 74.776 111.855 74.992 112.303 75.424C112.767 75.84 112.999 76.368 112.999 77.008C112.999 77.632 112.767 78.16 112.303 78.592C111.855 79.008 111.279 79.216 110.575 79.216ZM112.615 80.608V94H108.511V80.608H112.615ZM119.694 82.504C120.078 81.88 120.63 81.376 121.35 80.992C122.07 80.608 122.894 80.416 123.822 80.416C124.926 80.416 125.926 80.696 126.822 81.256C127.718 81.816 128.422 82.616 128.934 83.656C129.462 84.696 129.726 85.904 129.726 87.28C129.726 88.656 129.462 89.872 128.934 90.928C128.422 91.968 127.718 92.776 126.822 93.352C125.926 93.912 124.926 94.192 123.822 94.192C122.878 94.192 122.054 94.008 121.35 93.64C120.646 93.256 120.094 92.752 119.694 92.128V94H115.59V76.24H119.694V82.504ZM125.55 87.28C125.55 86.256 125.262 85.456 124.686 84.88C124.126 84.288 123.43 83.992 122.598 83.992C121.782 83.992 121.086 84.288 120.51 84.88C119.95 85.472 119.67 86.28 119.67 87.304C119.67 88.328 119.95 89.136 120.51 89.728C121.086 90.32 121.782 90.616 122.598 90.616C123.414 90.616 124.11 90.32 124.686 89.728C125.262 89.12 125.55 88.304 125.55 87.28ZM144.503 87.088C144.503 87.472 144.479 87.872 144.431 88.288H135.143C135.207 89.12 135.471 89.76 135.935 90.208C136.415 90.64 136.999 90.856 137.687 90.856C138.711 90.856 139.423 90.424 139.823 89.56H144.191C143.967 90.44 143.559 91.232 142.967 91.936C142.391 92.64 141.663 93.192 140.783 93.592C139.903 93.992 138.919 94.192 137.831 94.192C136.519 94.192 135.351 93.912 134.327 93.352C133.303 92.792 132.503 91.992 131.927 90.952C131.351 89.912 131.063 88.696 131.063 87.304C131.063 85.912 131.343 84.696 131.903 83.656C132.479 82.616 133.279 81.816 134.303 81.256C135.327 80.696 136.503 80.416 137.831 80.416C139.127 80.416 140.279 80.688 141.287 81.232C142.295 81.776 143.079 82.552 143.639 83.56C144.215 84.568 144.503 85.744 144.503 87.088ZM140.303 86.008C140.303 85.304 140.063 84.744 139.583 84.328C139.103 83.912 138.503 83.704 137.783 83.704C137.095 83.704 136.511 83.904 136.031 84.304C135.567 84.704 135.279 85.272 135.167 86.008H140.303ZM152.116 94.192C150.948 94.192 149.908 93.992 148.996 93.592C148.084 93.192 147.364 92.648 146.836 91.96C146.308 91.256 146.012 90.472 145.948 89.608H150.004C150.052 90.072 150.268 90.448 150.652 90.736C151.036 91.024 151.508 91.168 152.068 91.168C152.58 91.168 152.972 91.072 153.244 90.88C153.532 90.672 153.676 90.408 153.676 90.088C153.676 89.704 153.476 89.424 153.076 89.248C152.676 89.056 152.028 88.848 151.132 88.624C150.172 88.4 149.372 88.168 148.732 87.928C148.092 87.672 147.54 87.28 147.076 86.752C146.612 86.208 146.38 85.48 146.38 84.568C146.38 83.8 146.588 83.104 147.004 82.48C147.436 81.84 148.06 81.336 148.876 80.968C149.708 80.6 150.692 80.416 151.828 80.416C153.508 80.416 154.828 80.832 155.788 81.664C156.764 82.496 157.324 83.6 157.468 84.976H153.676C153.612 84.512 153.404 84.144 153.052 83.872C152.716 83.6 152.268 83.464 151.708 83.464C151.228 83.464 150.86 83.56 150.604 83.752C150.348 83.928 150.22 84.176 150.22 84.496C150.22 84.88 150.42 85.168 150.82 85.36C151.236 85.552 151.876 85.744 152.74 85.936C153.732 86.192 154.54 86.448 155.164 86.704C155.788 86.944 156.332 87.344 156.796 87.904C157.276 88.448 157.524 89.184 157.54 90.112C157.54 90.896 157.316 91.6 156.868 92.224C156.436 92.832 155.804 93.312 154.972 93.664C154.156 94.016 153.204 94.192 152.116 94.192ZM177.76 87.088C177.76 87.472 177.736 87.872 177.688 88.288H168.4C168.464 89.12 168.728 89.76 169.192 90.208C169.672 90.64 170.256 90.856 170.944 90.856C171.968 90.856 172.68 90.424 173.08 89.56H177.448C177.224 90.44 176.816 91.232 176.224 91.936C175.648 92.64 174.92 93.192 174.04 93.592C173.16 93.992 172.176 94.192 171.088 94.192C169.776 94.192 168.608 93.912 167.584 93.352C166.56 92.792 165.76 91.992 165.184 90.952C164.608 89.912 164.32 88.696 164.32 87.304C164.32 85.912 164.6 84.696 165.16 83.656C165.736 82.616 166.536 81.816 167.56 81.256C168.584 80.696 169.76 80.416 171.088 80.416C172.384 80.416 173.536 80.688 174.544 81.232C175.552 81.776 176.336 82.552 176.896 83.56C177.472 84.568 177.76 85.744 177.76 87.088ZM173.56 86.008C173.56 85.304 173.32 84.744 172.84 84.328C172.36 83.912 171.76 83.704 171.04 83.704C170.352 83.704 169.768 83.904 169.288 84.304C168.824 84.704 168.536 85.272 168.424 86.008H173.56ZM184.03 76.24V94H179.926V76.24H184.03ZM196.194 82.504C196.594 81.88 197.146 81.376 197.85 80.992C198.554 80.608 199.378 80.416 200.322 80.416C201.426 80.416 202.426 80.696 203.322 81.256C204.218 81.816 204.922 82.616 205.434 83.656C205.962 84.696 206.226 85.904 206.226 87.28C206.226 88.656 205.962 89.872 205.434 90.928C204.922 91.968 204.218 92.776 203.322 93.352C202.426 93.912 201.426 94.192 200.322 94.192C199.394 94.192 198.57 94 197.85 93.616C197.146 93.232 196.594 92.736 196.194 92.128V100.384H192.09V80.608H196.194V82.504ZM202.05 87.28C202.05 86.256 201.762 85.456 201.186 84.88C200.626 84.288 199.93 83.992 199.098 83.992C198.282 83.992 197.586 84.288 197.01 84.88C196.45 85.472 196.17 86.28 196.17 87.304C196.17 88.328 196.45 89.136 197.01 89.728C197.586 90.32 198.282 90.616 199.098 90.616C199.914 90.616 200.61 90.32 201.186 89.728C201.762 89.12 202.05 88.304 202.05 87.28ZM221.003 87.088C221.003 87.472 220.979 87.872 220.931 88.288H211.643C211.707 89.12 211.971 89.76 212.435 90.208C212.915 90.64 213.499 90.856 214.187 90.856C215.211 90.856 215.923 90.424 216.323 89.56H220.691C220.467 90.44 220.059 91.232 219.467 91.936C218.891 92.64 218.163 93.192 217.283 93.592C216.403 93.992 215.419 94.192 214.331 94.192C213.019 94.192 211.851 93.912 210.827 93.352C209.803 92.792 209.003 91.992 208.427 90.952C207.851 89.912 207.563 88.696 207.563 87.304C207.563 85.912 207.843 84.696 208.403 83.656C208.979 82.616 209.779 81.816 210.803 81.256C211.827 80.696 213.003 80.416 214.331 80.416C215.627 80.416 216.779 80.688 217.787 81.232C218.795 81.776 219.579 82.552 220.139 83.56C220.715 84.568 221.003 85.744 221.003 87.088ZM216.803 86.008C216.803 85.304 216.563 84.744 216.083 84.328C215.603 83.912 215.003 83.704 214.283 83.704C213.595 83.704 213.011 83.904 212.531 84.304C212.067 84.704 211.779 85.272 211.667 86.008H216.803ZM222.352 87.28C222.352 85.904 222.608 84.696 223.12 83.656C223.648 82.616 224.36 81.816 225.256 81.256C226.152 80.696 227.152 80.416 228.256 80.416C229.136 80.416 229.936 80.6 230.656 80.968C231.392 81.336 231.968 81.832 232.384 82.456V76.24H236.488V94H232.384V92.08C232 92.72 231.448 93.232 230.728 93.616C230.024 94 229.2 94.192 228.256 94.192C227.152 94.192 226.152 93.912 225.256 93.352C224.36 92.776 223.648 91.968 223.12 90.928C222.608 89.872 222.352 88.656 222.352 87.28ZM232.384 87.304C232.384 86.28 232.096 85.472 231.52 84.88C230.96 84.288 230.272 83.992 229.456 83.992C228.64 83.992 227.944 84.288 227.368 84.88C226.808 85.456 226.528 86.256 226.528 87.28C226.528 88.304 226.808 89.12 227.368 89.728C227.944 90.32 228.64 90.616 229.456 90.616C230.272 90.616 230.96 90.32 231.52 89.728C232.096 89.136 232.384 88.328 232.384 87.304ZM241.521 79.216C240.801 79.216 240.209 79.008 239.745 78.592C239.297 78.16 239.073 77.632 239.073 77.008C239.073 76.368 239.297 75.84 239.745 75.424C240.209 74.992 240.801 74.776 241.521 74.776C242.225 74.776 242.801 74.992 243.249 75.424C243.713 75.84 243.945 76.368 243.945 77.008C243.945 77.632 243.713 78.16 243.249 78.592C242.801 79.008 242.225 79.216 241.521 79.216ZM243.561 80.608V94H239.457V80.608H243.561ZM245.719 87.28C245.719 85.904 245.975 84.696 246.487 83.656C247.015 82.616 247.727 81.816 248.623 81.256C249.519 80.696 250.519 80.416 251.623 80.416C252.503 80.416 253.303 80.6 254.023 80.968C254.759 81.336 255.335 81.832 255.751 82.456V76.24H259.855V94H255.751V92.08C255.367 92.72 254.815 93.232 254.095 93.616C253.391 94 252.567 94.192 251.623 94.192C250.519 94.192 249.519 93.912 248.623 93.352C247.727 92.776 247.015 91.968 246.487 90.928C245.975 89.872 245.719 88.656 245.719 87.28ZM255.751 87.304C255.751 86.28 255.463 85.472 254.887 84.88C254.327 84.288 253.639 83.992 252.823 83.992C252.007 83.992 251.311 84.288 250.735 84.88C250.175 85.456 249.895 86.256 249.895 87.28C249.895 88.304 250.175 89.12 250.735 89.728C251.311 90.32 252.007 90.616 252.823 90.616C253.639 90.616 254.327 90.32 254.887 89.728C255.463 89.136 255.751 88.328 255.751 87.304ZM268.92 94.192C267.608 94.192 266.424 93.912 265.368 93.352C264.328 92.792 263.504 91.992 262.896 90.952C262.304 89.912 262.008 88.696 262.008 87.304C262.008 85.928 262.312 84.72 262.92 83.68C263.528 82.624 264.36 81.816 265.416 81.256C266.472 80.696 267.656 80.416 268.968 80.416C270.28 80.416 271.464 80.696 272.52 81.256C273.576 81.816 274.408 82.624 275.016 83.68C275.624 84.72 275.928 85.928 275.928 87.304C275.928 88.68 275.616 89.896 274.992 90.952C274.384 91.992 273.544 92.792 272.472 93.352C271.416 93.912 270.232 94.192 268.92 94.192ZM268.92 90.64C269.704 90.64 270.368 90.352 270.912 89.776C271.472 89.2 271.752 88.376 271.752 87.304C271.752 86.232 271.48 85.408 270.936 84.832C270.408 84.256 269.752 83.968 268.968 83.968C268.168 83.968 267.504 84.256 266.976 84.832C266.448 85.392 266.184 86.216 266.184 87.304C266.184 88.376 266.44 89.2 266.952 89.776C267.48 90.352 268.136 90.64 268.92 90.64ZM296.871 80.608L288.471 100.36H284.055L287.127 93.544L281.679 80.608H286.263L289.359 88.984L292.431 80.608H296.871ZM40.3595 123.304C40.3595 121.912 40.6395 120.696 41.1995 119.656C41.7755 118.616 42.5675 117.816 43.5755 117.256C44.5995 116.696 45.7675 116.416 47.0795 116.416C48.7595 116.416 50.1595 116.856 51.2795 117.736C52.4155 118.616 53.1595 119.856 53.5115 121.456H49.1435C48.7755 120.432 48.0635 119.92 47.0075 119.92C46.2555 119.92 45.6555 120.216 45.2075 120.808C44.7595 121.384 44.5355 122.216 44.5355 123.304C44.5355 124.392 44.7595 125.232 45.2075 125.824C45.6555 126.4 46.2555 126.688 47.0075 126.688C48.0635 126.688 48.7755 126.176 49.1435 125.152H53.5115C53.1595 126.72 52.4155 127.952 51.2795 128.848C50.1435 129.744 48.7435 130.192 47.0795 130.192C45.7675 130.192 44.5995 129.912 43.5755 129.352C42.5675 128.792 41.7755 127.992 41.1995 126.952C40.6395 125.912 40.3595 124.696 40.3595 123.304ZM54.8908 123.28C54.8908 121.904 55.1468 120.696 55.6588 119.656C56.1868 118.616 56.8988 117.816 57.7948 117.256C58.6908 116.696 59.6908 116.416 60.7948 116.416C61.7388 116.416 62.5628 116.608 63.2668 116.992C63.9868 117.376 64.5388 117.88 64.9228 118.504V116.608H69.0268V130H64.9228V128.104C64.5228 128.728 63.9628 129.232 63.2428 129.616C62.5388 130 61.7148 130.192 60.7708 130.192C59.6828 130.192 58.6908 129.912 57.7948 129.352C56.8988 128.776 56.1868 127.968 55.6588 126.928C55.1468 125.872 54.8908 124.656 54.8908 123.28ZM64.9228 123.304C64.9228 122.28 64.6348 121.472 64.0588 120.88C63.4988 120.288 62.8108 119.992 61.9948 119.992C61.1788 119.992 60.4828 120.288 59.9068 120.88C59.3468 121.456 59.0668 122.256 59.0668 123.28C59.0668 124.304 59.3468 125.12 59.9068 125.728C60.4828 126.32 61.1788 126.616 61.9948 126.616C62.8108 126.616 63.4988 126.32 64.0588 125.728C64.6348 125.136 64.9228 124.328 64.9228 123.304ZM76.0998 112.24V130H71.9958V112.24H76.0998ZM81.1379 115.216C80.4179 115.216 79.8259 115.008 79.3619 114.592C78.9139 114.16 78.6899 113.632 78.6899 113.008C78.6899 112.368 78.9139 111.84 79.3619 111.424C79.8259 110.992 80.4179 110.776 81.1379 110.776C81.8419 110.776 82.4179 110.992 82.8659 111.424C83.3299 111.84 83.5619 112.368 83.5619 113.008C83.5619 113.632 83.3299 114.16 82.8659 114.592C82.4179 115.008 81.8419 115.216 81.1379 115.216ZM83.1779 116.608V130H79.0739V116.608H83.1779ZM92.8721 120.016H90.6641V130H86.5601V120.016H85.0721V116.608H86.5601V116.224C86.5601 114.576 87.0321 113.328 87.9761 112.48C88.9201 111.616 90.3041 111.184 92.1281 111.184C92.4321 111.184 92.6561 111.192 92.8001 111.208V114.688C92.0161 114.64 91.4641 114.752 91.1441 115.024C90.8241 115.296 90.6641 115.784 90.6641 116.488V116.608H92.8721V120.016ZM96.8645 115.216C96.1445 115.216 95.5525 115.008 95.0885 114.592C94.6405 114.16 94.4165 113.632 94.4165 113.008C94.4165 112.368 94.6405 111.84 95.0885 111.424C95.5525 110.992 96.1445 110.776 96.8645 110.776C97.5685 110.776 98.1445 110.992 98.5925 111.424C99.0565 111.84 99.2885 112.368 99.2885 113.008C99.2885 113.632 99.0565 114.16 98.5925 114.592C98.1445 115.008 97.5685 115.216 96.8645 115.216ZM98.9045 116.608V130H94.8005V116.608H98.9045ZM101.063 123.304C101.063 121.912 101.343 120.696 101.903 119.656C102.479 118.616 103.271 117.816 104.279 117.256C105.303 116.696 106.471 116.416 107.783 116.416C109.463 116.416 110.863 116.856 111.983 117.736C113.119 118.616 113.863 119.856 114.215 121.456H109.847C109.479 120.432 108.767 119.92 107.711 119.92C106.959 119.92 106.359 120.216 105.911 120.808C105.463 121.384 105.239 122.216 105.239 123.304C105.239 124.392 105.463 125.232 105.911 125.824C106.359 126.4 106.959 126.688 107.711 126.688C108.767 126.688 109.479 126.176 109.847 125.152H114.215C113.863 126.72 113.119 127.952 111.983 128.848C110.847 129.744 109.447 130.192 107.783 130.192C106.471 130.192 105.303 129.912 104.279 129.352C103.271 128.792 102.479 127.992 101.903 126.952C101.343 125.912 101.063 124.696 101.063 123.304ZM115.594 123.28C115.594 121.904 115.85 120.696 116.362 119.656C116.89 118.616 117.602 117.816 118.498 117.256C119.394 116.696 120.394 116.416 121.498 116.416C122.442 116.416 123.266 116.608 123.97 116.992C124.69 117.376 125.242 117.88 125.626 118.504V116.608H129.73V130H125.626V128.104C125.226 128.728 124.666 129.232 123.946 129.616C123.242 130 122.418 130.192 121.474 130.192C120.386 130.192 119.394 129.912 118.498 129.352C117.602 128.776 116.89 127.968 116.362 126.928C115.85 125.872 115.594 124.656 115.594 123.28ZM125.626 123.304C125.626 122.28 125.338 121.472 124.762 120.88C124.202 120.288 123.514 119.992 122.698 119.992C121.882 119.992 121.186 120.288 120.61 120.88C120.05 121.456 119.77 122.256 119.77 123.28C119.77 124.304 120.05 125.12 120.61 125.728C121.186 126.32 121.882 126.616 122.698 126.616C123.514 126.616 124.202 126.32 124.762 125.728C125.338 125.136 125.626 124.328 125.626 123.304ZM138.147 130.192C136.979 130.192 135.939 129.992 135.027 129.592C134.115 129.192 133.395 128.648 132.867 127.96C132.339 127.256 132.043 126.472 131.979 125.608H136.035C136.083 126.072 136.299 126.448 136.683 126.736C137.067 127.024 137.539 127.168 138.099 127.168C138.611 127.168 139.003 127.072 139.275 126.88C139.563 126.672 139.707 126.408 139.707 126.088C139.707 125.704 139.507 125.424 139.107 125.248C138.707 125.056 138.059 124.848 137.163 124.624C136.203 124.4 135.403 124.168 134.763 123.928C134.123 123.672 133.571 123.28 133.107 122.752C132.643 122.208 132.411 121.48 132.411 120.568C132.411 119.8 132.619 119.104 133.035 118.48C133.467 117.84 134.091 117.336 134.907 116.968C135.739 116.6 136.723 116.416 137.859 116.416C139.539 116.416 140.859 116.832 141.819 117.664C142.795 118.496 143.355 119.6 143.499 120.976H139.707C139.643 120.512 139.435 120.144 139.083 119.872C138.747 119.6 138.299 119.464 137.739 119.464C137.259 119.464 136.891 119.56 136.635 119.752C136.379 119.928 136.251 120.176 136.251 120.496C136.251 120.88 136.451 121.168 136.851 121.36C137.267 121.552 137.907 121.744 138.771 121.936C139.763 122.192 140.571 122.448 141.195 122.704C141.819 122.944 142.363 123.344 142.827 123.904C143.307 124.448 143.555 125.184 143.571 126.112C143.571 126.896 143.347 127.6 142.899 128.224C142.467 128.832 141.835 129.312 141.003 129.664C140.187 130.016 139.235 130.192 138.147 130.192ZM155.272 112.24V130H151.168V112.24H155.272ZM157.43 123.28C157.43 121.904 157.686 120.696 158.198 119.656C158.726 118.616 159.438 117.816 160.334 117.256C161.23 116.696 162.23 116.416 163.334 116.416C164.278 116.416 165.102 116.608 165.806 116.992C166.526 117.376 167.078 117.88 167.462 118.504V116.608H171.566V130H167.462V128.104C167.062 128.728 166.502 129.232 165.782 129.616C165.078 130 164.254 130.192 163.31 130.192C162.222 130.192 161.23 129.912 160.334 129.352C159.438 128.776 158.726 127.968 158.198 126.928C157.686 125.872 157.43 124.656 157.43 123.28ZM167.462 123.304C167.462 122.28 167.174 121.472 166.598 120.88C166.038 120.288 165.35 119.992 164.534 119.992C163.718 119.992 163.022 120.288 162.446 120.88C161.886 121.456 161.606 122.256 161.606 123.28C161.606 124.304 161.886 125.12 162.446 125.728C163.022 126.32 163.718 126.616 164.534 126.616C165.35 126.616 166.038 126.32 166.598 125.728C167.174 125.136 167.462 124.328 167.462 123.304ZM192.245 123.088C192.245 123.472 192.221 123.872 192.173 124.288H182.885C182.949 125.12 183.213 125.76 183.677 126.208C184.157 126.64 184.741 126.856 185.429 126.856C186.453 126.856 187.165 126.424 187.565 125.56H191.933C191.709 126.44 191.301 127.232 190.709 127.936C190.133 128.64 189.405 129.192 188.525 129.592C187.645 129.992 186.661 130.192 185.573 130.192C184.261 130.192 183.093 129.912 182.069 129.352C181.045 128.792 180.245 127.992 179.669 126.952C179.093 125.912 178.805 124.696 178.805 123.304C178.805 121.912 179.085 120.696 179.645 119.656C180.221 118.616 181.021 117.816 182.045 117.256C183.069 116.696 184.245 116.416 185.573 116.416C186.869 116.416 188.021 116.688 189.029 117.232C190.037 117.776 190.821 118.552 191.381 119.56C191.957 120.568 192.245 121.744 192.245 123.088ZM188.045 122.008C188.045 121.304 187.805 120.744 187.325 120.328C186.845 119.912 186.245 119.704 185.525 119.704C184.837 119.704 184.253 119.904 183.773 120.304C183.309 120.704 183.021 121.272 182.909 122.008H188.045ZM202.33 130L199.762 126.28L197.602 130H193.162L197.578 123.16L193.042 116.608H197.65L200.218 120.304L202.378 116.608H206.818L202.33 123.352L206.938 130H202.33ZM212.623 118.504C213.023 117.88 213.575 117.376 214.279 116.992C214.983 116.608 215.807 116.416 216.751 116.416C217.855 116.416 218.855 116.696 219.751 117.256C220.647 117.816 221.351 118.616 221.863 119.656C222.391 120.696 222.655 121.904 222.655 123.28C222.655 124.656 222.391 125.872 221.863 126.928C221.351 127.968 220.647 128.776 219.751 129.352C218.855 129.912 217.855 130.192 216.751 130.192C215.823 130.192 214.999 130 214.279 129.616C213.575 129.232 213.023 128.736 212.623 128.128V136.384H208.519V116.608H212.623V118.504ZM218.479 123.28C218.479 122.256 218.191 121.456 217.615 120.88C217.055 120.288 216.359 119.992 215.527 119.992C214.711 119.992 214.015 120.288 213.439 120.88C212.879 121.472 212.599 122.28 212.599 123.304C212.599 124.328 212.879 125.136 213.439 125.728C214.015 126.32 214.711 126.616 215.527 126.616C216.343 126.616 217.039 126.32 217.615 125.728C218.191 125.12 218.479 124.304 218.479 123.28ZM237.432 123.088C237.432 123.472 237.408 123.872 237.36 124.288H228.072C228.136 125.12 228.4 125.76 228.864 126.208C229.344 126.64 229.928 126.856 230.616 126.856C231.64 126.856 232.352 126.424 232.752 125.56H237.12C236.896 126.44 236.488 127.232 235.896 127.936C235.32 128.64 234.592 129.192 233.712 129.592C232.832 129.992 231.848 130.192 230.76 130.192C229.448 130.192 228.28 129.912 227.256 129.352C226.232 128.792 225.432 127.992 224.856 126.952C224.28 125.912 223.992 124.696 223.992 123.304C223.992 121.912 224.272 120.696 224.832 119.656C225.408 118.616 226.208 117.816 227.232 117.256C228.256 116.696 229.432 116.416 230.76 116.416C232.056 116.416 233.208 116.688 234.216 117.232C235.224 117.776 236.008 118.552 236.568 119.56C237.144 120.568 237.432 121.744 237.432 123.088ZM233.232 122.008C233.232 121.304 232.992 120.744 232.512 120.328C232.032 119.912 231.432 119.704 230.712 119.704C230.024 119.704 229.44 119.904 228.96 120.304C228.496 120.704 228.208 121.272 228.096 122.008H233.232ZM243.701 118.84C244.181 118.104 244.781 117.528 245.501 117.112C246.221 116.68 247.021 116.464 247.901 116.464V120.808H246.773C245.749 120.808 244.981 121.032 244.469 121.48C243.957 121.912 243.701 122.68 243.701 123.784V130H239.597V116.608H243.701V118.84ZM251.927 115.216C251.207 115.216 250.615 115.008 250.151 114.592C249.703 114.16 249.479 113.632 249.479 113.008C249.479 112.368 249.703 111.84 250.151 111.424C250.615 110.992 251.207 110.776 251.927 110.776C252.631 110.776 253.207 110.992 253.655 111.424C254.119 111.84 254.351 112.368 254.351 113.008C254.351 113.632 254.119 114.16 253.655 114.592C253.207 115.008 252.631 115.216 251.927 115.216ZM253.967 116.608V130H249.863V116.608H253.967ZM269.565 123.088C269.565 123.472 269.541 123.872 269.493 124.288H260.205C260.269 125.12 260.533 125.76 260.997 126.208C261.477 126.64 262.061 126.856 262.749 126.856C263.773 126.856 264.485 126.424 264.885 125.56H269.253C269.029 126.44 268.621 127.232 268.029 127.936C267.453 128.64 266.725 129.192 265.845 129.592C264.965 129.992 263.981 130.192 262.893 130.192C261.581 130.192 260.413 129.912 259.389 129.352C258.365 128.792 257.565 127.992 256.989 126.952C256.413 125.912 256.125 124.696 256.125 123.304C256.125 121.912 256.405 120.696 256.965 119.656C257.541 118.616 258.341 117.816 259.365 117.256C260.389 116.696 261.565 116.416 262.893 116.416C264.189 116.416 265.341 116.688 266.349 117.232C267.357 117.776 268.141 118.552 268.701 119.56C269.277 120.568 269.565 121.744 269.565 123.088ZM265.365 122.008C265.365 121.304 265.125 120.744 264.645 120.328C264.165 119.912 263.565 119.704 262.845 119.704C262.157 119.704 261.573 119.904 261.093 120.304C260.629 120.704 260.341 121.272 260.229 122.008H265.365ZM279.89 116.464C281.458 116.464 282.706 116.976 283.634 118C284.578 119.008 285.05 120.4 285.05 122.176V130H280.97V122.728C280.97 121.832 280.738 121.136 280.274 120.64C279.81 120.144 279.186 119.896 278.402 119.896C277.618 119.896 276.994 120.144 276.53 120.64C276.066 121.136 275.834 121.832 275.834 122.728V130H271.73V116.608H275.834V118.384C276.25 117.792 276.81 117.328 277.514 116.992C278.218 116.64 279.01 116.464 279.89 116.464ZM287.086 123.304C287.086 121.912 287.366 120.696 287.926 119.656C288.502 118.616 289.294 117.816 290.302 117.256C291.326 116.696 292.494 116.416 293.806 116.416C295.486 116.416 296.886 116.856 298.006 117.736C299.142 118.616 299.886 119.856 300.238 121.456H295.87C295.502 120.432 294.79 119.92 293.734 119.92C292.982 119.92 292.382 120.216 291.934 120.808C291.486 121.384 291.262 122.216 291.262 123.304C291.262 124.392 291.486 125.232 291.934 125.824C292.382 126.4 292.982 126.688 293.734 126.688C294.79 126.688 295.502 126.176 295.87 125.152H300.238C299.886 126.72 299.142 127.952 298.006 128.848C296.87 129.744 295.47 130.192 293.806 130.192C292.494 130.192 291.326 129.912 290.302 129.352C289.294 128.792 288.502 127.992 287.926 126.952C287.366 125.912 287.086 124.696 287.086 123.304ZM304.497 115.216C303.777 115.216 303.185 115.008 302.721 114.592C302.273 114.16 302.049 113.632 302.049 113.008C302.049 112.368 302.273 111.84 302.721 111.424C303.185 110.992 303.777 110.776 304.497 110.776C305.201 110.776 305.777 110.992 306.225 111.424C306.689 111.84 306.921 112.368 306.921 113.008C306.921 113.632 306.689 114.16 306.225 114.592C305.777 115.008 305.201 115.216 304.497 115.216ZM306.537 116.608V130H302.433V116.608H306.537ZM308.695 123.28C308.695 121.904 308.951 120.696 309.463 119.656C309.991 118.616 310.703 117.816 311.599 117.256C312.495 116.696 313.495 116.416 314.599 116.416C315.543 116.416 316.367 116.608 317.071 116.992C317.791 117.376 318.343 117.88 318.727 118.504V116.608H322.831V130H318.727V128.104C318.327 128.728 317.767 129.232 317.047 129.616C316.343 130 315.519 130.192 314.575 130.192C313.487 130.192 312.495 129.912 311.599 129.352C310.703 128.776 309.991 127.968 309.463 126.928C308.951 125.872 308.695 124.656 308.695 123.28ZM318.727 123.304C318.727 122.28 318.439 121.472 317.863 120.88C317.303 120.288 316.615 119.992 315.799 119.992C314.983 119.992 314.287 120.288 313.711 120.88C313.151 121.456 312.871 122.256 312.871 123.28C312.871 124.304 313.151 125.12 313.711 125.728C314.287 126.32 314.983 126.616 315.799 126.616C316.615 126.616 317.303 126.32 317.863 125.728C318.439 125.136 318.727 124.328 318.727 123.304Z" fill="#09868F"/>
<circle cx="182" cy="30" r="30" fill="#09868F"/>
<path d="M184.616 24.812C184.424 23.924 184.088 23.264 183.608 22.832C183.128 22.376 182.444 22.148 181.556 22.148C180.188 22.148 179.204 22.748 178.604 23.948C178.004 25.124 177.692 26.996 177.668 29.564C178.196 28.724 178.952 28.064 179.936 27.584C180.944 27.104 182.048 26.864 183.248 26.864C185.6 26.864 187.484 27.608 188.9 29.096C190.34 30.584 191.06 32.66 191.06 35.324C191.06 37.076 190.7 38.612 189.98 39.932C189.284 41.252 188.252 42.284 186.884 43.028C185.54 43.772 183.944 44.144 182.096 44.144C178.4 44.144 175.832 42.992 174.392 40.688C172.952 38.36 172.232 35.024 172.232 30.68C172.232 26.12 172.988 22.736 174.5 20.528C176.036 18.296 178.484 17.18 181.844 17.18C183.644 17.18 185.156 17.54 186.38 18.26C187.628 18.956 188.564 19.88 189.188 21.032C189.836 22.184 190.22 23.444 190.34 24.812H184.616ZM181.772 31.724C180.74 31.724 179.876 32.036 179.18 32.66C178.508 33.26 178.172 34.124 178.172 35.252C178.172 36.404 178.484 37.304 179.108 37.952C179.756 38.6 180.668 38.924 181.844 38.924C182.9 38.924 183.728 38.612 184.328 37.988C184.952 37.34 185.264 36.464 185.264 35.36C185.264 34.232 184.964 33.344 184.364 32.696C183.764 32.048 182.9 31.724 181.772 31.724Z" fill="#F9F9F9"/>
<defs>
<clipPath id="clip0_1009_11168">
<rect width="210" height="141" fill="white" transform="translate(73 162.26)"/>
</clipPath>
<clipPath id="clip1_1009_11168">
<rect width="182" height="127" fill="white" transform="translate(91 162)"/>
</clipPath>
</defs>
</svg>
