<svg width="289" height="412" viewBox="0 0 289 412" fill="none" xmlns="http://www.w3.org/2000/svg">
<g clip-path="url(#clip0_2610_7942)">
<path d="M-5.70365 60.3232C2.90179 64.9186 13.3143 69.9699 21.9713 76.6883C30.6812 83.1554 38.5147 90.7233 45.2762 99.2029C51.8788 107.47 57.3768 116.561 61.6321 126.246C65.7931 135.912 68.6353 145.511 72.1049 155.11C66.8029 146.51 61.8526 137.369 56.1852 129.336C44.9954 113.47 29.8355 100.813 12.2168 92.6288C3.71836 88.5189 -4.86852 86.3593 -15.079 83.4277L-5.70365 60.3232Z" fill="#755236"/>
<path d="M207.306 122.151C201.062 116.183 194.317 110.761 187.145 105.945C194.625 110.33 201.418 115.79 207.306 122.151V122.151Z" fill="#8A684C"/>
<path d="M2.83533 131.854C-12.9245 137.544 -26.7793 147.525 -37.1623 160.667C-47.5452 173.809 -54.0422 189.589 -55.9184 206.221L-56.6733 212.936C-60.596 252.169 -49.4021 291.408 -25.3712 322.665C-1.34023 353.921 33.7206 374.844 72.6718 381.172C82.5587 382.82 92.7159 381.429 101.798 377.181C110.879 372.934 118.457 366.032 123.527 357.389C127.24 351.035 133.059 346.175 139.978 343.653L61.2613 130.358C42.1566 124.42 21.6199 124.946 2.83533 131.854Z" fill="#D81E05"/>
<path d="M205.726 117.326L205.419 117.032C199.171 111.068 192.426 105.646 185.257 100.825C164.866 88.5744 140.474 84.8027 117.317 90.3201C94.1608 95.8374 74.0865 110.204 61.4056 130.334L61.2476 130.383L139.965 343.679C146.864 341.146 154.431 341.095 161.36 343.536C170.861 346.841 181.146 347.18 190.848 344.508C200.551 341.835 209.212 336.279 215.682 328.576C241.07 298.623 254.152 260.178 252.293 220.992C250.435 181.805 233.772 144.79 205.665 117.409L205.726 117.326Z" fill="#E84A1A"/>
<path d="M77.4633 70.3969C70.6875 75.9733 54.8508 88.201 41.5419 93.6396C57.1802 94.9877 72.7232 90.111 84.7885 80.0711C96.8538 70.0312 104.465 55.6405 105.965 40.0307L106.019 39.3661C101.058 50.733 85.6687 63.708 77.4633 70.3969Z" fill="#9AD046"/>
<path d="M106.078 39.3477L95.2341 46.2487C89.4158 50.5275 82.231 52.5291 75.0387 51.8748C68.4305 51.2604 61.8204 53.0487 56.4227 56.9108C51.0251 60.773 47.2021 66.4498 45.6562 72.8986L40.6712 93.6929C40.9476 93.6073 41.2988 93.6931 41.6118 93.7258C54.8478 88.3314 70.7574 76.0595 77.5332 70.4831C85.6687 63.7078 101.058 50.733 106.078 39.3477Z" fill="#7CBC20"/>
</g>
<defs>
<clipPath id="clip0_2610_7942">
<rect width="310" height="335" fill="white" transform="translate(-107 91.686) rotate(-17.2032)"/>
</clipPath>
</defs>
</svg>
