<svg width="364" height="309" viewBox="0 0 364 309" fill="none" xmlns="http://www.w3.org/2000/svg">
<path d="M84.3701 77.152V80.44H77.5061V83.992H82.6421V87.184H77.5061V94H73.4021V77.152H84.3701ZM90.6311 82.84C91.1111 82.104 91.7111 81.528 92.4311 81.112C93.1511 80.68 93.9511 80.464 94.8311 80.464V84.808H93.7031C92.6791 84.808 91.9111 85.032 91.3991 85.48C90.8871 85.912 90.6311 86.68 90.6311 87.784V94H86.5271V80.608H90.6311V82.84ZM110.017 80.608V94H105.913V92.176C105.497 92.768 104.929 93.248 104.209 93.616C103.505 93.968 102.721 94.144 101.857 94.144C100.833 94.144 99.9287 93.92 99.1447 93.472C98.3607 93.008 97.7527 92.344 97.3207 91.48C96.8887 90.616 96.6727 89.6 96.6727 88.432V80.608H100.753V87.88C100.753 88.776 100.985 89.472 101.449 89.968C101.913 90.464 102.537 90.712 103.321 90.712C104.121 90.712 104.753 90.464 105.217 89.968C105.681 89.472 105.913 88.776 105.913 87.88V80.608H110.017ZM112.149 87.304C112.149 85.912 112.429 84.696 112.989 83.656C113.565 82.616 114.357 81.816 115.365 81.256C116.389 80.696 117.557 80.416 118.869 80.416C120.549 80.416 121.949 80.856 123.069 81.736C124.205 82.616 124.949 83.856 125.301 85.456H120.933C120.565 84.432 119.853 83.92 118.797 83.92C118.045 83.92 117.445 84.216 116.997 84.808C116.549 85.384 116.325 86.216 116.325 87.304C116.325 88.392 116.549 89.232 116.997 89.824C117.445 90.4 118.045 90.688 118.797 90.688C119.853 90.688 120.565 90.176 120.933 89.152H125.301C124.949 90.72 124.205 91.952 123.069 92.848C121.933 93.744 120.533 94.192 118.869 94.192C117.557 94.192 116.389 93.912 115.365 93.352C114.357 92.792 113.565 91.992 112.989 90.952C112.429 89.912 112.149 88.696 112.149 87.304ZM134.96 90.52V94H132.872C131.384 94 130.224 93.64 129.392 92.92C128.56 92.184 128.144 90.992 128.144 89.344V84.016H126.512V80.608H128.144V77.344H132.248V80.608H134.936V84.016H132.248V89.392C132.248 89.792 132.344 90.08 132.536 90.256C132.728 90.432 133.048 90.52 133.496 90.52H134.96ZM150.47 80.608V94H146.366V92.176C145.95 92.768 145.382 93.248 144.662 93.616C143.958 93.968 143.174 94.144 142.31 94.144C141.286 94.144 140.382 93.92 139.598 93.472C138.814 93.008 138.206 92.344 137.774 91.48C137.342 90.616 137.126 89.6 137.126 88.432V80.608H141.206V87.88C141.206 88.776 141.438 89.472 141.902 89.968C142.366 90.464 142.99 90.712 143.774 90.712C144.574 90.712 145.206 90.464 145.67 89.968C146.134 89.472 146.366 88.776 146.366 87.88V80.608H150.47ZM158.866 94.192C157.698 94.192 156.658 93.992 155.746 93.592C154.834 93.192 154.114 92.648 153.586 91.96C153.058 91.256 152.762 90.472 152.698 89.608H156.754C156.802 90.072 157.018 90.448 157.402 90.736C157.786 91.024 158.258 91.168 158.818 91.168C159.33 91.168 159.722 91.072 159.994 90.88C160.282 90.672 160.426 90.408 160.426 90.088C160.426 89.704 160.226 89.424 159.826 89.248C159.426 89.056 158.778 88.848 157.882 88.624C156.922 88.4 156.122 88.168 155.482 87.928C154.842 87.672 154.29 87.28 153.826 86.752C153.362 86.208 153.13 85.48 153.13 84.568C153.13 83.8 153.338 83.104 153.754 82.48C154.186 81.84 154.81 81.336 155.626 80.968C156.458 80.6 157.442 80.416 158.578 80.416C160.258 80.416 161.578 80.832 162.538 81.664C163.514 82.496 164.074 83.6 164.218 84.976H160.426C160.362 84.512 160.154 84.144 159.802 83.872C159.466 83.6 159.018 83.464 158.458 83.464C157.978 83.464 157.61 83.56 157.354 83.752C157.098 83.928 156.97 84.176 156.97 84.496C156.97 84.88 157.17 85.168 157.57 85.36C157.986 85.552 158.626 85.744 159.49 85.936C160.482 86.192 161.29 86.448 161.914 86.704C162.538 86.944 163.082 87.344 163.546 87.904C164.026 88.448 164.274 89.184 164.29 90.112C164.29 90.896 164.066 91.6 163.618 92.224C163.186 92.832 162.554 93.312 161.722 93.664C160.906 94.016 159.954 94.192 158.866 94.192ZM187.702 77.152L181.726 94H176.59L170.614 77.152H174.982L179.158 89.872L183.358 77.152H187.702ZM193.834 80.608V94H189.73V80.608H193.834ZM194.578 77.272L188.794 79.696V76.864L194.578 74.08V77.272ZM196.313 87.28C196.313 85.904 196.569 84.696 197.081 83.656C197.609 82.616 198.321 81.816 199.217 81.256C200.113 80.696 201.113 80.416 202.217 80.416C203.161 80.416 203.985 80.608 204.689 80.992C205.409 81.376 205.961 81.88 206.345 82.504V80.608H210.449V94H206.345V92.104C205.945 92.728 205.385 93.232 204.665 93.616C203.961 94 203.137 94.192 202.193 94.192C201.105 94.192 200.113 93.912 199.217 93.352C198.321 92.776 197.609 91.968 197.081 90.928C196.569 89.872 196.313 88.656 196.313 87.28ZM206.345 87.304C206.345 86.28 206.057 85.472 205.481 84.88C204.921 84.288 204.233 83.992 203.417 83.992C202.601 83.992 201.905 84.288 201.329 84.88C200.769 85.456 200.489 86.256 200.489 87.28C200.489 88.304 200.769 89.12 201.329 89.728C201.905 90.32 202.601 90.616 203.417 90.616C204.233 90.616 204.921 90.32 205.481 89.728C206.057 89.136 206.345 88.328 206.345 87.304ZM231.128 87.088C231.128 87.472 231.104 87.872 231.056 88.288H221.768C221.832 89.12 222.096 89.76 222.56 90.208C223.04 90.64 223.624 90.856 224.312 90.856C225.336 90.856 226.048 90.424 226.448 89.56H230.816C230.592 90.44 230.184 91.232 229.592 91.936C229.016 92.64 228.288 93.192 227.408 93.592C226.528 93.992 225.544 94.192 224.456 94.192C223.144 94.192 221.976 93.912 220.952 93.352C219.928 92.792 219.128 91.992 218.552 90.952C217.976 89.912 217.688 88.696 217.688 87.304C217.688 85.912 217.968 84.696 218.528 83.656C219.104 82.616 219.904 81.816 220.928 81.256C221.952 80.696 223.128 80.416 224.456 80.416C225.752 80.416 226.904 80.688 227.912 81.232C228.92 81.776 229.704 82.552 230.264 83.56C230.84 84.568 231.128 85.744 231.128 87.088ZM226.928 86.008C226.928 85.304 226.688 84.744 226.208 84.328C225.728 83.912 225.128 83.704 224.408 83.704C223.72 83.704 223.136 83.904 222.656 84.304C222.192 84.704 221.904 85.272 221.792 86.008H226.928ZM241.453 80.464C243.021 80.464 244.269 80.976 245.197 82C246.141 83.008 246.613 84.4 246.613 86.176V94H242.533V86.728C242.533 85.832 242.301 85.136 241.837 84.64C241.373 84.144 240.749 83.896 239.965 83.896C239.181 83.896 238.557 84.144 238.093 84.64C237.629 85.136 237.397 85.832 237.397 86.728V94H233.293V80.608H237.397V82.384C237.813 81.792 238.373 81.328 239.077 80.992C239.781 80.64 240.573 80.464 241.453 80.464ZM255.489 90.16L258.393 80.608H262.761L258.009 94H252.945L248.193 80.608H252.585L255.489 90.16ZM268.904 80.608V94H264.8V80.608H268.904ZM269.648 77.272L263.864 79.696V76.864L269.648 74.08V77.272ZM271.383 87.28C271.383 85.904 271.639 84.696 272.151 83.656C272.679 82.616 273.391 81.816 274.287 81.256C275.183 80.696 276.183 80.416 277.287 80.416C278.231 80.416 279.055 80.608 279.759 80.992C280.479 81.376 281.031 81.88 281.415 82.504V80.608H285.519V94H281.415V92.104C281.015 92.728 280.455 93.232 279.735 93.616C279.031 94 278.207 94.192 277.263 94.192C276.175 94.192 275.183 93.912 274.287 93.352C273.391 92.776 272.679 91.968 272.151 90.928C271.639 89.872 271.383 88.656 271.383 87.28ZM281.415 87.304C281.415 86.28 281.127 85.472 280.551 84.88C279.991 84.288 279.303 83.992 278.487 83.992C277.671 83.992 276.975 84.288 276.399 84.88C275.839 85.456 275.559 86.256 275.559 87.28C275.559 88.304 275.839 89.12 276.399 89.728C276.975 90.32 277.671 90.616 278.487 90.616C279.303 90.616 279.991 90.32 280.551 89.728C281.127 89.136 281.415 88.328 281.415 87.304ZM137.871 116.608L129.471 136.36H125.055L128.127 129.544L122.679 116.608H127.263L130.359 124.984L133.431 116.608H137.871ZM157.065 123.088C157.065 123.472 157.041 123.872 156.993 124.288H147.705C147.769 125.12 148.033 125.76 148.497 126.208C148.977 126.64 149.561 126.856 150.249 126.856C151.273 126.856 151.985 126.424 152.385 125.56H156.753C156.529 126.44 156.121 127.232 155.529 127.936C154.953 128.64 154.225 129.192 153.345 129.592C152.465 129.992 151.481 130.192 150.393 130.192C149.081 130.192 147.913 129.912 146.889 129.352C145.865 128.792 145.065 127.992 144.489 126.952C143.913 125.912 143.625 124.696 143.625 123.304C143.625 121.912 143.905 120.696 144.465 119.656C145.041 118.616 145.841 117.816 146.865 117.256C147.889 116.696 149.065 116.416 150.393 116.416C151.689 116.416 152.841 116.688 153.849 117.232C154.857 117.776 155.641 118.552 156.201 119.56C156.777 120.568 157.065 121.744 157.065 123.088ZM152.865 122.008C152.865 121.304 152.625 120.744 152.145 120.328C151.665 119.912 151.065 119.704 150.345 119.704C149.657 119.704 149.073 119.904 148.593 120.304C148.129 120.704 147.841 121.272 147.729 122.008H152.865ZM167.39 116.464C168.958 116.464 170.206 116.976 171.134 118C172.078 119.008 172.55 120.4 172.55 122.176V130H168.47V122.728C168.47 121.832 168.238 121.136 167.774 120.64C167.31 120.144 166.686 119.896 165.902 119.896C165.118 119.896 164.494 120.144 164.03 120.64C163.566 121.136 163.334 121.832 163.334 122.728V130H159.23V116.608H163.334V118.384C163.75 117.792 164.31 117.328 165.014 116.992C165.718 116.64 166.51 116.464 167.39 116.464ZM182.866 126.52V130H180.778C179.29 130 178.13 129.64 177.298 128.92C176.466 128.184 176.05 126.992 176.05 125.344V120.016H174.418V116.608H176.05V113.344H180.154V116.608H182.842V120.016H180.154V125.392C180.154 125.792 180.25 126.08 180.442 126.256C180.634 126.432 180.954 126.52 181.402 126.52H182.866ZM189.256 118.84C189.736 118.104 190.336 117.528 191.056 117.112C191.776 116.68 192.576 116.464 193.456 116.464V120.808H192.328C191.304 120.808 190.536 121.032 190.024 121.48C189.512 121.912 189.256 122.68 189.256 123.784V130H185.152V116.608H189.256V118.84ZM208.042 123.088C208.042 123.472 208.018 123.872 207.97 124.288H198.682C198.746 125.12 199.01 125.76 199.474 126.208C199.954 126.64 200.538 126.856 201.226 126.856C202.25 126.856 202.962 126.424 203.362 125.56H207.73C207.506 126.44 207.098 127.232 206.506 127.936C205.93 128.64 205.202 129.192 204.322 129.592C203.442 129.992 202.458 130.192 201.37 130.192C200.058 130.192 198.89 129.912 197.866 129.352C196.842 128.792 196.042 127.992 195.466 126.952C194.89 125.912 194.602 124.696 194.602 123.304C194.602 121.912 194.882 120.696 195.442 119.656C196.018 118.616 196.818 117.816 197.842 117.256C198.866 116.696 200.042 116.416 201.37 116.416C202.666 116.416 203.818 116.688 204.826 117.232C205.834 117.776 206.618 118.552 207.178 119.56C207.754 120.568 208.042 121.744 208.042 123.088ZM203.842 122.008C203.842 121.304 203.602 120.744 203.122 120.328C202.642 119.912 202.042 119.704 201.322 119.704C200.634 119.704 200.05 119.904 199.57 120.304C199.106 120.704 198.818 121.272 198.706 122.008H203.842ZM215.295 116.416C216.239 116.416 217.063 116.608 217.767 116.992C218.487 117.376 219.039 117.88 219.423 118.504V116.608H223.527V129.976C223.527 131.208 223.279 132.32 222.783 133.312C222.303 134.32 221.559 135.12 220.551 135.712C219.559 136.304 218.319 136.6 216.831 136.6C214.847 136.6 213.239 136.128 212.007 135.184C210.775 134.256 210.071 132.992 209.895 131.392H213.951C214.079 131.904 214.383 132.304 214.863 132.592C215.343 132.896 215.935 133.048 216.639 133.048C217.487 133.048 218.159 132.8 218.655 132.304C219.167 131.824 219.423 131.048 219.423 129.976V128.08C219.023 128.704 218.471 129.216 217.767 129.616C217.063 130 216.239 130.192 215.295 130.192C214.191 130.192 213.191 129.912 212.295 129.352C211.399 128.776 210.687 127.968 210.159 126.928C209.647 125.872 209.391 124.656 209.391 123.28C209.391 121.904 209.647 120.696 210.159 119.656C210.687 118.616 211.399 117.816 212.295 117.256C213.191 116.696 214.191 116.416 215.295 116.416ZM219.423 123.304C219.423 122.28 219.135 121.472 218.559 120.88C217.999 120.288 217.311 119.992 216.495 119.992C215.679 119.992 214.983 120.288 214.407 120.88C213.847 121.456 213.567 122.256 213.567 123.28C213.567 124.304 213.847 125.12 214.407 125.728C214.983 126.32 215.679 126.616 216.495 126.616C217.311 126.616 217.999 126.32 218.559 125.728C219.135 125.136 219.423 124.328 219.423 123.304ZM225.68 123.28C225.68 121.904 225.936 120.696 226.448 119.656C226.976 118.616 227.688 117.816 228.584 117.256C229.48 116.696 230.48 116.416 231.584 116.416C232.528 116.416 233.352 116.608 234.056 116.992C234.776 117.376 235.328 117.88 235.712 118.504V116.608H239.816V130H235.712V128.104C235.312 128.728 234.752 129.232 234.032 129.616C233.328 130 232.504 130.192 231.56 130.192C230.472 130.192 229.48 129.912 228.584 129.352C227.688 128.776 226.976 127.968 226.448 126.928C225.936 125.872 225.68 124.656 225.68 123.28ZM235.712 123.304C235.712 122.28 235.424 121.472 234.848 120.88C234.288 120.288 233.6 119.992 232.784 119.992C231.968 119.992 231.272 120.288 230.696 120.88C230.136 121.456 229.856 122.256 229.856 123.28C229.856 124.304 230.136 125.12 230.696 125.728C231.272 126.32 231.968 126.616 232.784 126.616C233.6 126.616 234.288 126.32 234.848 125.728C235.424 125.136 235.712 124.328 235.712 123.304Z" fill="#09868F"/>
<g clip-path="url(#clip0_1009_11104)">
<path d="M142.081 162H162.101V264.447H132V172.118C132 169.434 133.062 166.861 134.953 164.963C136.843 163.066 139.408 162 142.081 162V162Z" fill="black"/>
<path d="M192.202 264.447H162.101V162H182.129C184.802 162 187.367 163.066 189.257 164.963C191.148 166.861 192.21 169.434 192.21 172.118V264.447H192.202Z" fill="#2D2928"/>
<path d="M151.252 180.11H162.101V233.874H147.312C146.907 233.874 146.519 233.712 146.232 233.425C145.946 233.137 145.785 232.748 145.785 232.341V185.597C145.785 184.144 146.36 182.75 147.384 181.723C148.407 180.696 149.796 180.119 151.243 180.119L151.252 180.11Z" fill="#B7B7B7"/>
<path d="M176.898 233.874H162.109V180.093H172.958C174.406 180.093 175.794 180.67 176.818 181.698C177.842 182.725 178.417 184.118 178.417 185.571V232.316C178.42 232.518 178.383 232.72 178.309 232.908C178.234 233.096 178.123 233.268 177.982 233.413C177.84 233.558 177.672 233.673 177.486 233.752C177.3 233.831 177.1 233.872 176.898 233.874Z" fill="#C9C9C9"/>
<path d="M153.243 182.743V233.874H152.163V183.505L153.243 182.743Z" fill="#2D2928"/>
<path d="M171.001 182.743L172.081 183.531V233.874H171.001V182.743Z" fill="black"/>
<path d="M162.101 197.509H145.818V198.381H162.101V197.509Z" fill="#2D2928"/>
<path d="M178.383 197.509H162.101V198.381H178.383V197.509Z" fill="black"/>
<path d="M162.101 216.669H145.818V217.541H162.101V216.669Z" fill="#2D2928"/>
<path d="M178.383 216.669H162.101V217.541H178.383V216.669Z" fill="black"/>
<path d="M187.528 226.601C188.935 226.601 190.076 225.456 190.076 224.044C190.076 222.632 188.935 221.487 187.528 221.487C186.121 221.487 184.98 222.632 184.98 224.044C184.98 225.456 186.121 226.601 187.528 226.601Z" fill="black"/>
<path d="M167.407 259.604L170.031 260.002C170.09 259.646 175.565 224.679 196.749 224.543V221.876C173.304 221.986 167.635 258.063 167.407 259.604Z" fill="#E7BD71"/>
<path d="M197.162 221.876H196.74V224.577H197.12C218.658 224.857 224.96 259.714 225.019 260.061L227.634 259.604C227.381 258.046 220.902 222.19 197.162 221.876Z" fill="#EDC380"/>
<path d="M196.42 245.515C197.08 245.008 197.847 244.657 198.661 244.49C199.476 244.322 200.318 244.341 201.123 244.547C201.929 244.752 202.679 245.138 203.315 245.675C203.951 246.212 204.458 246.887 204.797 247.649C205.419 248.847 205.761 250.172 205.799 251.522C205.837 252.873 205.57 254.215 205.017 255.447C204.357 257.024 203.236 258.365 201.803 259.29C200.906 259.917 200.114 260.683 199.457 261.56C199.323 261.777 199.133 261.954 198.908 262.073C198.682 262.192 198.429 262.248 198.175 262.237C198.04 261.162 197.905 260.078 197.753 259.003C197.559 257.546 197.34 256.09 197.146 254.642C196.952 253.194 196.707 251.518 196.504 249.96C196.327 248.622 196.159 247.285 195.981 245.947L196.42 245.515Z" fill="#E69A5F"/>
<path d="M195.998 245.93C196.175 247.268 196.344 248.606 196.521 249.943C196.724 251.501 196.943 253.068 197.162 254.625C197.382 256.183 197.576 257.529 197.77 258.986C197.922 260.061 198.057 261.145 198.192 262.22C197.938 262.3 197.667 262.313 197.407 262.256C197.146 262.2 196.905 262.076 196.707 261.898C195.739 261.179 194.67 260.608 193.535 260.205C191.37 259.372 189.611 257.731 188.623 255.627C187.636 253.522 187.497 251.115 188.237 248.91C188.698 247.627 189.616 246.561 190.814 245.917C192.011 245.273 193.405 245.097 194.724 245.422L195.07 245.49L195.998 245.93Z" fill="#F18C36"/>
<path d="M195.896 244.296H195.753L195.686 244.22C195.922 243.813 196.15 243.373 196.394 242.984C196.564 242.666 196.835 242.415 197.164 242.271C197.493 242.127 197.861 242.098 198.208 242.188C198.95 242.419 199.748 242.386 200.469 242.095C200.469 242.399 200.182 242.493 200.005 242.603C198.833 243.355 197.54 243.899 196.183 244.211C196.116 244.203 196.006 244.203 195.896 244.296Z" fill="#7DBC22"/>
<path d="M195.72 244.186L195.788 244.262L196.42 245.515L195.998 245.93L195.07 245.507C194.71 245.077 194.308 244.683 193.872 244.33C193.729 244.22 193.721 244.144 193.872 244.025C194.168 243.763 194.471 243.5 194.716 243.178C194.851 243.051 194.919 243.06 195.02 243.178C195.256 243.568 195.492 243.873 195.72 244.186Z" fill="#775439"/>
<path d="M195.896 244.296C195.972 244.203 196.082 244.203 196.183 244.177C197.54 243.866 198.833 243.321 200.005 242.569C200.182 242.459 200.461 242.366 200.469 242.061C200.52 242.061 200.57 241.985 200.612 242.061C200.655 242.137 200.612 242.205 200.612 242.264C200.429 242.646 200.196 243.001 199.921 243.322C199.413 243.854 198.764 244.228 198.051 244.4C197.337 244.573 196.59 244.537 195.896 244.296Z" fill="#9BD048"/>
<path d="M217.131 245.1C218.135 244.888 219.178 244.945 220.154 245.264C221.129 245.584 222.004 246.155 222.691 246.921C223.744 248.071 224.302 249.593 224.243 251.154C224.27 252.604 223.973 254.041 223.372 255.36C222.772 256.678 221.885 257.845 220.776 258.774C219.394 259.985 217.679 260.746 215.857 260.958C214.682 261.135 213.542 261.501 212.483 262.042C212.25 262.187 211.983 262.269 211.709 262.277C211.435 262.286 211.164 262.223 210.922 262.093C211.293 260.975 211.673 259.866 212.044 258.749C212.542 257.242 213.023 255.735 213.512 254.236C214.001 252.737 214.566 251.002 215.106 249.393C215.562 248.013 216.034 246.633 216.498 245.261L217.131 245.1Z" fill="#E69A5F"/>
<path d="M216.533 245.303C216.069 246.675 215.596 248.055 215.141 249.435C214.578 251.044 214.047 252.658 213.546 254.278C213.057 255.777 212.576 257.284 212.078 258.791C211.707 259.909 211.327 261.018 210.956 262.135C210.672 262.087 210.406 261.967 210.181 261.786C209.957 261.605 209.782 261.37 209.674 261.102C209.067 259.955 208.297 258.903 207.388 257.978C205.687 256.139 204.758 253.711 204.796 251.202C204.834 248.693 205.835 246.295 207.59 244.508C208.64 243.476 210.034 242.874 211.502 242.82C212.97 242.765 214.406 243.261 215.529 244.211L215.832 244.448L216.533 245.303Z" fill="#F18C36"/>
<path d="M217.232 243.686L217.114 243.585V243.483C217.536 243.187 217.958 242.891 218.388 242.637C218.703 242.412 219.083 242.298 219.47 242.313C219.856 242.329 220.226 242.472 220.523 242.721C221.131 243.301 221.921 243.651 222.758 243.712C222.606 244.008 222.294 243.957 222.066 243.983C220.578 244.153 219.072 244.067 217.612 243.729C217.555 243.697 217.492 243.676 217.426 243.669C217.361 243.662 217.295 243.668 217.232 243.686Z" fill="#7DBC22"/>
<path d="M217.081 243.483V243.585C217.081 244.084 217.081 244.592 217.081 245.1L216.482 245.304L215.782 244.457C215.634 243.874 215.431 243.307 215.174 242.764C215.098 242.586 215.115 242.51 215.301 242.459C215.714 242.349 216.144 242.23 216.541 242.095C216.726 242.035 216.786 242.095 216.819 242.264C216.929 242.653 216.988 243.068 217.081 243.483Z" fill="#775439"/>
<path d="M217.232 243.686C217.344 243.644 217.467 243.644 217.578 243.686C219.038 244.024 220.544 244.11 222.033 243.94C222.26 243.94 222.573 243.94 222.724 243.669C222.784 243.669 222.859 243.669 222.876 243.669C222.893 243.669 222.826 243.813 222.758 243.864C222.398 244.141 222.004 244.372 221.586 244.55C220.853 244.835 220.055 244.905 219.284 244.752C218.513 244.6 217.802 244.23 217.232 243.686Z" fill="#9BD048"/>
<path d="M208.762 251.408C209.635 250.865 210.635 250.563 211.662 250.531C212.688 250.5 213.705 250.741 214.609 251.23C215.99 251.954 217.03 253.195 217.502 254.685C218.025 256.045 218.235 257.505 218.117 258.958C217.998 260.411 217.555 261.818 216.819 263.075C215.927 264.682 214.571 265.981 212.93 266.8C211.895 267.362 210.958 268.089 210.154 268.951C209.985 269.167 209.761 269.334 209.506 269.435C209.251 269.536 208.974 269.568 208.703 269.527C208.703 268.358 208.703 267.181 208.627 266.005C208.585 264.421 208.526 262.838 208.484 261.255C208.442 259.671 208.391 257.868 208.349 256.175C208.349 254.727 208.298 253.271 208.265 251.814L208.762 251.408Z" fill="#E69A5F"/>
<path d="M208.265 251.797C208.265 253.254 208.315 254.71 208.349 256.158C208.388 257.851 208.433 259.545 208.484 261.238C208.526 262.821 208.585 264.404 208.627 265.988C208.627 267.164 208.678 268.341 208.703 269.51C208.42 269.563 208.128 269.543 207.855 269.451C207.582 269.359 207.337 269.199 207.143 268.985C206.189 268.105 205.108 267.374 203.937 266.817C201.716 265.664 200.024 263.696 199.213 261.322C198.402 258.949 198.535 256.353 199.584 254.075C200.224 252.748 201.334 251.708 202.698 251.158C204.061 250.609 205.58 250.589 206.957 251.103L207.32 251.213L208.265 251.797Z" fill="#F18C36"/>
<path d="M208.383 250.036L208.239 249.986L208.172 249.901C208.467 249.486 208.762 249.054 209.075 248.656C209.295 248.336 209.615 248.098 209.985 247.982C210.355 247.865 210.753 247.876 211.116 248.013C211.885 248.35 212.746 248.41 213.554 248.182C213.554 248.504 213.2 248.572 212.989 248.673C211.646 249.339 210.199 249.768 208.712 249.943C208.595 249.939 208.48 249.971 208.383 250.036Z" fill="#7DBC22"/>
<path d="M208.172 249.901L208.239 249.986C208.408 250.46 208.585 250.934 208.762 251.408L208.265 251.798L207.32 251.23C206.98 250.728 206.596 250.258 206.173 249.825C206.038 249.689 206.038 249.613 206.173 249.503C206.527 249.26 206.873 249.006 207.21 248.741C207.37 248.614 207.438 248.639 207.531 248.8C207.75 249.173 207.961 249.528 208.172 249.901Z" fill="#775439"/>
<path d="M208.383 250.036C208.48 249.971 208.595 249.939 208.712 249.943C210.199 249.768 211.646 249.339 212.989 248.673C213.2 248.572 213.512 248.504 213.554 248.182C213.605 248.182 213.672 248.106 213.706 248.182C213.74 248.258 213.706 248.335 213.664 248.402C213.424 248.781 213.141 249.131 212.82 249.444C212.216 249.961 211.476 250.291 210.689 250.397C209.902 250.502 209.101 250.377 208.383 250.036Z" fill="#9BD048"/>
<path d="M180.391 244.533C181.229 243.876 182.224 243.452 183.277 243.303C184.33 243.155 185.403 243.287 186.389 243.686C187.894 244.276 189.107 245.439 189.764 246.921C190.453 248.261 190.834 249.741 190.876 251.249C190.918 252.757 190.622 254.255 190.008 255.633C189.265 257.371 188.019 258.846 186.431 259.866C185.427 260.567 184.541 261.425 183.807 262.406C183.658 262.649 183.448 262.847 183.197 262.981C182.947 263.115 182.665 263.179 182.382 263.168C182.221 261.966 182.07 260.755 181.901 259.545C181.681 257.927 181.445 256.302 181.217 254.676C180.99 253.051 180.737 251.188 180.509 249.444C180.306 247.954 180.121 246.455 179.927 244.965L180.391 244.533Z" fill="#E69A5F"/>
<path d="M179.927 244.999C180.121 246.489 180.307 247.987 180.509 249.478C180.737 251.222 180.981 252.966 181.218 254.71C181.454 256.454 181.682 257.961 181.901 259.578C182.07 260.789 182.222 262 182.382 263.202C182.093 263.294 181.786 263.309 181.49 263.245C181.194 263.181 180.92 263.041 180.695 262.838C179.608 262.043 178.412 261.413 177.143 260.967C174.729 260.03 172.768 258.195 171.668 255.843C170.568 253.492 170.414 250.806 171.237 248.343C171.754 246.909 172.781 245.717 174.12 244.996C175.459 244.276 177.017 244.078 178.493 244.44L178.881 244.525L179.927 244.999Z" fill="#F18C36"/>
<path d="M179.867 243.204H179.716L179.64 243.128C179.901 242.662 180.154 242.196 180.424 241.739C180.624 241.394 180.931 241.124 181.298 240.971C181.666 240.818 182.073 240.79 182.457 240.892C183.287 241.152 184.182 241.117 184.988 240.791C184.988 241.129 184.668 241.231 184.465 241.358C183.156 242.199 181.712 242.806 180.196 243.153C180.084 243.135 179.969 243.153 179.867 243.204Z" fill="#7DBC22"/>
<path d="M179.614 243.051L179.69 243.128C179.918 243.602 180.154 244.067 180.39 244.533L179.926 244.999L178.889 244.525C178.484 244.04 178.031 243.598 177.539 243.204C177.387 243.077 177.379 243.001 177.539 242.874C177.868 242.577 178.205 242.272 178.518 241.959C178.661 241.824 178.745 241.832 178.855 241.959C179.091 242.357 179.353 242.696 179.614 243.051Z" fill="#775439"/>
<path d="M179.868 243.204C179.959 243.123 180.075 243.075 180.197 243.068C181.712 242.721 183.157 242.114 184.466 241.273C184.668 241.146 184.981 241.045 184.989 240.706C185.031 240.706 185.099 240.613 185.141 240.706C185.183 240.799 185.141 240.867 185.141 240.943C184.934 241.365 184.673 241.758 184.365 242.112C183.799 242.708 183.074 243.128 182.277 243.322C181.479 243.516 180.643 243.475 179.868 243.204Z" fill="#9BD048"/>
<path d="M165.703 258.943L173.718 283.835C174.202 285.334 175.148 286.64 176.418 287.566C177.688 288.493 179.217 288.992 180.787 288.991H206.231L212.98 258.943H165.703Z" fill="#D3A76E"/>
<path d="M212.997 258.943L206.248 288.991H215.072C216.581 288.982 218.048 288.491 219.261 287.59C220.475 286.689 221.371 285.425 221.822 283.979L229.566 258.943H212.997Z" fill="#D8B07C"/>
<path d="M188.523 288.992L170.208 262.44L170.934 261.941L189.595 288.992H188.523Z" fill="#CC9F6E"/>
<path d="M199.179 288.992L181.353 262.982L171.634 277.375L171.288 276.308L181.344 261.399L200.259 288.992H199.179Z" fill="#CC9F6E"/>
<path d="M210.846 289L192.902 262.982L176.172 287.391L175.506 286.79L192.893 261.416L211.926 289H210.846Z" fill="#CC9F6E"/>
<path d="M186.077 288.992H185.006L203.692 261.399L220.574 286.358L219.958 287.027L203.692 262.982L186.077 288.992Z" fill="#CC9F6E"/>
<path d="M207.632 288.992H206.552L225.213 261.941L225.938 262.44L207.632 288.992Z" fill="#CC9F6E"/>
<path d="M196.631 288.992H195.551L214.575 261.416L224.504 275.377L224.209 276.317L214.583 262.965L196.631 288.992Z" fill="#CC9F6E"/>
<path d="M218.616 288.035L217.924 288.39L217.477 288.568L217.047 288.704L222.961 280.347L222.109 283.09L218.616 288.035Z" fill="#CC9F6E"/>
<path d="M177.008 287.95L173.381 282.785L172.461 279.941L178.594 288.661L177.691 288.314L177.008 287.95Z" fill="#CC9F6E"/>
<path d="M229.456 256.251H213.866L212.179 263.354H229.431C229.91 263.378 230.389 263.303 230.839 263.136C231.289 262.968 231.7 262.71 232.047 262.378C232.395 262.046 232.672 261.646 232.861 261.204C233.05 260.761 233.147 260.284 233.147 259.803C233.147 259.321 233.05 258.845 232.861 258.402C232.672 257.959 232.395 257.56 232.047 257.228C231.7 256.896 231.289 256.638 230.839 256.47C230.389 256.302 229.91 256.227 229.431 256.251H229.456Z" fill="#EDC380"/>
<path d="M165.838 256.251C165.359 256.227 164.88 256.302 164.43 256.47C163.98 256.638 163.569 256.896 163.222 257.228C162.874 257.56 162.598 257.959 162.409 258.402C162.22 258.845 162.122 259.321 162.122 259.803C162.122 260.284 162.22 260.761 162.409 261.204C162.598 261.646 162.874 262.046 163.222 262.378C163.569 262.71 163.98 262.968 164.43 263.136C164.88 263.303 165.359 263.378 165.838 263.354H212.238L213.925 256.251H165.838Z" fill="#E7BD71"/>
<path d="M203.692 234.534C202.293 234.574 200.902 234.332 199.598 233.822C198.295 233.313 197.106 232.546 196.103 231.568C195.1 230.589 194.303 229.419 193.759 228.126C193.214 226.833 192.934 225.443 192.934 224.04C192.934 222.636 193.214 221.246 193.759 219.953C194.303 218.66 195.1 217.49 196.103 216.511C197.106 215.533 198.295 214.766 199.598 214.257C200.902 213.747 202.293 213.505 203.692 213.545" fill="#5F9130"/>
<path d="M203.692 213.57C205.091 213.531 206.483 213.773 207.786 214.282C209.089 214.792 210.278 215.558 211.281 216.537C212.284 217.515 213.081 218.685 213.626 219.978C214.17 221.272 214.451 222.661 214.451 224.065C214.451 225.469 214.17 226.858 213.626 228.151C213.081 229.444 212.284 230.615 211.281 231.593C210.278 232.572 209.089 233.338 207.786 233.848C206.483 234.357 205.091 234.599 203.692 234.559" fill="#63B223"/>
<path d="M202.022 225.949L199.314 223.349C199.176 223.202 199.009 223.085 198.824 223.004C198.64 222.924 198.44 222.882 198.239 222.881C198.037 222.88 197.838 222.92 197.652 222.999C197.467 223.078 197.299 223.195 197.16 223.341C197.021 223.487 196.912 223.66 196.842 223.849C196.771 224.039 196.74 224.241 196.75 224.443C196.76 224.645 196.81 224.843 196.898 225.024C196.987 225.206 197.111 225.368 197.264 225.5L201.094 229.183C201.37 229.45 201.74 229.599 202.123 229.598H202.199C202.4 229.59 202.596 229.539 202.777 229.45C202.957 229.361 203.116 229.236 203.245 229.081L203.692 228.565V223.993L202.022 225.949Z" fill="#F9F9F9"/>
<path d="M210.062 218.837C209.763 218.58 209.375 218.453 208.983 218.483C208.59 218.513 208.226 218.698 207.97 218.998L203.692 223.993V228.565L210.222 220.945C210.35 220.796 210.448 220.624 210.509 220.437C210.57 220.25 210.594 220.053 210.579 219.857C210.564 219.661 210.511 219.47 210.422 219.295C210.333 219.12 210.211 218.964 210.062 218.837Z" fill="white"/>
</g>
<circle cx="182" cy="30" r="30" fill="#09868F"/>
<path d="M190.124 23.084H178.892V28.052C179.372 27.524 180.044 27.092 180.908 26.756C181.772 26.42 182.708 26.252 183.716 26.252C185.516 26.252 187.004 26.66 188.18 27.476C189.38 28.292 190.256 29.348 190.808 30.644C191.36 31.94 191.636 33.344 191.636 34.856C191.636 37.664 190.844 39.896 189.26 41.552C187.676 43.184 185.444 44 182.564 44C180.644 44 178.976 43.676 177.56 43.028C176.144 42.356 175.052 41.432 174.284 40.256C173.516 39.08 173.096 37.724 173.024 36.188H179.036C179.18 36.932 179.528 37.556 180.08 38.06C180.632 38.54 181.388 38.78 182.348 38.78C183.476 38.78 184.316 38.42 184.868 37.7C185.42 36.98 185.696 36.02 185.696 34.82C185.696 33.644 185.408 32.744 184.832 32.12C184.256 31.496 183.416 31.184 182.312 31.184C181.496 31.184 180.824 31.388 180.296 31.796C179.768 32.18 179.42 32.696 179.252 33.344H173.312V17.684H190.124V23.084Z" fill="#F9F9F9"/>
<defs>
<clipPath id="clip0_1009_11104">
<rect width="101" height="127" fill="white" transform="translate(132 162)"/>
</clipPath>
</defs>
</svg>
