<svg width="364" height="292" viewBox="0 0 364 292" fill="none" xmlns="http://www.w3.org/2000/svg">
<circle cx="180" cy="30" r="30" fill="#09868F"/>
<path d="M174.704 22.444V16.72H184.676V43H178.268V22.444H174.704Z" fill="#F9F9F9"/>
<path d="M91.9561 85.552C91.9561 83.888 92.3161 82.408 93.0361 81.112C93.7561 79.8 94.7561 78.784 96.0361 78.064C97.3321 77.328 98.7961 76.96 100.428 76.96C102.428 76.96 104.14 77.488 105.564 78.544C106.988 79.6 107.94 81.04 108.42 82.864H103.908C103.572 82.16 103.092 81.624 102.468 81.256C101.86 80.888 101.164 80.704 100.38 80.704C99.1161 80.704 98.0921 81.144 97.3081 82.024C96.5241 82.904 96.1321 84.08 96.1321 85.552C96.1321 87.024 96.5241 88.2 97.3081 89.08C98.0921 89.96 99.1161 90.4 100.38 90.4C101.164 90.4 101.86 90.216 102.468 89.848C103.092 89.48 103.572 88.944 103.908 88.24H108.42C107.94 90.064 106.988 91.504 105.564 92.56C104.14 93.6 102.428 94.12 100.428 94.12C98.7961 94.12 97.3321 93.76 96.0361 93.04C94.7561 92.304 93.7561 91.288 93.0361 89.992C92.3161 88.696 91.9561 87.216 91.9561 85.552ZM115.037 82.84C115.517 82.104 116.117 81.528 116.837 81.112C117.557 80.68 118.357 80.464 119.237 80.464V84.808H118.109C117.085 84.808 116.317 85.032 115.805 85.48C115.293 85.912 115.037 86.68 115.037 87.784V94H110.933V80.608H115.037V82.84ZM133.823 87.088C133.823 87.472 133.799 87.872 133.751 88.288H124.463C124.527 89.12 124.791 89.76 125.255 90.208C125.735 90.64 126.319 90.856 127.007 90.856C128.031 90.856 128.743 90.424 129.143 89.56H133.511C133.287 90.44 132.879 91.232 132.287 91.936C131.711 92.64 130.983 93.192 130.103 93.592C129.223 93.992 128.239 94.192 127.151 94.192C125.839 94.192 124.671 93.912 123.647 93.352C122.623 92.792 121.823 91.992 121.247 90.952C120.671 89.912 120.383 88.696 120.383 87.304C120.383 85.912 120.663 84.696 121.223 83.656C121.799 82.616 122.599 81.816 123.623 81.256C124.647 80.696 125.823 80.416 127.151 80.416C128.447 80.416 129.599 80.688 130.607 81.232C131.615 81.776 132.399 82.552 132.959 83.56C133.535 84.568 133.823 85.744 133.823 87.088ZM129.623 86.008C129.623 85.304 129.383 84.744 128.903 84.328C128.423 83.912 127.823 83.704 127.103 83.704C126.415 83.704 125.831 83.904 125.351 84.304C124.887 84.704 124.599 85.272 124.487 86.008H129.623ZM135.172 87.28C135.172 85.904 135.428 84.696 135.94 83.656C136.468 82.616 137.18 81.816 138.076 81.256C138.972 80.696 139.972 80.416 141.076 80.416C142.02 80.416 142.844 80.608 143.548 80.992C144.268 81.376 144.82 81.88 145.204 82.504V80.608H149.308V94H145.204V92.104C144.804 92.728 144.244 93.232 143.524 93.616C142.82 94 141.996 94.192 141.052 94.192C139.964 94.192 138.972 93.912 138.076 93.352C137.18 92.776 136.468 91.968 135.94 90.928C135.428 89.872 135.172 88.656 135.172 87.28ZM145.204 87.304C145.204 86.28 144.916 85.472 144.34 84.88C143.78 84.288 143.092 83.992 142.276 83.992C141.46 83.992 140.764 84.288 140.188 84.88C139.628 85.456 139.348 86.256 139.348 87.28C139.348 88.304 139.628 89.12 140.188 89.728C140.764 90.32 141.46 90.616 142.276 90.616C143.092 90.616 143.78 90.32 144.34 89.728C144.916 89.136 145.204 88.328 145.204 87.304ZM157.725 94.192C156.557 94.192 155.517 93.992 154.605 93.592C153.693 93.192 152.973 92.648 152.445 91.96C151.917 91.256 151.621 90.472 151.557 89.608H155.613C155.661 90.072 155.877 90.448 156.261 90.736C156.645 91.024 157.117 91.168 157.677 91.168C158.189 91.168 158.581 91.072 158.853 90.88C159.141 90.672 159.285 90.408 159.285 90.088C159.285 89.704 159.085 89.424 158.685 89.248C158.285 89.056 157.637 88.848 156.741 88.624C155.781 88.4 154.981 88.168 154.341 87.928C153.701 87.672 153.149 87.28 152.685 86.752C152.221 86.208 151.989 85.48 151.989 84.568C151.989 83.8 152.197 83.104 152.613 82.48C153.045 81.84 153.669 81.336 154.485 80.968C155.317 80.6 156.301 80.416 157.437 80.416C159.117 80.416 160.437 80.832 161.397 81.664C162.373 82.496 162.933 83.6 163.077 84.976H159.285C159.221 84.512 159.013 84.144 158.661 83.872C158.325 83.6 157.877 83.464 157.317 83.464C156.837 83.464 156.469 83.56 156.213 83.752C155.957 83.928 155.829 84.176 155.829 84.496C155.829 84.88 156.029 85.168 156.429 85.36C156.845 85.552 157.485 85.744 158.349 85.936C159.341 86.192 160.149 86.448 160.773 86.704C161.397 86.944 161.941 87.344 162.405 87.904C162.885 88.448 163.133 89.184 163.149 90.112C163.149 90.896 162.925 91.6 162.477 92.224C162.045 92.832 161.413 93.312 160.581 93.664C159.765 94.016 158.813 94.192 157.725 94.192ZM183.97 80.608V94H179.866V92.176C179.45 92.768 178.882 93.248 178.162 93.616C177.458 93.968 176.674 94.144 175.81 94.144C174.786 94.144 173.882 93.92 173.098 93.472C172.314 93.008 171.706 92.344 171.274 91.48C170.842 90.616 170.626 89.6 170.626 88.432V80.608H174.706V87.88C174.706 88.776 174.938 89.472 175.402 89.968C175.866 90.464 176.49 90.712 177.274 90.712C178.074 90.712 178.706 90.464 179.17 89.968C179.634 89.472 179.866 88.776 179.866 87.88V80.608H183.97ZM195.078 80.464C196.646 80.464 197.894 80.976 198.822 82C199.766 83.008 200.238 84.4 200.238 86.176V94H196.158V86.728C196.158 85.832 195.926 85.136 195.462 84.64C194.998 84.144 194.374 83.896 193.59 83.896C192.806 83.896 192.182 84.144 191.718 84.64C191.254 85.136 191.022 85.832 191.022 86.728V94H186.918V80.608H191.022V82.384C191.438 81.792 191.998 81.328 192.702 80.992C193.406 80.64 194.198 80.464 195.078 80.464ZM212.28 82.504C212.68 81.88 213.232 81.376 213.936 80.992C214.64 80.608 215.464 80.416 216.408 80.416C217.512 80.416 218.512 80.696 219.408 81.256C220.304 81.816 221.008 82.616 221.52 83.656C222.048 84.696 222.312 85.904 222.312 87.28C222.312 88.656 222.048 89.872 221.52 90.928C221.008 91.968 220.304 92.776 219.408 93.352C218.512 93.912 217.512 94.192 216.408 94.192C215.48 94.192 214.656 94 213.936 93.616C213.232 93.232 212.68 92.736 212.28 92.128V100.384H208.176V80.608H212.28V82.504ZM218.136 87.28C218.136 86.256 217.848 85.456 217.272 84.88C216.712 84.288 216.016 83.992 215.184 83.992C214.368 83.992 213.672 84.288 213.096 84.88C212.536 85.472 212.256 86.28 212.256 87.304C212.256 88.328 212.536 89.136 213.096 89.728C213.672 90.32 214.368 90.616 215.184 90.616C216 90.616 216.696 90.32 217.272 89.728C217.848 89.12 218.136 88.304 218.136 87.28ZM237.089 87.088C237.089 87.472 237.065 87.872 237.017 88.288H227.729C227.793 89.12 228.057 89.76 228.521 90.208C229.001 90.64 229.585 90.856 230.273 90.856C231.297 90.856 232.009 90.424 232.409 89.56H236.777C236.553 90.44 236.145 91.232 235.553 91.936C234.977 92.64 234.249 93.192 233.369 93.592C232.489 93.992 231.505 94.192 230.417 94.192C229.105 94.192 227.937 93.912 226.913 93.352C225.889 92.792 225.089 91.992 224.513 90.952C223.937 89.912 223.649 88.696 223.649 87.304C223.649 85.912 223.929 84.696 224.489 83.656C225.065 82.616 225.865 81.816 226.889 81.256C227.913 80.696 229.089 80.416 230.417 80.416C231.713 80.416 232.865 80.688 233.873 81.232C234.881 81.776 235.665 82.552 236.225 83.56C236.801 84.568 237.089 85.744 237.089 87.088ZM232.889 86.008C232.889 85.304 232.649 84.744 232.169 84.328C231.689 83.912 231.089 83.704 230.369 83.704C229.681 83.704 229.097 83.904 228.617 84.304C228.153 84.704 227.865 85.272 227.753 86.008H232.889ZM243.358 82.84C243.838 82.104 244.438 81.528 245.158 81.112C245.878 80.68 246.678 80.464 247.558 80.464V84.808H246.43C245.406 84.808 244.638 85.032 244.126 85.48C243.614 85.912 243.358 86.68 243.358 87.784V94H239.254V80.608H243.358V82.84ZM256.239 84.016H254.031V94H249.927V84.016H248.439V80.608H249.927V80.224C249.927 78.576 250.399 77.328 251.343 76.48C252.287 75.616 253.671 75.184 255.495 75.184C255.799 75.184 256.023 75.192 256.167 75.208V78.688C255.383 78.64 254.831 78.752 254.511 79.024C254.191 79.296 254.031 79.784 254.031 80.488V80.608H256.239V84.016ZM260.232 79.216C259.512 79.216 258.92 79.008 258.456 78.592C258.008 78.16 257.784 77.632 257.784 77.008C257.784 76.368 258.008 75.84 258.456 75.424C258.92 74.992 259.512 74.776 260.232 74.776C260.936 74.776 261.512 74.992 261.96 75.424C262.424 75.84 262.656 76.368 262.656 77.008C262.656 77.632 262.424 78.16 261.96 78.592C261.512 79.008 260.936 79.216 260.232 79.216ZM262.272 80.608V94H258.168V80.608H262.272ZM269.35 76.24V94H265.246V76.24H269.35Z" fill="#09868F"/>
<g clip-path="url(#clip0_1081_7470)">
<g clip-path="url(#clip1_1081_7470)">
<path d="M179.591 167.361H200.857C203.214 167.361 205.475 168.302 207.142 169.979C208.808 171.655 209.745 173.928 209.745 176.298V281.702C209.745 284.072 208.808 286.345 207.142 288.021C205.475 289.698 203.214 290.639 200.857 290.639H179.591" fill="#C9C9C9"/>
<path d="M179.641 290.639H158.366C156.01 290.637 153.75 289.695 152.084 288.019C150.418 286.343 149.481 284.071 149.479 281.702V176.298C149.481 173.929 150.418 171.657 152.084 169.981C153.75 168.305 156.01 167.363 158.366 167.361H179.641" fill="#B7B7B7"/>
<path d="M179.708 178.331H153.973V282.852H179.708V178.331Z" fill="#F9F9F9"/>
<path d="M205.317 178.331H179.582V282.852H205.317V178.331Z" fill="white"/>
<path d="M179.641 292H158.516C155.729 291.998 153.057 290.884 151.086 288.903C149.114 286.922 148.004 284.235 148 281.433V176.576C148.004 173.772 149.114 171.085 151.085 169.102C153.056 167.12 155.729 166.004 158.516 166H179.641V168.722H158.516C156.447 168.726 154.464 169.555 153.002 171.027C151.539 172.5 150.717 174.495 150.715 176.576V281.433C150.717 283.513 151.54 285.507 153.002 286.978C154.465 288.449 156.448 289.276 158.516 289.278H179.641V292Z" fill="black"/>
<path d="M200.515 292H179.633V289.278H200.515C202.584 289.276 204.567 288.449 206.029 286.978C207.492 285.507 208.315 283.513 208.317 281.433V176.576C208.315 174.495 207.492 172.5 206.03 171.027C204.567 169.555 202.584 168.726 200.515 168.722H179.633V166H200.515C203.303 166.004 205.975 167.12 207.946 169.102C209.918 171.085 211.027 173.772 211.031 176.576V281.433C211.027 284.235 209.917 286.922 207.946 288.903C205.974 290.884 203.302 291.998 200.515 292Z" fill="#2D2928"/>
<path d="M210.806 211.755C210.498 211.755 210.202 211.632 209.985 211.413C209.767 211.194 209.645 210.897 209.645 210.587V196.215C209.645 195.905 209.767 195.608 209.985 195.389C210.202 195.17 210.498 195.047 210.806 195.047C211.114 195.047 211.409 195.17 211.627 195.389C211.844 195.608 211.967 195.905 211.967 196.215V210.587C211.967 210.897 211.844 211.194 211.627 211.413C211.409 211.632 211.114 211.755 210.806 211.755Z" fill="#2D2928"/>
<path d="M167.153 166.218C166.482 166.256 165.851 166.551 165.389 167.043C164.927 167.534 164.67 168.184 164.67 168.86C164.67 169.536 164.927 170.187 165.389 170.678C165.851 171.169 166.482 171.464 167.153 171.502H179.615V166.218H167.153Z" fill="black"/>
<path d="M192.079 166.218H179.616V171.502H192.079C192.436 171.522 192.794 171.469 193.13 171.345C193.466 171.222 193.774 171.031 194.034 170.783C194.294 170.536 194.502 170.238 194.643 169.907C194.785 169.576 194.858 169.22 194.858 168.86C194.858 168.5 194.785 168.144 194.643 167.813C194.502 167.483 194.294 167.184 194.034 166.937C193.774 166.69 193.466 166.499 193.13 166.375C192.794 166.251 192.436 166.198 192.079 166.218Z" fill="#2D2928"/>
<path d="M186.315 210.881C185.876 209.866 185.22 208.959 184.394 208.227C183.296 207.265 181.938 206.654 180.493 206.471C180.193 206.438 179.892 206.421 179.591 206.421V213.804C180.151 213.799 180.709 213.748 181.261 213.653C183.15 213.314 184.895 212.416 186.273 211.074C186.29 211.066 186.305 211.054 186.317 211.039C186.328 211.024 186.337 211.007 186.341 210.988C186.345 210.969 186.344 210.95 186.34 210.932C186.335 210.913 186.327 210.896 186.315 210.881Z" fill="#F9F9F9"/>
<path d="M178.589 206.488C178.123 206.554 177.664 206.664 177.219 206.816C176.385 207.103 175.61 207.538 174.93 208.101C174.032 208.854 173.322 209.81 172.858 210.89C172.841 210.909 172.832 210.935 172.832 210.961C172.832 210.987 172.841 211.013 172.858 211.032C173.213 211.383 173.595 211.704 174.003 211.99C175.103 212.774 176.355 213.315 177.678 213.578C178.278 213.698 178.887 213.762 179.499 213.771H179.557V206.421C179.233 206.424 178.91 206.446 178.589 206.488Z" fill="white"/>
<path d="M175.724 201.389C175.723 201.897 175.821 202.401 176.014 202.87C176.206 203.34 176.489 203.767 176.846 204.127C177.203 204.487 177.627 204.772 178.094 204.967C178.56 205.161 179.061 205.262 179.566 205.262V197.525C179.061 197.524 178.561 197.623 178.094 197.817C177.628 198.011 177.204 198.295 176.847 198.654C176.49 199.014 176.207 199.44 176.014 199.909C175.821 200.379 175.723 200.881 175.724 201.389Z" fill="white"/>
<path d="M183.433 201.398C183.434 200.889 183.336 200.386 183.143 199.916C182.95 199.447 182.668 199.02 182.311 198.66C181.954 198.3 181.53 198.015 181.063 197.82C180.596 197.625 180.096 197.525 179.591 197.525V205.262C180.609 205.259 181.585 204.852 182.305 204.127C183.025 203.403 183.431 202.422 183.433 201.398Z" fill="#F9F9F9"/>
<path d="M179.591 213.804H179.532C178.921 213.796 178.311 213.731 177.711 213.611C176.389 213.349 175.136 212.808 174.036 212.024C173.629 211.737 173.246 211.417 172.892 211.066C172.875 211.046 172.865 211.021 172.865 210.995C172.865 210.968 172.875 210.943 172.892 210.923C173.355 209.843 174.065 208.888 174.963 208.134C175.644 207.572 176.419 207.136 177.252 206.849C177.698 206.698 178.156 206.588 178.622 206.522C178.954 206.478 179.289 206.456 179.624 206.454V205.295C178.635 205.249 177.702 204.821 177.018 204.101C176.334 203.38 175.953 202.423 175.953 201.427C175.953 200.431 176.334 199.474 177.018 198.753C177.702 198.033 178.635 197.605 179.624 197.559V194.484C178.256 194.445 176.895 194.682 175.62 195.181C174.345 195.68 173.182 196.432 172.201 197.391C171.219 198.35 170.439 199.497 169.907 200.765C169.374 202.032 169.1 203.394 169.1 204.77C169.1 206.146 169.374 207.508 169.907 208.776C170.439 210.043 171.219 211.191 172.201 212.15C173.182 213.109 174.345 213.86 175.62 214.359C176.895 214.858 178.256 215.095 179.624 215.056V213.804H179.591Z" fill="#E57607"/>
<path d="M189.815 204.741C189.808 202.018 188.728 199.41 186.811 197.487C184.895 195.564 182.298 194.484 179.591 194.484V197.55C180.58 197.597 181.513 198.025 182.197 198.745C182.881 199.465 183.262 200.423 183.262 201.419C183.262 202.414 182.881 203.372 182.197 204.092C181.513 204.813 180.58 205.24 179.591 205.287V206.446C179.892 206.446 180.193 206.463 180.493 206.496C181.938 206.679 183.296 207.29 184.394 208.252C185.22 208.985 185.876 209.891 186.315 210.906C186.333 210.929 186.343 210.957 186.343 210.986C186.343 211.015 186.333 211.043 186.315 211.066C184.937 212.408 183.192 213.306 181.303 213.645C180.751 213.74 180.193 213.79 179.633 213.796V215.056C182.342 215.043 184.936 213.949 186.844 212.015C188.753 210.082 189.821 207.466 189.815 204.741Z" fill="#FD8B0A"/>
<path d="M179.591 219.273C175.759 219.273 172.083 217.742 169.373 215.016C166.663 212.291 165.141 208.595 165.141 204.741C165.141 200.887 166.663 197.19 169.373 194.465C172.083 191.74 175.759 190.209 179.591 190.209V188.344C177.376 188.22 175.159 188.552 173.076 189.32C170.993 190.087 169.088 191.274 167.476 192.807C165.865 194.34 164.581 196.188 163.704 198.237C162.826 200.286 162.374 202.493 162.374 204.724C162.374 206.955 162.826 209.162 163.704 211.211C164.581 213.26 165.865 215.108 167.476 216.641C169.088 218.174 170.993 219.361 173.076 220.128C175.159 220.896 177.376 221.228 179.591 221.104V219.231V219.273Z" fill="#C9C9C9"/>
<path d="M195.896 204.741C195.889 200.394 194.169 196.227 191.113 193.154C188.056 190.08 183.913 188.351 179.591 188.344V190.209C183.423 190.209 187.099 191.74 189.809 194.465C192.519 197.19 194.041 200.887 194.041 204.741C194.041 208.595 192.519 212.291 189.809 215.017C187.099 217.742 183.423 219.273 179.591 219.273V221.146C183.915 221.139 188.059 219.408 191.116 216.333C194.172 213.258 195.891 209.089 195.896 204.741Z" fill="#B7B7B7"/>
<path d="M187.417 215.031V221.289C187.839 221.311 188.261 221.246 188.658 221.099C189.054 220.951 189.417 220.725 189.724 220.432C190.03 220.139 190.274 219.787 190.441 219.396C190.608 219.006 190.694 218.585 190.694 218.16C190.694 217.735 190.608 217.314 190.441 216.923C190.274 216.533 190.03 216.18 189.724 215.888C189.417 215.595 189.054 215.368 188.658 215.221C188.261 215.073 187.839 215.009 187.417 215.031Z" fill="#63B223"/>
<path d="M184.335 218.156C184.335 218.987 184.663 219.784 185.247 220.371C185.832 220.959 186.624 221.289 187.451 221.289V215.031C187.042 215.03 186.637 215.11 186.259 215.266C185.881 215.423 185.537 215.653 185.248 215.943C184.959 216.233 184.729 216.578 184.572 216.958C184.416 217.338 184.335 217.745 184.335 218.156Z" fill="#5F9130"/>
<path d="M187.134 216.702V219.609C187.134 219.651 187.142 219.692 187.158 219.731C187.174 219.77 187.197 219.805 187.227 219.835C187.256 219.864 187.291 219.888 187.33 219.904C187.368 219.92 187.41 219.928 187.451 219.928V216.392C187.368 216.392 187.289 216.424 187.23 216.482C187.17 216.54 187.136 216.619 187.134 216.702Z" fill="#F9F9F9"/>
<path d="M187.417 216.392V219.928C187.501 219.928 187.582 219.894 187.641 219.835C187.701 219.775 187.734 219.693 187.734 219.609V216.702C187.732 216.619 187.698 216.54 187.639 216.482C187.579 216.424 187.5 216.392 187.417 216.392Z" fill="white"/>
<path d="M188.895 217.836H187.417V218.475H188.862C188.946 218.475 189.027 218.441 189.087 218.381C189.146 218.321 189.179 218.24 189.179 218.156C189.179 218.071 189.146 217.99 189.087 217.93C189.027 217.87 188.946 217.836 188.862 217.836H188.895Z" fill="white"/>
<path d="M186.006 217.836C185.922 217.836 185.841 217.87 185.781 217.93C185.722 217.99 185.688 218.071 185.688 218.156C185.688 218.24 185.722 218.321 185.781 218.381C185.841 218.441 185.922 218.475 186.006 218.475H187.418V217.836H186.006Z" fill="#F9F9F9"/>
<path d="M179.64 234.737H167.846C167.329 234.843 166.864 235.125 166.53 235.536C166.196 235.947 166.014 236.462 166.014 236.993C166.014 237.523 166.196 238.038 166.53 238.449C166.864 238.86 167.329 239.142 167.846 239.248H179.64" fill="white"/>
<path d="M179.641 239.584H167.847C167.247 239.469 166.705 239.148 166.316 238.675C165.926 238.202 165.713 237.607 165.713 236.993C165.713 236.378 165.926 235.783 166.316 235.31C166.705 234.837 167.247 234.516 167.847 234.401H179.641V235.073H167.847C167.403 235.157 167.002 235.395 166.714 235.744C166.425 236.094 166.267 236.534 166.267 236.988C166.267 237.443 166.425 237.883 166.714 238.232C167.002 238.582 167.403 238.82 167.847 238.904H179.641V239.584Z" fill="#C9C9C9"/>
<path d="M179.523 239.248H196.513C196.838 239.301 197.171 239.282 197.487 239.193C197.804 239.104 198.098 238.947 198.349 238.733C198.6 238.518 198.801 238.251 198.939 237.951C199.077 237.651 199.149 237.324 199.149 236.993C199.149 236.662 199.077 236.335 198.939 236.034C198.801 235.734 198.6 235.467 198.349 235.253C198.098 235.038 197.804 234.881 197.487 234.792C197.171 234.703 196.838 234.684 196.513 234.737H179.523" fill="#F9F9F9"/>
<path d="M196.513 239.584H179.523V238.904H196.513C196.789 238.949 197.072 238.933 197.341 238.858C197.61 238.782 197.86 238.649 198.073 238.467C198.286 238.284 198.457 238.058 198.575 237.803C198.692 237.547 198.753 237.27 198.753 236.988C198.753 236.707 198.692 236.429 198.575 236.174C198.457 235.919 198.286 235.692 198.073 235.51C197.86 235.328 197.61 235.195 197.341 235.119C197.072 235.044 196.789 235.028 196.513 235.073H179.523V234.401H196.513C196.889 234.336 197.273 234.355 197.641 234.455C198.008 234.556 198.349 234.736 198.64 234.982C198.931 235.229 199.165 235.537 199.326 235.884C199.486 236.231 199.569 236.61 199.569 236.993C199.569 237.375 199.486 237.754 199.326 238.101C199.165 238.448 198.931 238.756 198.64 239.003C198.349 239.249 198.008 239.429 197.641 239.53C197.273 239.63 196.889 239.649 196.513 239.584Z" fill="#B7B7B7"/>
<path d="M179.64 244.977H167.846C167.329 245.083 166.864 245.365 166.53 245.776C166.196 246.187 166.014 246.701 166.014 247.232C166.014 247.763 166.196 248.277 166.53 248.688C166.864 249.099 167.329 249.382 167.846 249.488H179.64" fill="white"/>
<path d="M179.641 249.824H167.847C167.247 249.709 166.705 249.388 166.316 248.915C165.926 248.441 165.713 247.847 165.713 247.232C165.713 246.618 165.926 246.023 166.316 245.55C166.705 245.077 167.247 244.755 167.847 244.641H179.641V245.313H167.847C167.406 245.401 167.008 245.641 166.723 245.991C166.437 246.341 166.281 246.78 166.281 247.232C166.281 247.685 166.437 248.124 166.723 248.473C167.008 248.823 167.406 249.063 167.847 249.152H179.641V249.824Z" fill="#C9C9C9"/>
<path d="M179.523 249.488H196.513C196.838 249.54 197.171 249.522 197.487 249.433C197.804 249.344 198.098 249.187 198.349 248.972C198.6 248.758 198.801 248.491 198.939 248.191C199.077 247.89 199.149 247.563 199.149 247.232C199.149 246.901 199.077 246.574 198.939 246.274C198.801 245.973 198.6 245.707 198.349 245.492C198.098 245.278 197.804 245.121 197.487 245.032C197.171 244.943 196.838 244.924 196.513 244.977H179.523" fill="#F9F9F9"/>
<path d="M196.513 249.824H179.523V249.152H196.513C196.792 249.201 197.078 249.188 197.351 249.114C197.624 249.041 197.878 248.908 198.095 248.725C198.311 248.542 198.486 248.313 198.605 248.055C198.725 247.798 198.786 247.517 198.786 247.232C198.786 246.948 198.725 246.667 198.605 246.409C198.486 246.151 198.311 245.923 198.095 245.74C197.878 245.557 197.624 245.424 197.351 245.35C197.078 245.276 196.792 245.264 196.513 245.313H179.523V244.641H196.513C196.889 244.576 197.273 244.595 197.641 244.695C198.008 244.795 198.349 244.975 198.64 245.222C198.931 245.469 199.165 245.777 199.326 246.124C199.486 246.471 199.569 246.849 199.569 247.232C199.569 247.615 199.486 247.993 199.326 248.34C199.165 248.688 198.931 248.995 198.64 249.242C198.349 249.489 198.008 249.669 197.641 249.769C197.273 249.87 196.889 249.888 196.513 249.824Z" fill="#B7B7B7"/>
<path d="M164.088 238.164C163.971 237.904 163.8 237.672 163.586 237.484C163.302 237.235 162.95 237.077 162.576 237.03H162.342V238.929C162.486 238.942 162.632 238.942 162.776 238.929C162.927 238.903 163.075 238.863 163.219 238.811C163.532 238.685 163.816 238.496 164.054 238.257C164.064 238.255 164.072 238.25 164.08 238.243C164.087 238.237 164.092 238.229 164.096 238.22C164.099 238.211 164.1 238.201 164.099 238.191C164.097 238.181 164.093 238.172 164.088 238.164Z" fill="#2D2928"/>
<path d="M162.083 237.056C161.963 237.072 161.846 237.1 161.732 237.14C161.481 237.227 161.251 237.366 161.056 237.548C160.862 237.731 160.708 237.952 160.604 238.198C160.694 238.291 160.792 238.375 160.897 238.45C161.185 238.648 161.508 238.788 161.849 238.862C162.003 238.891 162.16 238.906 162.317 238.904V237.005L162.083 237.056Z" fill="black"/>
<path d="M161.348 235.737C161.348 235.868 161.373 235.998 161.423 236.119C161.473 236.241 161.547 236.351 161.639 236.444C161.731 236.536 161.841 236.61 161.961 236.66C162.082 236.711 162.211 236.736 162.342 236.736V234.737C162.211 234.737 162.082 234.763 161.961 234.813C161.841 234.864 161.731 234.937 161.639 235.03C161.547 235.123 161.473 235.233 161.423 235.354C161.373 235.476 161.348 235.606 161.348 235.737Z" fill="black"/>
<path d="M163.336 235.737C163.336 235.606 163.31 235.476 163.26 235.354C163.21 235.233 163.137 235.123 163.045 235.03C162.952 234.937 162.843 234.864 162.722 234.813C162.602 234.763 162.472 234.737 162.342 234.737V236.736C162.472 236.736 162.602 236.711 162.722 236.66C162.843 236.61 162.952 236.536 163.045 236.444C163.137 236.351 163.21 236.241 163.26 236.119C163.31 235.998 163.336 235.868 163.336 235.737Z" fill="#2D2928"/>
<path d="M163.845 246.69C163.831 246.629 163.805 246.571 163.767 246.52C163.73 246.47 163.683 246.428 163.628 246.396C163.557 246.355 163.476 246.335 163.394 246.338H162.358V247.026C162.426 247.027 162.492 247.05 162.545 247.093C162.598 247.135 162.636 247.195 162.651 247.262C162.668 247.322 162.665 247.387 162.642 247.446C162.619 247.505 162.579 247.555 162.525 247.589V247.925C162.526 247.962 162.512 247.997 162.487 248.023C162.462 248.05 162.428 248.066 162.392 248.068V248.673H163.519H163.595C163.664 248.651 163.728 248.611 163.779 248.559C163.83 248.506 163.867 248.441 163.887 248.37C163.895 248.332 163.895 248.292 163.887 248.253V246.774C163.877 246.745 163.863 246.717 163.845 246.69Z" fill="#2D2928"/>
<path d="M162.2 247.976V247.816V247.623C162.152 247.594 162.113 247.552 162.087 247.501C162.062 247.45 162.052 247.394 162.058 247.337C162.061 247.285 162.079 247.235 162.108 247.192C162.137 247.149 162.178 247.115 162.225 247.094C162.27 247.086 162.315 247.086 162.359 247.094V246.405H161.281C161.172 246.409 161.068 246.454 160.989 246.531C160.92 246.592 160.873 246.675 160.855 246.766C160.852 246.785 160.852 246.805 160.855 246.825V248.354C160.852 248.379 160.852 248.404 160.855 248.429C160.874 248.506 160.912 248.577 160.967 248.634C161.021 248.692 161.089 248.734 161.165 248.757H162.359V248.152C162.336 248.156 162.312 248.153 162.29 248.145C162.268 248.137 162.248 248.124 162.233 248.107C162.217 248.089 162.206 248.068 162.2 248.045C162.194 248.022 162.195 247.998 162.2 247.976Z" fill="black"/>
<path d="M162.275 244.994C162.183 244.994 162.093 245.011 162.008 245.044C161.818 245.104 161.652 245.221 161.531 245.38C161.425 245.533 161.353 245.708 161.323 245.892C161.314 245.99 161.314 246.089 161.323 246.186H161.757C161.753 246.125 161.753 246.063 161.757 246.002C161.772 245.911 161.8 245.823 161.84 245.741C161.885 245.643 161.962 245.563 162.058 245.514C162.136 245.468 162.226 245.445 162.317 245.447V244.985L162.275 244.994Z" fill="black"/>
<path d="M162.609 245.506C162.729 245.562 162.824 245.661 162.876 245.783C162.915 245.885 162.938 245.993 162.943 246.102C162.943 246.102 162.943 246.178 162.943 246.212H163.377C163.377 246.078 163.36 245.946 163.327 245.817C163.294 245.661 163.225 245.514 163.127 245.388C162.997 245.219 162.815 245.097 162.609 245.044C162.54 245.036 162.47 245.036 162.4 245.044H162.358V245.506C162.441 245.488 162.526 245.488 162.609 245.506Z" fill="#2D2928"/>
<path d="M171.597 260.651C171.167 260.651 170.755 260.823 170.451 261.129C170.147 261.434 169.977 261.849 169.977 262.281C169.977 262.713 170.147 263.127 170.451 263.433C170.755 263.739 171.167 263.91 171.597 263.91H179.524V260.651H171.597Z" fill="#5F9130"/>
<path d="M187.418 260.651H179.499V263.91H187.418C187.847 263.91 188.259 263.739 188.563 263.433C188.867 263.127 189.038 262.713 189.038 262.281C189.038 261.849 188.867 261.434 188.563 261.129C188.259 260.823 187.847 260.651 187.418 260.651Z" fill="#63B223"/>
</g>
</g>
<defs>
<clipPath id="clip0_1081_7470">
<rect width="94.804" height="125.74" fill="white" transform="translate(133 166)"/>
</clipPath>
<clipPath id="clip1_1081_7470">
<rect width="64" height="126" fill="white" transform="translate(148 166)"/>
</clipPath>
</defs>
</svg>
