<svg width="364" height="292" viewBox="0 0 364 292" fill="none" xmlns="http://www.w3.org/2000/svg">
<g clip-path="url(#clip0_2610_7877)">
<g clip-path="url(#clip1_2610_7877)">
<path d="M219.131 223.506L219.164 223.683L219.739 223.372L219.131 223.506Z" fill="#2F2E41"/>
<path d="M190.097 167.361H211.031C213.351 167.361 215.576 168.302 217.217 169.979C218.858 171.655 219.78 173.928 219.78 176.298V281.702C219.78 284.072 218.858 286.345 217.217 288.021C215.576 289.698 213.351 290.639 211.031 290.639H190.097" fill="#C9C9C9"/>
<path d="M190.146 290.639H169.204C166.884 290.637 164.66 289.695 163.02 288.019C161.38 286.343 160.457 284.071 160.455 281.702V176.298C160.457 173.929 161.38 171.657 163.02 169.981C164.66 168.305 166.884 167.363 169.204 167.361H190.146" fill="#B7B7B7"/>
<path d="M190.212 178.331H164.879V282.852H190.212V178.331Z" fill="#F9F9F9"/>
<path d="M215.422 178.331H190.089V282.852H215.422V178.331Z" fill="white"/>
<path d="M190.146 292H169.352C166.609 291.998 163.978 290.884 162.037 288.903C160.097 286.922 159.004 284.235 159 281.433V176.576C159.004 173.772 160.096 171.085 162.037 169.102C163.977 167.12 166.608 166.004 169.352 166H190.146V168.722H169.352C167.315 168.726 165.363 169.555 163.924 171.027C162.484 172.5 161.674 174.495 161.672 176.576V281.433C161.674 283.513 162.484 285.507 163.924 286.978C165.364 288.449 167.316 289.276 169.352 289.278H190.146V292Z" fill="black"/>
<path d="M210.695 292H190.139V289.278H210.695C212.731 289.276 214.683 288.449 216.123 286.978C217.562 285.507 218.372 283.513 218.374 281.433V176.576C218.372 174.495 217.563 172.5 216.123 171.027C214.684 169.555 212.732 168.726 210.695 168.722H190.139V166H210.695C213.439 166.004 216.069 167.12 218.01 169.102C219.95 171.085 221.042 173.772 221.047 176.576V281.433C221.042 284.235 219.95 286.922 218.009 288.903C216.069 290.884 213.438 291.998 210.695 292Z" fill="#2D2928"/>
<path d="M220.825 211.755C220.521 211.755 220.231 211.632 220.016 211.413C219.802 211.194 219.682 210.897 219.682 210.587V196.215C219.682 195.905 219.802 195.608 220.016 195.389C220.231 195.17 220.521 195.047 220.825 195.047C221.128 195.047 221.418 195.17 221.633 195.389C221.847 195.608 221.967 195.905 221.967 196.215V210.587C221.967 210.897 221.847 211.194 221.633 211.413C221.418 211.632 221.128 211.755 220.825 211.755Z" fill="#2D2928"/>
<path d="M177.854 166.218C177.194 166.256 176.572 166.551 176.118 167.043C175.663 167.534 175.41 168.184 175.41 168.86C175.41 169.536 175.663 170.187 176.118 170.678C176.572 171.169 177.194 171.464 177.854 171.502H190.122V166.218H177.854Z" fill="black"/>
<path d="M202.39 166.218H190.122V171.502H202.39C202.742 171.522 203.094 171.469 203.425 171.345C203.756 171.222 204.059 171.031 204.315 170.783C204.571 170.536 204.775 170.238 204.915 169.907C205.054 169.576 205.126 169.22 205.126 168.86C205.126 168.5 205.054 168.144 204.915 167.813C204.775 167.483 204.571 167.184 204.315 166.937C204.059 166.69 203.756 166.499 203.425 166.375C203.094 166.251 202.742 166.198 202.39 166.218Z" fill="#2D2928"/>
<path d="M172.411 223.263L174.006 223.506C174.006 223.288 177.345 201.759 190.163 201.666V199.986C175.988 200.104 172.551 222.314 172.411 223.263Z" fill="#E7BD71"/>
<path d="M190.401 200.037H190.146V201.717H190.401C203.426 201.893 207.233 223.347 207.274 223.557L208.852 223.28C208.688 222.305 204.774 200.23 190.401 200.037Z" fill="#EDC380"/>
<path d="M189.958 214.586C190.358 214.274 190.822 214.058 191.316 213.955C191.809 213.852 192.319 213.865 192.807 213.991C193.295 214.118 193.748 214.356 194.133 214.687C194.519 215.019 194.825 215.435 195.031 215.904C195.407 216.642 195.614 217.456 195.636 218.287C195.659 219.118 195.497 219.943 195.162 220.701C194.768 221.67 194.094 222.494 193.23 223.061C192.687 223.444 192.21 223.915 191.816 224.456C191.728 224.594 191.606 224.706 191.461 224.78C191.316 224.854 191.155 224.887 190.994 224.876C190.911 224.212 190.829 223.54 190.739 222.876L190.369 220.197C190.237 219.239 190.106 218.273 189.982 217.316C189.875 216.476 189.769 215.636 189.67 214.846L189.958 214.586Z" fill="#E69A5F"/>
<path d="M189.71 214.846C189.809 215.686 189.916 216.526 190.023 217.316C190.146 218.273 190.278 219.239 190.409 220.197L190.779 222.876C190.87 223.54 190.952 224.212 191.034 224.876C190.88 224.923 190.717 224.93 190.56 224.894C190.403 224.859 190.258 224.783 190.138 224.674C189.55 224.235 188.901 223.887 188.214 223.641C186.907 223.125 185.844 222.114 185.247 220.819C184.65 219.524 184.564 218.044 185.007 216.686C185.289 215.896 185.846 215.241 186.571 214.844C187.296 214.448 188.138 214.338 188.937 214.535C189.005 214.556 189.074 214.573 189.143 214.586L189.71 214.846Z" fill="#F18C36"/>
<path d="M189.661 213.804H189.579C189.719 213.552 189.859 213.292 190.007 213.04C190.111 212.845 190.276 212.692 190.476 212.603C190.675 212.515 190.898 212.497 191.108 212.553C191.556 212.698 192.039 212.677 192.473 212.494C192.473 212.679 192.301 212.738 192.194 212.805C191.487 213.272 190.705 213.607 189.883 213.796C189.776 213.804 189.711 213.804 189.661 213.804Z" fill="#7DBC22"/>
<path d="M189.579 213.804L189.957 214.577L189.71 214.838L189.143 214.577C188.927 214.309 188.684 214.064 188.419 213.846C188.337 213.779 188.329 213.737 188.419 213.662L188.954 213.166C189.028 213.082 189.069 213.09 189.135 213.166L189.579 213.804Z" fill="#775439"/>
<path d="M189.661 213.804C189.71 213.746 189.776 213.746 189.842 213.729C190.663 213.54 191.445 213.204 192.153 212.738C192.259 212.67 192.432 212.612 192.432 212.427C192.432 212.427 192.49 212.376 192.523 212.427C192.555 212.477 192.523 212.511 192.523 212.553C192.408 212.784 192.267 213.001 192.103 213.2C191.796 213.529 191.402 213.761 190.969 213.868C190.536 213.975 190.082 213.953 189.661 213.804Z" fill="#9BD048"/>
<path d="M202.488 214.334C203.095 214.201 203.726 214.234 204.316 214.431C204.907 214.627 205.436 214.979 205.851 215.451C206.489 216.161 206.826 217.1 206.788 218.063C206.81 218.959 206.632 219.849 206.269 220.665C205.906 221.481 205.366 222.203 204.691 222.776C203.859 223.521 202.823 223.99 201.723 224.12C201.018 224.231 200.335 224.458 199.7 224.792C199.557 224.876 199.394 224.921 199.228 224.921C199.062 224.921 198.899 224.876 198.755 224.792C198.977 224.111 199.207 223.422 199.429 222.734C199.733 221.81 200.021 220.886 200.317 219.953L201.279 216.971C201.559 216.131 201.847 215.291 202.101 214.451L202.488 214.334Z" fill="#E69A5F"/>
<path d="M202.126 214.46C201.847 215.3 201.559 216.14 201.304 216.98L200.342 219.962C200.046 220.894 199.758 221.818 199.454 222.742C199.232 223.431 199.002 224.12 198.78 224.8C198.607 224.773 198.445 224.7 198.308 224.59C198.171 224.48 198.064 224.335 197.998 224.17C197.633 223.46 197.168 222.809 196.617 222.238C195.589 221.106 195.028 219.612 195.05 218.067C195.073 216.523 195.679 215.047 196.74 213.947C197.379 213.319 198.222 212.954 199.108 212.921C199.994 212.889 200.861 213.191 201.542 213.771L201.731 213.914L202.126 214.46Z" fill="#F18C36"/>
<path d="M202.554 213.46L202.48 213.401V213.334C202.735 213.158 202.982 212.973 203.245 212.805C203.435 212.664 203.665 212.592 203.899 212.602C204.133 212.611 204.358 212.7 204.536 212.855C204.905 213.214 205.385 213.43 205.893 213.468C205.802 213.645 205.613 213.62 205.473 213.636C204.572 213.739 203.66 213.685 202.776 213.477C202.707 213.442 202.628 213.436 202.554 213.46Z" fill="#7DBC22"/>
<path d="M202.464 213.334V213.401C202.464 213.712 202.464 214.023 202.464 214.334L202.102 214.46L201.683 213.93C201.589 213.567 201.465 213.213 201.313 212.872C201.263 212.771 201.313 212.721 201.387 212.696C201.642 212.62 201.888 212.553 202.135 212.469C202.25 212.427 202.291 212.469 202.308 212.57C202.365 212.822 202.415 213.082 202.464 213.334Z" fill="#775439"/>
<path d="M202.554 213.46C202.62 213.435 202.693 213.435 202.759 213.46C203.643 213.668 204.555 213.722 205.456 213.62C205.596 213.62 205.785 213.62 205.876 213.452C205.876 213.452 205.958 213.452 205.966 213.452C205.974 213.452 205.966 213.544 205.892 213.569C205.674 213.741 205.437 213.884 205.185 213.998C204.742 214.177 204.258 214.222 203.791 214.126C203.325 214.031 202.895 213.799 202.554 213.46Z" fill="#9BD048"/>
<path d="M197.423 218.214C197.952 217.88 198.559 217.694 199.181 217.675C199.803 217.655 200.419 217.804 200.967 218.105C201.798 218.553 202.424 219.316 202.71 220.23C203.028 221.067 203.156 221.967 203.084 222.862C203.013 223.756 202.745 224.623 202.299 225.396C201.763 226.388 200.942 227.188 199.947 227.69C199.334 228.04 198.779 228.488 198.303 229.017C198.201 229.151 198.065 229.254 197.91 229.316C197.755 229.378 197.587 229.397 197.423 229.37C197.423 228.647 197.423 227.925 197.423 227.202C197.423 226.228 197.357 225.254 197.333 224.279C197.308 223.305 197.275 222.188 197.251 221.146L197.201 218.458L197.423 218.214Z" fill="#E69A5F"/>
<path d="M197.127 218.458L197.176 221.146C197.176 222.188 197.234 223.238 197.259 224.279C197.283 225.321 197.316 226.228 197.349 227.202C197.349 227.925 197.349 228.647 197.349 229.37C197.179 229.404 197.003 229.393 196.839 229.337C196.674 229.281 196.527 229.182 196.412 229.05C195.833 228.509 195.179 228.059 194.471 227.715C193.129 227.003 192.107 225.792 191.616 224.331C191.124 222.871 191.202 221.273 191.832 219.869C192.224 219.055 192.897 218.418 193.721 218.08C194.545 217.742 195.462 217.727 196.297 218.038L196.51 218.105L197.127 218.458Z" fill="#F18C36"/>
<path d="M197.193 217.374H197.11V217.316C197.291 217.064 197.464 216.803 197.653 216.551C197.788 216.354 197.983 216.208 198.208 216.137C198.432 216.065 198.674 216.072 198.895 216.156C199.359 216.363 199.878 216.402 200.366 216.266C200.366 216.467 200.153 216.501 200.029 216.568C199.216 216.977 198.34 217.241 197.439 217.349C197.324 217.324 197.25 217.316 197.193 217.374Z" fill="#7DBC22"/>
<path d="M197.069 217.282V217.341C197.176 217.626 197.283 217.92 197.382 218.181L197.086 218.424L196.51 218.072C196.306 217.77 196.075 217.489 195.819 217.232C195.737 217.148 195.737 217.106 195.819 217.038C195.902 216.971 196.247 216.728 196.453 216.56C196.658 216.392 196.592 216.501 196.642 216.56L197.069 217.282Z" fill="#775439"/>
<path d="M197.193 217.374C197.251 217.316 197.325 217.324 197.399 217.316C198.299 217.208 199.175 216.943 199.989 216.534C200.112 216.467 200.301 216.434 200.326 216.232C200.326 216.232 200.392 216.182 200.417 216.232C200.441 216.282 200.417 216.333 200.417 216.366C200.268 216.604 200.092 216.821 199.89 217.013C199.522 217.331 199.072 217.534 198.594 217.598C198.116 217.662 197.63 217.585 197.193 217.374Z" fill="#9BD048"/>
<path d="M180.263 213.981C180.772 213.578 181.375 213.318 182.012 213.226C182.65 213.135 183.3 213.216 183.897 213.46C184.804 213.828 185.536 214.542 185.936 215.451C186.353 216.277 186.583 217.188 186.609 218.117C186.634 219.046 186.455 219.97 186.084 220.818C185.636 221.895 184.883 222.811 183.922 223.448C183.314 223.877 182.778 224.405 182.335 225.01C182.244 225.158 182.116 225.28 181.964 225.362C181.813 225.445 181.643 225.485 181.472 225.48C181.373 224.733 181.283 223.994 181.184 223.246C181.044 222.246 180.904 221.247 180.773 220.247C180.641 219.248 180.477 218.105 180.337 217.03C180.214 216.106 180.107 215.19 179.983 214.266C180.082 214.174 180.172 214.082 180.263 213.981Z" fill="#E69A5F"/>
<path d="M179.983 214.266C180.107 215.19 180.214 216.106 180.337 217.03C180.477 218.105 180.625 219.172 180.773 220.247C180.921 221.322 181.044 222.246 181.184 223.246C181.283 223.994 181.373 224.733 181.472 225.48C181.299 225.533 181.117 225.54 180.941 225.5C180.766 225.461 180.603 225.376 180.469 225.254C179.81 224.769 179.087 224.381 178.323 224.103C176.865 223.522 175.684 222.389 175.024 220.94C174.363 219.491 174.276 217.838 174.779 216.324C175.09 215.44 175.711 214.704 176.522 214.261C177.333 213.817 178.276 213.696 179.169 213.922H179.4L179.983 214.266Z" fill="#F18C36"/>
<path d="M179.934 213.141H179.843H179.794C179.95 212.855 180.106 212.561 180.271 212.301C180.388 212.082 180.572 211.91 180.796 211.811C181.019 211.712 181.268 211.693 181.504 211.755C182.006 211.914 182.547 211.89 183.034 211.688C183.034 211.898 182.836 211.965 182.713 212.04C181.92 212.556 181.047 212.931 180.131 213.149C180.068 213.125 179.999 213.122 179.934 213.141Z" fill="#7DBC22"/>
<path d="M179.795 213.074H179.844L180.263 213.914C180.173 214.014 180.083 214.107 179.984 214.199L179.359 213.905C179.109 213.602 178.834 213.32 178.537 213.065C178.446 212.99 178.438 212.939 178.537 212.855C178.635 212.771 178.94 212.494 179.129 212.301C179.318 212.108 179.269 212.217 179.334 212.301L179.795 213.074Z" fill="#775439"/>
<path d="M179.935 213.141C179.99 213.093 180.06 213.066 180.132 213.065C181.048 212.847 181.921 212.472 182.714 211.956C182.837 211.881 183.026 211.814 183.034 211.604C183.034 211.604 183.1 211.553 183.125 211.604C183.15 211.654 183.125 211.704 183.125 211.746C183.004 212.009 182.846 212.253 182.656 212.469C182.314 212.837 181.876 213.097 181.393 213.216C180.91 213.335 180.403 213.309 179.935 213.141Z" fill="#9BD048"/>
<path d="M171.383 222.86L176.234 238.181C176.527 239.102 177.097 239.905 177.864 240.476C178.63 241.046 179.553 241.354 180.501 241.356H195.894L200.005 222.876L171.383 222.86Z" fill="#D3A76E"/>
<path d="M199.988 222.86L195.877 241.34H201.213C202.132 241.341 203.027 241.041 203.766 240.485C204.506 239.928 205.052 239.145 205.325 238.248L210.011 222.843L199.988 222.86Z" fill="#D8B07C"/>
<path d="M185.18 241.356L174.104 225.01L174.549 224.699L185.83 241.356H185.18Z" fill="#CC9F6E"/>
<path d="M191.635 241.356L180.847 225.338L174.968 234.208L174.763 233.544L180.847 224.372L192.285 241.356H191.635Z" fill="#CC9F6E"/>
<path d="M198.69 241.365L187.828 225.338L177.714 240.365L177.312 239.996L187.828 224.38L199.339 241.365H198.69Z" fill="#CC9F6E"/>
<path d="M183.708 241.356H183.059L194.356 224.363L204.568 239.735L204.198 240.147L194.356 225.338L183.708 241.356Z" fill="#CC9F6E"/>
<path d="M196.74 241.356H196.091L207.372 224.699L207.816 225.01L196.74 241.356Z" fill="#CC9F6E"/>
<path d="M190.089 241.356H189.439L200.943 224.38L206.945 232.973L206.764 233.553L200.943 225.329L190.089 241.356Z" fill="#CC9F6E"/>
<path d="M203.384 240.768L202.965 240.987L202.702 241.096L202.438 241.18L206.015 236.031L205.497 237.719L203.384 240.768Z" fill="#CC9F6E"/>
<path d="M178.224 240.71L176.021 237.534L175.47 235.779L179.178 241.155L178.635 240.945L178.224 240.71Z" fill="#CC9F6E"/>
<path d="M209.946 221.196H200.515L199.512 225.573H209.946C210.491 225.538 211.003 225.293 211.377 224.886C211.751 224.48 211.959 223.943 211.959 223.385C211.959 222.827 211.751 222.29 211.377 221.883C211.003 221.476 210.491 221.231 209.946 221.196Z" fill="#EDC380"/>
<path d="M171.49 221.196C171.197 221.178 170.904 221.221 170.629 221.322C170.353 221.424 170.101 221.582 169.887 221.787C169.674 221.992 169.504 222.24 169.387 222.514C169.271 222.789 169.211 223.085 169.211 223.385C169.211 223.684 169.271 223.98 169.387 224.255C169.504 224.53 169.674 224.777 169.887 224.982C170.101 225.187 170.353 225.345 170.629 225.447C170.904 225.549 171.197 225.591 171.49 225.573H199.536L200.54 221.196H171.49Z" fill="#E7BD71"/>
<path d="M190.212 264.599C188.574 264.539 187.022 263.831 185.884 262.626C184.745 261.42 184.109 259.81 184.109 258.135C184.109 256.46 184.745 254.851 185.884 253.645C187.022 252.439 188.574 251.732 190.212 251.672" fill="#5F9130"/>
<path d="M190.212 251.672C191.062 251.64 191.91 251.784 192.704 252.095C193.498 252.406 194.223 252.877 194.836 253.48C195.448 254.083 195.935 254.807 196.267 255.606C196.6 256.406 196.771 257.266 196.771 258.135C196.771 259.004 196.6 259.865 196.267 260.664C195.935 261.464 195.448 262.187 194.836 262.791C194.223 263.394 193.498 263.865 192.704 264.176C191.91 264.487 191.062 264.63 190.212 264.599" fill="#63B223"/>
<path d="M189.201 259.316L187.556 257.711C187.473 257.622 187.372 257.552 187.261 257.503C187.15 257.455 187.031 257.43 186.91 257.43C186.789 257.43 186.67 257.455 186.559 257.503C186.448 257.551 186.348 257.622 186.264 257.711C186.18 257.8 186.115 257.905 186.072 258.02C186.029 258.135 186.01 258.258 186.014 258.381C186.019 258.505 186.048 258.626 186.1 258.737C186.151 258.848 186.224 258.948 186.315 259.03L188.633 261.306C188.804 261.466 189.027 261.556 189.258 261.558C189.381 261.553 189.501 261.522 189.612 261.468C189.722 261.413 189.82 261.335 189.9 261.239L190.163 260.92V258.106L189.201 259.316Z" fill="#F9F9F9"/>
<path d="M194.068 254.964C193.979 254.886 193.875 254.826 193.763 254.789C193.651 254.751 193.532 254.737 193.415 254.746C193.297 254.755 193.182 254.788 193.077 254.843C192.972 254.898 192.878 254.973 192.802 255.065L190.212 258.14V260.954L194.159 256.258C194.237 256.168 194.297 256.062 194.335 255.948C194.373 255.833 194.388 255.712 194.38 255.592C194.371 255.471 194.339 255.354 194.286 255.246C194.232 255.138 194.158 255.043 194.068 254.964Z" fill="white"/>
</g>
</g>
<path d="M62.5263 74.152V77.44H55.6623V80.992H60.7983V84.184H55.6623V91H51.5583V74.152H62.5263ZM68.7873 79.84C69.2673 79.104 69.8673 78.528 70.5873 78.112C71.3073 77.68 72.1073 77.464 72.9873 77.464V81.808H71.8593C70.8353 81.808 70.0673 82.032 69.5553 82.48C69.0433 82.912 68.7873 83.68 68.7873 84.784V91H64.6833V77.608H68.7873V79.84ZM88.1729 77.608V91H84.0689V89.176C83.6529 89.768 83.0849 90.248 82.3649 90.616C81.6609 90.968 80.8769 91.144 80.0129 91.144C78.9889 91.144 78.0849 90.92 77.3009 90.472C76.5169 90.008 75.9089 89.344 75.4769 88.48C75.0449 87.616 74.8289 86.6 74.8289 85.432V77.608H78.9089V84.88C78.9089 85.776 79.1409 86.472 79.6049 86.968C80.0689 87.464 80.6929 87.712 81.4769 87.712C82.2769 87.712 82.9089 87.464 83.3729 86.968C83.8369 86.472 84.0689 85.776 84.0689 84.88V77.608H88.1729ZM90.3048 84.304C90.3048 82.912 90.5848 81.696 91.1448 80.656C91.7208 79.616 92.5128 78.816 93.5208 78.256C94.5448 77.696 95.7128 77.416 97.0248 77.416C98.7048 77.416 100.105 77.856 101.225 78.736C102.361 79.616 103.105 80.856 103.457 82.456H99.0888C98.7208 81.432 98.0088 80.92 96.9528 80.92C96.2008 80.92 95.6008 81.216 95.1528 81.808C94.7048 82.384 94.4808 83.216 94.4808 84.304C94.4808 85.392 94.7048 86.232 95.1528 86.824C95.6008 87.4 96.2008 87.688 96.9528 87.688C98.0088 87.688 98.7208 87.176 99.0888 86.152H103.457C103.105 87.72 102.361 88.952 101.225 89.848C100.089 90.744 98.6888 91.192 97.0248 91.192C95.7128 91.192 94.5448 90.912 93.5208 90.352C92.5128 89.792 91.7208 88.992 91.1448 87.952C90.5848 86.912 90.3048 85.696 90.3048 84.304ZM113.116 87.52V91H111.028C109.54 91 108.38 90.64 107.548 89.92C106.716 89.184 106.3 87.992 106.3 86.344V81.016H104.668V77.608H106.3V74.344H110.404V77.608H113.092V81.016H110.404V86.392C110.404 86.792 110.5 87.08 110.692 87.256C110.884 87.432 111.204 87.52 111.652 87.52H113.116ZM128.626 77.608V91H124.522V89.176C124.106 89.768 123.538 90.248 122.818 90.616C122.114 90.968 121.33 91.144 120.466 91.144C119.442 91.144 118.538 90.92 117.754 90.472C116.97 90.008 116.362 89.344 115.93 88.48C115.498 87.616 115.282 86.6 115.282 85.432V77.608H119.362V84.88C119.362 85.776 119.594 86.472 120.058 86.968C120.522 87.464 121.146 87.712 121.93 87.712C122.73 87.712 123.362 87.464 123.826 86.968C124.29 86.472 124.522 85.776 124.522 84.88V77.608H128.626ZM137.022 91.192C135.854 91.192 134.814 90.992 133.902 90.592C132.99 90.192 132.27 89.648 131.742 88.96C131.214 88.256 130.918 87.472 130.854 86.608H134.91C134.958 87.072 135.174 87.448 135.558 87.736C135.942 88.024 136.414 88.168 136.974 88.168C137.486 88.168 137.878 88.072 138.15 87.88C138.438 87.672 138.582 87.408 138.582 87.088C138.582 86.704 138.382 86.424 137.982 86.248C137.582 86.056 136.934 85.848 136.038 85.624C135.078 85.4 134.278 85.168 133.638 84.928C132.998 84.672 132.446 84.28 131.982 83.752C131.518 83.208 131.286 82.48 131.286 81.568C131.286 80.8 131.494 80.104 131.91 79.48C132.342 78.84 132.966 78.336 133.782 77.968C134.614 77.6 135.598 77.416 136.734 77.416C138.414 77.416 139.734 77.832 140.694 78.664C141.67 79.496 142.23 80.6 142.374 81.976H138.582C138.518 81.512 138.31 81.144 137.958 80.872C137.622 80.6 137.174 80.464 136.614 80.464C136.134 80.464 135.766 80.56 135.51 80.752C135.254 80.928 135.126 81.176 135.126 81.496C135.126 81.88 135.326 82.168 135.726 82.36C136.142 82.552 136.782 82.744 137.646 82.936C138.638 83.192 139.446 83.448 140.07 83.704C140.694 83.944 141.238 84.344 141.702 84.904C142.182 85.448 142.43 86.184 142.446 87.112C142.446 87.896 142.222 88.6 141.774 89.224C141.342 89.832 140.71 90.312 139.878 90.664C139.062 91.016 138.11 91.192 137.022 91.192ZM165.859 74.152L159.883 91H154.747L148.771 74.152H153.139L157.315 86.872L161.515 74.152H165.859ZM171.99 77.608V91H167.886V77.608H171.99ZM172.734 74.272L166.95 76.696V73.864L172.734 71.08V74.272ZM174.469 84.28C174.469 82.904 174.725 81.696 175.237 80.656C175.765 79.616 176.477 78.816 177.373 78.256C178.269 77.696 179.269 77.416 180.373 77.416C181.317 77.416 182.141 77.608 182.845 77.992C183.565 78.376 184.117 78.88 184.501 79.504V77.608H188.605V91H184.501V89.104C184.101 89.728 183.541 90.232 182.821 90.616C182.117 91 181.293 91.192 180.349 91.192C179.261 91.192 178.269 90.912 177.373 90.352C176.477 89.776 175.765 88.968 175.237 87.928C174.725 86.872 174.469 85.656 174.469 84.28ZM184.501 84.304C184.501 83.28 184.213 82.472 183.637 81.88C183.077 81.288 182.389 80.992 181.573 80.992C180.757 80.992 180.061 81.288 179.485 81.88C178.925 82.456 178.645 83.256 178.645 84.28C178.645 85.304 178.925 86.12 179.485 86.728C180.061 87.32 180.757 87.616 181.573 87.616C182.389 87.616 183.077 87.32 183.637 86.728C184.213 86.136 184.501 85.328 184.501 84.304ZM195.844 84.304C195.844 82.912 196.124 81.696 196.684 80.656C197.26 79.616 198.052 78.816 199.06 78.256C200.084 77.696 201.252 77.416 202.564 77.416C204.244 77.416 205.644 77.856 206.764 78.736C207.9 79.616 208.644 80.856 208.996 82.456H204.628C204.26 81.432 203.548 80.92 202.492 80.92C201.74 80.92 201.14 81.216 200.692 81.808C200.244 82.384 200.02 83.216 200.02 84.304C200.02 85.392 200.244 86.232 200.692 86.824C201.14 87.4 201.74 87.688 202.492 87.688C203.548 87.688 204.26 87.176 204.628 86.152H208.996C208.644 87.72 207.9 88.952 206.764 89.848C205.628 90.744 204.228 91.192 202.564 91.192C201.252 91.192 200.084 90.912 199.06 90.352C198.052 89.792 197.26 88.992 196.684 87.952C196.124 86.912 195.844 85.696 195.844 84.304ZM217.287 91.192C215.975 91.192 214.791 90.912 213.735 90.352C212.695 89.792 211.871 88.992 211.263 87.952C210.671 86.912 210.375 85.696 210.375 84.304C210.375 82.928 210.679 81.72 211.287 80.68C211.895 79.624 212.727 78.816 213.783 78.256C214.839 77.696 216.023 77.416 217.335 77.416C218.647 77.416 219.831 77.696 220.887 78.256C221.943 78.816 222.775 79.624 223.383 80.68C223.991 81.72 224.295 82.928 224.295 84.304C224.295 85.68 223.983 86.896 223.359 87.952C222.751 88.992 221.911 89.792 220.839 90.352C219.783 90.912 218.599 91.192 217.287 91.192ZM217.287 87.64C218.071 87.64 218.735 87.352 219.279 86.776C219.839 86.2 220.119 85.376 220.119 84.304C220.119 83.232 219.847 82.408 219.303 81.832C218.775 81.256 218.119 80.968 217.335 80.968C216.535 80.968 215.871 81.256 215.343 81.832C214.815 82.392 214.551 83.216 214.551 84.304C214.551 85.376 214.807 86.2 215.319 86.776C215.847 87.352 216.503 87.64 217.287 87.64ZM234.632 77.464C236.2 77.464 237.448 77.976 238.376 79C239.32 80.008 239.792 81.4 239.792 83.176V91H235.712V83.728C235.712 82.832 235.48 82.136 235.016 81.64C234.552 81.144 233.928 80.896 233.144 80.896C232.36 80.896 231.736 81.144 231.272 81.64C230.808 82.136 230.576 82.832 230.576 83.728V91H226.472V77.608H230.576V79.384C230.992 78.792 231.552 78.328 232.256 77.992C232.96 77.64 233.752 77.464 234.632 77.464ZM249.364 81.016H247.156V91H243.052V81.016H241.564V77.608H243.052V77.224C243.052 75.576 243.524 74.328 244.468 73.48C245.412 72.616 246.796 72.184 248.62 72.184C248.924 72.184 249.148 72.192 249.292 72.208V75.688C248.508 75.64 247.956 75.752 247.636 76.024C247.316 76.296 247.156 76.784 247.156 77.488V77.608H249.364V81.016ZM253.357 76.216C252.637 76.216 252.045 76.008 251.581 75.592C251.133 75.16 250.909 74.632 250.909 74.008C250.909 73.368 251.133 72.84 251.581 72.424C252.045 71.992 252.637 71.776 253.357 71.776C254.061 71.776 254.637 71.992 255.085 72.424C255.549 72.84 255.781 73.368 255.781 74.008C255.781 74.632 255.549 75.16 255.085 75.592C254.637 76.008 254.061 76.216 253.357 76.216ZM255.397 77.608V91H251.293V77.608H255.397ZM262.475 79.84C262.955 79.104 263.555 78.528 264.275 78.112C264.995 77.68 265.795 77.464 266.675 77.464V81.808H265.547C264.523 81.808 263.755 82.032 263.243 82.48C262.731 82.912 262.475 83.68 262.475 84.784V91H258.371V77.608H262.475V79.84ZM285.724 77.464C287.388 77.464 288.708 77.968 289.684 78.976C290.676 79.984 291.172 81.384 291.172 83.176V91H287.092V83.728C287.092 82.864 286.86 82.2 286.396 81.736C285.948 81.256 285.324 81.016 284.524 81.016C283.724 81.016 283.092 81.256 282.628 81.736C282.18 82.2 281.956 82.864 281.956 83.728V91H277.876V83.728C277.876 82.864 277.644 82.2 277.18 81.736C276.732 81.256 276.108 81.016 275.308 81.016C274.508 81.016 273.876 81.256 273.412 81.736C272.964 82.2 272.74 82.864 272.74 83.728V91H268.636V77.608H272.74V79.288C273.156 78.728 273.7 78.288 274.372 77.968C275.044 77.632 275.804 77.464 276.652 77.464C277.66 77.464 278.556 77.68 279.34 78.112C280.14 78.544 280.764 79.16 281.212 79.96C281.676 79.224 282.308 78.624 283.108 78.16C283.908 77.696 284.78 77.464 285.724 77.464ZM293.227 84.28C293.227 82.904 293.483 81.696 293.995 80.656C294.523 79.616 295.235 78.816 296.131 78.256C297.027 77.696 298.027 77.416 299.131 77.416C300.075 77.416 300.899 77.608 301.603 77.992C302.323 78.376 302.875 78.88 303.259 79.504V77.608H307.363V91H303.259V89.104C302.859 89.728 302.299 90.232 301.579 90.616C300.875 91 300.051 91.192 299.107 91.192C298.019 91.192 297.027 90.912 296.131 90.352C295.235 89.776 294.523 88.968 293.995 87.928C293.483 86.872 293.227 85.656 293.227 84.28ZM303.259 84.304C303.259 83.28 302.971 82.472 302.395 81.88C301.835 81.288 301.147 80.992 300.331 80.992C299.515 80.992 298.819 81.288 298.243 81.88C297.683 82.456 297.403 83.256 297.403 84.28C297.403 85.304 297.683 86.12 298.243 86.728C298.819 87.32 299.515 87.616 300.331 87.616C301.147 87.616 301.835 87.32 302.395 86.728C302.971 86.136 303.259 85.328 303.259 84.304ZM132.44 123.52V127H130.352C128.864 127 127.704 126.64 126.872 125.92C126.04 125.184 125.624 123.992 125.624 122.344V117.016H123.992V113.608H125.624V110.344H129.728V113.608H132.416V117.016H129.728V122.392C129.728 122.792 129.824 123.08 130.016 123.256C130.208 123.432 130.528 123.52 130.976 123.52H132.44ZM147.95 113.608V127H143.846V125.176C143.43 125.768 142.862 126.248 142.142 126.616C141.438 126.968 140.654 127.144 139.79 127.144C138.766 127.144 137.862 126.92 137.078 126.472C136.294 126.008 135.686 125.344 135.254 124.48C134.822 123.616 134.606 122.6 134.606 121.432V113.608H138.686V120.88C138.686 121.776 138.918 122.472 139.382 122.968C139.846 123.464 140.47 123.712 141.254 123.712C142.054 123.712 142.686 123.464 143.15 122.968C143.614 122.472 143.846 121.776 143.846 120.88V113.608H147.95ZM160.088 115.504C160.488 114.88 161.04 114.376 161.744 113.992C162.448 113.608 163.272 113.416 164.216 113.416C165.32 113.416 166.32 113.696 167.216 114.256C168.112 114.816 168.816 115.616 169.328 116.656C169.856 117.696 170.12 118.904 170.12 120.28C170.12 121.656 169.856 122.872 169.328 123.928C168.816 124.968 168.112 125.776 167.216 126.352C166.32 126.912 165.32 127.192 164.216 127.192C163.288 127.192 162.464 127 161.744 126.616C161.04 126.232 160.488 125.736 160.088 125.128V133.384H155.984V113.608H160.088V115.504ZM165.944 120.28C165.944 119.256 165.656 118.456 165.08 117.88C164.52 117.288 163.824 116.992 162.992 116.992C162.176 116.992 161.48 117.288 160.904 117.88C160.344 118.472 160.064 119.28 160.064 120.304C160.064 121.328 160.344 122.136 160.904 122.728C161.48 123.32 162.176 123.616 162.992 123.616C163.808 123.616 164.504 123.32 165.08 122.728C165.656 122.12 165.944 121.304 165.944 120.28ZM184.897 120.088C184.897 120.472 184.873 120.872 184.825 121.288H175.537C175.601 122.12 175.865 122.76 176.329 123.208C176.809 123.64 177.393 123.856 178.081 123.856C179.105 123.856 179.817 123.424 180.217 122.56H184.585C184.361 123.44 183.953 124.232 183.361 124.936C182.785 125.64 182.057 126.192 181.177 126.592C180.297 126.992 179.313 127.192 178.225 127.192C176.913 127.192 175.745 126.912 174.721 126.352C173.697 125.792 172.897 124.992 172.321 123.952C171.745 122.912 171.457 121.696 171.457 120.304C171.457 118.912 171.737 117.696 172.297 116.656C172.873 115.616 173.673 114.816 174.697 114.256C175.721 113.696 176.897 113.416 178.225 113.416C179.521 113.416 180.673 113.688 181.681 114.232C182.689 114.776 183.473 115.552 184.033 116.56C184.609 117.568 184.897 118.744 184.897 120.088ZM180.697 119.008C180.697 118.304 180.457 117.744 179.977 117.328C179.497 116.912 178.897 116.704 178.177 116.704C177.489 116.704 176.905 116.904 176.425 117.304C175.961 117.704 175.673 118.272 175.561 119.008H180.697ZM186.246 120.28C186.246 118.904 186.502 117.696 187.014 116.656C187.542 115.616 188.254 114.816 189.15 114.256C190.046 113.696 191.046 113.416 192.15 113.416C193.03 113.416 193.83 113.6 194.55 113.968C195.286 114.336 195.862 114.832 196.278 115.456V109.24H200.382V127H196.278V125.08C195.894 125.72 195.342 126.232 194.622 126.616C193.918 127 193.094 127.192 192.15 127.192C191.046 127.192 190.046 126.912 189.15 126.352C188.254 125.776 187.542 124.968 187.014 123.928C186.502 122.872 186.246 121.656 186.246 120.28ZM196.278 120.304C196.278 119.28 195.99 118.472 195.414 117.88C194.854 117.288 194.166 116.992 193.35 116.992C192.534 116.992 191.838 117.288 191.262 117.88C190.702 118.456 190.422 119.256 190.422 120.28C190.422 121.304 190.702 122.12 191.262 122.728C191.838 123.32 192.534 123.616 193.35 123.616C194.166 123.616 194.854 123.32 195.414 122.728C195.99 122.136 196.278 121.328 196.278 120.304ZM205.415 112.216C204.695 112.216 204.103 112.008 203.639 111.592C203.191 111.16 202.967 110.632 202.967 110.008C202.967 109.368 203.191 108.84 203.639 108.424C204.103 107.992 204.695 107.776 205.415 107.776C206.119 107.776 206.695 107.992 207.143 108.424C207.607 108.84 207.839 109.368 207.839 110.008C207.839 110.632 207.607 111.16 207.143 111.592C206.695 112.008 206.119 112.216 205.415 112.216ZM207.455 113.608V127H203.351V113.608H207.455ZM209.613 120.28C209.613 118.904 209.869 117.696 210.381 116.656C210.909 115.616 211.621 114.816 212.517 114.256C213.413 113.696 214.413 113.416 215.517 113.416C216.397 113.416 217.197 113.6 217.917 113.968C218.653 114.336 219.229 114.832 219.645 115.456V109.24H223.749V127H219.645V125.08C219.261 125.72 218.709 126.232 217.989 126.616C217.285 127 216.461 127.192 215.517 127.192C214.413 127.192 213.413 126.912 212.517 126.352C211.621 125.776 210.909 124.968 210.381 123.928C209.869 122.872 209.613 121.656 209.613 120.28ZM219.645 120.304C219.645 119.28 219.357 118.472 218.781 117.88C218.221 117.288 217.533 116.992 216.717 116.992C215.901 116.992 215.205 117.288 214.629 117.88C214.069 118.456 213.789 119.256 213.789 120.28C213.789 121.304 214.069 122.12 214.629 122.728C215.205 123.32 215.901 123.616 216.717 123.616C217.533 123.616 218.221 123.32 218.781 122.728C219.357 122.136 219.645 121.328 219.645 120.304ZM232.814 127.192C231.502 127.192 230.318 126.912 229.262 126.352C228.222 125.792 227.398 124.992 226.79 123.952C226.198 122.912 225.902 121.696 225.902 120.304C225.902 118.928 226.206 117.72 226.814 116.68C227.422 115.624 228.254 114.816 229.31 114.256C230.366 113.696 231.55 113.416 232.862 113.416C234.174 113.416 235.358 113.696 236.414 114.256C237.47 114.816 238.302 115.624 238.91 116.68C239.518 117.72 239.822 118.928 239.822 120.304C239.822 121.68 239.51 122.896 238.886 123.952C238.278 124.992 237.438 125.792 236.366 126.352C235.31 126.912 234.126 127.192 232.814 127.192ZM232.814 123.64C233.598 123.64 234.262 123.352 234.806 122.776C235.366 122.2 235.646 121.376 235.646 120.304C235.646 119.232 235.374 118.408 234.83 117.832C234.302 117.256 233.646 116.968 232.862 116.968C232.062 116.968 231.398 117.256 230.87 117.832C230.342 118.392 230.078 119.216 230.078 120.304C230.078 121.376 230.334 122.2 230.846 122.776C231.374 123.352 232.03 123.64 232.814 123.64Z" fill="#09868F"/>
<circle cx="182" cy="30" r="30" fill="#09868F"/>
<path d="M171.836 25.136C171.932 22.568 172.772 20.588 174.356 19.196C175.94 17.804 178.088 17.108 180.8 17.108C182.6 17.108 184.136 17.42 185.408 18.044C186.704 18.668 187.676 19.52 188.324 20.6C188.996 21.68 189.332 22.892 189.332 24.236C189.332 25.82 188.936 27.116 188.144 28.124C187.352 29.108 186.428 29.78 185.372 30.14V30.284C186.74 30.74 187.82 31.496 188.612 32.552C189.404 33.608 189.8 34.964 189.8 36.62C189.8 38.108 189.452 39.428 188.756 40.58C188.084 41.708 187.088 42.596 185.768 43.244C184.472 43.892 182.924 44.216 181.124 44.216C178.244 44.216 175.94 43.508 174.212 42.092C172.508 40.676 171.608 38.54 171.512 35.684H177.488C177.512 36.74 177.812 37.58 178.388 38.204C178.964 38.804 179.804 39.104 180.908 39.104C181.844 39.104 182.564 38.84 183.068 38.312C183.596 37.76 183.86 37.04 183.86 36.152C183.86 35 183.488 34.172 182.744 33.668C182.024 33.14 180.86 32.876 179.252 32.876H178.1V27.872H179.252C180.476 27.872 181.46 27.668 182.204 27.26C182.972 26.828 183.356 26.072 183.356 24.992C183.356 24.128 183.116 23.456 182.636 22.976C182.156 22.496 181.496 22.256 180.656 22.256C179.744 22.256 179.06 22.532 178.604 23.084C178.172 23.636 177.92 24.32 177.848 25.136H171.836Z" fill="#F9F9F9"/>
<defs>
<clipPath id="clip0_2610_7877">
<rect width="106.973" height="125.74" fill="white" transform="translate(126 166)"/>
</clipPath>
<clipPath id="clip1_2610_7877">
<rect width="63" height="126" fill="white" transform="translate(159 166)"/>
</clipPath>
</defs>
</svg>
