<svg width="364" height="289" viewBox="0 0 364 289" fill="none" xmlns="http://www.w3.org/2000/svg">
<path d="M8.08419 86.832H13.4602V90H3.98019V73.152H8.08419V86.832ZM21.5137 90.192C20.2017 90.192 19.0177 89.912 17.9617 89.352C16.9217 88.792 16.0977 87.992 15.4897 86.952C14.8977 85.912 14.6017 84.696 14.6017 83.304C14.6017 81.928 14.9057 80.72 15.5137 79.68C16.1217 78.624 16.9537 77.816 18.0097 77.256C19.0657 76.696 20.2497 76.416 21.5617 76.416C22.8737 76.416 24.0577 76.696 25.1137 77.256C26.1697 77.816 27.0017 78.624 27.6097 79.68C28.2177 80.72 28.5217 81.928 28.5217 83.304C28.5217 84.68 28.2097 85.896 27.5857 86.952C26.9777 87.992 26.1377 88.792 25.0657 89.352C24.0097 89.912 22.8257 90.192 21.5137 90.192ZM21.5137 86.64C22.2977 86.64 22.9617 86.352 23.5057 85.776C24.0657 85.2 24.3457 84.376 24.3457 83.304C24.3457 82.232 24.0737 81.408 23.5297 80.832C23.0017 80.256 22.3457 79.968 21.5617 79.968C20.7617 79.968 20.0977 80.256 19.5697 80.832C19.0417 81.392 18.7777 82.216 18.7777 83.304C18.7777 84.376 19.0337 85.2 19.5457 85.776C20.0737 86.352 20.7297 86.64 21.5137 86.64ZM36.1469 90.192C34.9789 90.192 33.9389 89.992 33.0269 89.592C32.1149 89.192 31.3949 88.648 30.8669 87.96C30.3389 87.256 30.0429 86.472 29.9789 85.608H34.0349C34.0829 86.072 34.2989 86.448 34.6829 86.736C35.0669 87.024 35.5389 87.168 36.0989 87.168C36.6109 87.168 37.0029 87.072 37.2749 86.88C37.5629 86.672 37.7069 86.408 37.7069 86.088C37.7069 85.704 37.5069 85.424 37.1069 85.248C36.7069 85.056 36.0589 84.848 35.1629 84.624C34.2029 84.4 33.4029 84.168 32.7629 83.928C32.1229 83.672 31.5709 83.28 31.1069 82.752C30.6429 82.208 30.4109 81.48 30.4109 80.568C30.4109 79.8 30.6189 79.104 31.0349 78.48C31.4669 77.84 32.0909 77.336 32.9069 76.968C33.7389 76.6 34.7229 76.416 35.8589 76.416C37.5389 76.416 38.8589 76.832 39.8189 77.664C40.7949 78.496 41.3549 79.6 41.4989 80.976H37.7069C37.6429 80.512 37.4349 80.144 37.0829 79.872C36.7469 79.6 36.2989 79.464 35.7389 79.464C35.2589 79.464 34.8909 79.56 34.6349 79.752C34.3789 79.928 34.2509 80.176 34.2509 80.496C34.2509 80.88 34.4509 81.168 34.8509 81.36C35.2669 81.552 35.9069 81.744 36.7709 81.936C37.7629 82.192 38.5709 82.448 39.1949 82.704C39.8189 82.944 40.3629 83.344 40.8269 83.904C41.3069 84.448 41.5549 85.184 41.5709 86.112C41.5709 86.896 41.3469 87.6 40.8989 88.224C40.4669 88.832 39.8349 89.312 39.0029 89.664C38.1869 90.016 37.2349 90.192 36.1469 90.192ZM57.1357 90.168C55.5517 90.168 54.0957 89.8 52.7677 89.064C51.4557 88.328 50.4077 87.304 49.6237 85.992C48.8557 84.664 48.4717 83.176 48.4717 81.528C48.4717 79.88 48.8557 78.4 49.6237 77.088C50.4077 75.776 51.4557 74.752 52.7677 74.016C54.0957 73.28 55.5517 72.912 57.1357 72.912C58.7197 72.912 60.1677 73.28 61.4797 74.016C62.8077 74.752 63.8477 75.776 64.5997 77.088C65.3677 78.4 65.7517 79.88 65.7517 81.528C65.7517 83.176 65.3677 84.664 64.5997 85.992C63.8317 87.304 62.7917 88.328 61.4797 89.064C60.1677 89.8 58.7197 90.168 57.1357 90.168ZM57.1357 86.424C58.4797 86.424 59.5517 85.976 60.3517 85.08C61.1677 84.184 61.5757 83 61.5757 81.528C61.5757 80.04 61.1677 78.856 60.3517 77.976C59.5517 77.08 58.4797 76.632 57.1357 76.632C55.7757 76.632 54.6877 77.072 53.8717 77.952C53.0717 78.832 52.6717 80.024 52.6717 81.528C52.6717 83.016 53.0717 84.208 53.8717 85.104C54.6877 85.984 55.7757 86.424 57.1357 86.424ZM72.1389 78.504C72.5389 77.88 73.0909 77.376 73.7949 76.992C74.4989 76.608 75.3229 76.416 76.2669 76.416C77.3709 76.416 78.3709 76.696 79.2669 77.256C80.1629 77.816 80.8669 78.616 81.3789 79.656C81.9069 80.696 82.1709 81.904 82.1709 83.28C82.1709 84.656 81.9069 85.872 81.3789 86.928C80.8669 87.968 80.1629 88.776 79.2669 89.352C78.3709 89.912 77.3709 90.192 76.2669 90.192C75.3389 90.192 74.5149 90 73.7949 89.616C73.0909 89.232 72.5389 88.736 72.1389 88.128V96.384H68.0349V76.608H72.1389V78.504ZM77.9949 83.28C77.9949 82.256 77.7069 81.456 77.1309 80.88C76.5709 80.288 75.8749 79.992 75.0429 79.992C74.2269 79.992 73.5309 80.288 72.9549 80.88C72.3949 81.472 72.1149 82.28 72.1149 83.304C72.1149 84.328 72.3949 85.136 72.9549 85.728C73.5309 86.32 74.2269 86.616 75.0429 86.616C75.8589 86.616 76.5549 86.32 77.1309 85.728C77.7069 85.12 77.9949 84.304 77.9949 83.28ZM96.9479 83.088C96.9479 83.472 96.9239 83.872 96.8759 84.288H87.5879C87.6519 85.12 87.9159 85.76 88.3799 86.208C88.8599 86.64 89.4439 86.856 90.1319 86.856C91.1559 86.856 91.8679 86.424 92.2679 85.56H96.6359C96.4119 86.44 96.0039 87.232 95.4119 87.936C94.8359 88.64 94.1079 89.192 93.2279 89.592C92.3479 89.992 91.3639 90.192 90.2759 90.192C88.9639 90.192 87.7959 89.912 86.7719 89.352C85.7479 88.792 84.9479 87.992 84.3719 86.952C83.7959 85.912 83.5079 84.696 83.5079 83.304C83.5079 81.912 83.7879 80.696 84.3479 79.656C84.9239 78.616 85.7239 77.816 86.7479 77.256C87.7719 76.696 88.9479 76.416 90.2759 76.416C91.5719 76.416 92.7239 76.688 93.7319 77.232C94.7399 77.776 95.5239 78.552 96.0839 79.56C96.6599 80.568 96.9479 81.744 96.9479 83.088ZM92.7479 82.008C92.7479 81.304 92.5079 80.744 92.0279 80.328C91.5479 79.912 90.9479 79.704 90.2279 79.704C89.5399 79.704 88.9559 79.904 88.4759 80.304C88.0119 80.704 87.7239 81.272 87.6119 82.008H92.7479ZM103.217 78.84C103.697 78.104 104.297 77.528 105.017 77.112C105.737 76.68 106.537 76.464 107.417 76.464V80.808H106.289C105.265 80.808 104.497 81.032 103.985 81.48C103.473 81.912 103.217 82.68 103.217 83.784V90H99.113V76.608H103.217V78.84ZM108.563 83.28C108.563 81.904 108.819 80.696 109.331 79.656C109.859 78.616 110.571 77.816 111.467 77.256C112.363 76.696 113.363 76.416 114.467 76.416C115.411 76.416 116.235 76.608 116.939 76.992C117.659 77.376 118.211 77.88 118.595 78.504V76.608H122.699V90H118.595V88.104C118.195 88.728 117.635 89.232 116.915 89.616C116.211 90 115.387 90.192 114.443 90.192C113.355 90.192 112.363 89.912 111.467 89.352C110.571 88.776 109.859 87.968 109.331 86.928C108.819 85.872 108.563 84.656 108.563 83.28ZM118.595 83.304C118.595 82.28 118.307 81.472 117.731 80.88C117.171 80.288 116.483 79.992 115.667 79.992C114.851 79.992 114.155 80.288 113.579 80.88C113.019 81.456 112.739 82.256 112.739 83.28C112.739 84.304 113.019 85.12 113.579 85.728C114.155 86.32 114.851 86.616 115.667 86.616C116.483 86.616 117.171 86.32 117.731 85.728C118.307 85.136 118.595 84.328 118.595 83.304ZM124.852 83.28C124.852 81.904 125.108 80.696 125.62 79.656C126.148 78.616 126.86 77.816 127.756 77.256C128.652 76.696 129.652 76.416 130.756 76.416C131.636 76.416 132.436 76.6 133.156 76.968C133.892 77.336 134.468 77.832 134.884 78.456V72.24H138.988V90H134.884V88.08C134.5 88.72 133.948 89.232 133.228 89.616C132.524 90 131.7 90.192 130.756 90.192C129.652 90.192 128.652 89.912 127.756 89.352C126.86 88.776 126.148 87.968 125.62 86.928C125.108 85.872 124.852 84.656 124.852 83.28ZM134.884 83.304C134.884 82.28 134.596 81.472 134.02 80.88C133.46 80.288 132.772 79.992 131.956 79.992C131.14 79.992 130.444 80.288 129.868 80.88C129.308 81.456 129.028 82.256 129.028 83.28C129.028 84.304 129.308 85.12 129.868 85.728C130.444 86.32 131.14 86.616 131.956 86.616C132.772 86.616 133.46 86.32 134.02 85.728C134.596 85.136 134.884 84.328 134.884 83.304ZM148.053 90.192C146.741 90.192 145.557 89.912 144.501 89.352C143.461 88.792 142.637 87.992 142.029 86.952C141.437 85.912 141.141 84.696 141.141 83.304C141.141 81.928 141.445 80.72 142.053 79.68C142.661 78.624 143.493 77.816 144.549 77.256C145.605 76.696 146.789 76.416 148.101 76.416C149.413 76.416 150.597 76.696 151.653 77.256C152.709 77.816 153.541 78.624 154.149 79.68C154.757 80.72 155.061 81.928 155.061 83.304C155.061 84.68 154.749 85.896 154.125 86.952C153.517 87.992 152.677 88.792 151.605 89.352C150.549 89.912 149.365 90.192 148.053 90.192ZM148.053 86.64C148.837 86.64 149.501 86.352 150.045 85.776C150.605 85.2 150.885 84.376 150.885 83.304C150.885 82.232 150.613 81.408 150.069 80.832C149.541 80.256 148.885 79.968 148.101 79.968C147.301 79.968 146.637 80.256 146.109 80.832C145.581 81.392 145.317 82.216 145.317 83.304C145.317 84.376 145.573 85.2 146.085 85.776C146.613 86.352 147.269 86.64 148.053 86.64ZM161.342 78.84C161.822 78.104 162.422 77.528 163.142 77.112C163.862 76.68 164.662 76.464 165.542 76.464V80.808H164.414C163.39 80.808 162.622 81.032 162.11 81.48C161.598 81.912 161.342 82.68 161.342 83.784V90H157.238V76.608H161.342V78.84ZM180.128 83.088C180.128 83.472 180.104 83.872 180.056 84.288H170.768C170.832 85.12 171.096 85.76 171.56 86.208C172.04 86.64 172.624 86.856 173.312 86.856C174.336 86.856 175.048 86.424 175.448 85.56H179.816C179.592 86.44 179.184 87.232 178.592 87.936C178.016 88.64 177.288 89.192 176.408 89.592C175.528 89.992 174.544 90.192 173.456 90.192C172.144 90.192 170.976 89.912 169.952 89.352C168.928 88.792 168.128 87.992 167.552 86.952C166.976 85.912 166.688 84.696 166.688 83.304C166.688 81.912 166.968 80.696 167.528 79.656C168.104 78.616 168.904 77.816 169.928 77.256C170.952 76.696 172.128 76.416 173.456 76.416C174.752 76.416 175.904 76.688 176.912 77.232C177.92 77.776 178.704 78.552 179.264 79.56C179.84 80.568 180.128 81.744 180.128 83.088ZM175.928 82.008C175.928 81.304 175.688 80.744 175.208 80.328C174.728 79.912 174.128 79.704 173.408 79.704C172.72 79.704 172.136 79.904 171.656 80.304C171.192 80.704 170.904 81.272 170.792 82.008H175.928ZM187.741 90.192C186.573 90.192 185.533 89.992 184.621 89.592C183.709 89.192 182.989 88.648 182.461 87.96C181.933 87.256 181.637 86.472 181.573 85.608H185.629C185.677 86.072 185.893 86.448 186.277 86.736C186.661 87.024 187.133 87.168 187.693 87.168C188.205 87.168 188.597 87.072 188.869 86.88C189.157 86.672 189.301 86.408 189.301 86.088C189.301 85.704 189.101 85.424 188.701 85.248C188.301 85.056 187.653 84.848 186.757 84.624C185.797 84.4 184.997 84.168 184.357 83.928C183.717 83.672 183.165 83.28 182.701 82.752C182.237 82.208 182.005 81.48 182.005 80.568C182.005 79.8 182.213 79.104 182.629 78.48C183.061 77.84 183.685 77.336 184.501 76.968C185.333 76.6 186.317 76.416 187.453 76.416C189.133 76.416 190.453 76.832 191.413 77.664C192.389 78.496 192.949 79.6 193.093 80.976H189.301C189.237 80.512 189.029 80.144 188.677 79.872C188.341 79.6 187.893 79.464 187.333 79.464C186.853 79.464 186.485 79.56 186.229 79.752C185.973 79.928 185.845 80.176 185.845 80.496C185.845 80.88 186.045 81.168 186.445 81.36C186.861 81.552 187.501 81.744 188.365 81.936C189.357 82.192 190.165 82.448 190.789 82.704C191.413 82.944 191.957 83.344 192.421 83.904C192.901 84.448 193.149 85.184 193.165 86.112C193.165 86.896 192.941 87.6 192.493 88.224C192.061 88.832 191.429 89.312 190.597 89.664C189.781 90.016 188.829 90.192 187.741 90.192ZM213.385 83.088C213.385 83.472 213.361 83.872 213.313 84.288H204.025C204.089 85.12 204.353 85.76 204.817 86.208C205.297 86.64 205.881 86.856 206.569 86.856C207.593 86.856 208.305 86.424 208.705 85.56H213.073C212.849 86.44 212.441 87.232 211.849 87.936C211.273 88.64 210.545 89.192 209.665 89.592C208.785 89.992 207.801 90.192 206.713 90.192C205.401 90.192 204.233 89.912 203.209 89.352C202.185 88.792 201.385 87.992 200.809 86.952C200.233 85.912 199.945 84.696 199.945 83.304C199.945 81.912 200.225 80.696 200.785 79.656C201.361 78.616 202.161 77.816 203.185 77.256C204.209 76.696 205.385 76.416 206.713 76.416C208.009 76.416 209.161 76.688 210.169 77.232C211.177 77.776 211.961 78.552 212.521 79.56C213.097 80.568 213.385 81.744 213.385 83.088ZM209.185 82.008C209.185 81.304 208.945 80.744 208.465 80.328C207.985 79.912 207.385 79.704 206.665 79.704C205.977 79.704 205.393 79.904 204.913 80.304C204.449 80.704 204.161 81.272 204.049 82.008H209.185ZM232.639 76.464C234.303 76.464 235.623 76.968 236.599 77.976C237.591 78.984 238.087 80.384 238.087 82.176V90H234.007V82.728C234.007 81.864 233.775 81.2 233.311 80.736C232.863 80.256 232.239 80.016 231.439 80.016C230.639 80.016 230.007 80.256 229.543 80.736C229.095 81.2 228.871 81.864 228.871 82.728V90H224.791V82.728C224.791 81.864 224.559 81.2 224.095 80.736C223.647 80.256 223.023 80.016 222.223 80.016C221.423 80.016 220.791 80.256 220.327 80.736C219.879 81.2 219.655 81.864 219.655 82.728V90H215.551V76.608H219.655V78.288C220.071 77.728 220.615 77.288 221.287 76.968C221.959 76.632 222.719 76.464 223.567 76.464C224.575 76.464 225.471 76.68 226.255 77.112C227.055 77.544 227.679 78.16 228.127 78.96C228.591 78.224 229.223 77.624 230.023 77.16C230.823 76.696 231.695 76.464 232.639 76.464ZM245.061 78.504C245.461 77.88 246.013 77.376 246.717 76.992C247.421 76.608 248.245 76.416 249.189 76.416C250.293 76.416 251.293 76.696 252.189 77.256C253.085 77.816 253.789 78.616 254.301 79.656C254.829 80.696 255.093 81.904 255.093 83.28C255.093 84.656 254.829 85.872 254.301 86.928C253.789 87.968 253.085 88.776 252.189 89.352C251.293 89.912 250.293 90.192 249.189 90.192C248.261 90.192 247.437 90 246.717 89.616C246.013 89.232 245.461 88.736 245.061 88.128V96.384H240.957V76.608H245.061V78.504ZM250.917 83.28C250.917 82.256 250.629 81.456 250.053 80.88C249.493 80.288 248.797 79.992 247.965 79.992C247.149 79.992 246.453 80.288 245.877 80.88C245.317 81.472 245.037 82.28 245.037 83.304C245.037 84.328 245.317 85.136 245.877 85.728C246.453 86.32 247.149 86.616 247.965 86.616C248.781 86.616 249.477 86.32 250.053 85.728C250.629 85.12 250.917 84.304 250.917 83.28ZM256.43 83.28C256.43 81.904 256.686 80.696 257.198 79.656C257.726 78.616 258.438 77.816 259.334 77.256C260.23 76.696 261.23 76.416 262.334 76.416C263.278 76.416 264.102 76.608 264.806 76.992C265.526 77.376 266.078 77.88 266.462 78.504V76.608H270.566V90H266.462V88.104C266.062 88.728 265.502 89.232 264.782 89.616C264.078 90 263.254 90.192 262.31 90.192C261.222 90.192 260.23 89.912 259.334 89.352C258.438 88.776 257.726 87.968 257.198 86.928C256.686 85.872 256.43 84.656 256.43 83.28ZM266.462 83.304C266.462 82.28 266.174 81.472 265.598 80.88C265.038 80.288 264.35 79.992 263.534 79.992C262.718 79.992 262.022 80.288 261.446 80.88C260.886 81.456 260.606 82.256 260.606 83.28C260.606 84.304 260.886 85.12 261.446 85.728C262.022 86.32 262.718 86.616 263.534 86.616C264.35 86.616 265.038 86.32 265.598 85.728C266.174 85.136 266.462 84.328 266.462 83.304ZM272.719 83.328C272.719 82 272.991 80.816 273.535 79.776C274.095 78.736 274.839 77.928 275.767 77.352C276.711 76.76 277.735 76.464 278.839 76.464C279.687 76.464 280.447 76.616 281.119 76.92C281.791 77.208 282.335 77.616 282.751 78.144V76.608H286.855V96.384H282.751V88.32C282.287 88.88 281.719 89.328 281.047 89.664C280.391 90 279.639 90.168 278.791 90.168C277.703 90.168 276.695 89.88 275.767 89.304C274.839 88.728 274.095 87.92 273.535 86.88C272.991 85.84 272.719 84.656 272.719 83.328ZM282.751 83.304C282.751 82.584 282.607 81.984 282.319 81.504C282.047 81.008 281.687 80.64 281.239 80.4C280.791 80.144 280.319 80.016 279.823 80.016C279.343 80.016 278.879 80.144 278.431 80.4C277.983 80.64 277.615 81.008 277.327 81.504C277.039 82 276.895 82.608 276.895 83.328C276.895 84.048 277.039 84.656 277.327 85.152C277.615 85.632 277.983 86 278.431 86.256C278.879 86.496 279.343 86.616 279.823 86.616C280.303 86.616 280.767 86.496 281.215 86.256C281.679 86 282.047 85.624 282.319 85.128C282.607 84.632 282.751 84.024 282.751 83.304ZM303.048 76.608V90H298.944V88.176C298.528 88.768 297.96 89.248 297.24 89.616C296.536 89.968 295.752 90.144 294.888 90.144C293.864 90.144 292.96 89.92 292.176 89.472C291.392 89.008 290.784 88.344 290.352 87.48C289.92 86.616 289.704 85.6 289.704 84.432V76.608H293.784V83.88C293.784 84.776 294.016 85.472 294.48 85.968C294.944 86.464 295.568 86.712 296.352 86.712C297.152 86.712 297.784 86.464 298.248 85.968C298.712 85.472 298.944 84.776 298.944 83.88V76.608H303.048ZM318.62 83.088C318.62 83.472 318.596 83.872 318.548 84.288H309.26C309.324 85.12 309.588 85.76 310.052 86.208C310.532 86.64 311.116 86.856 311.804 86.856C312.828 86.856 313.54 86.424 313.94 85.56H318.308C318.084 86.44 317.676 87.232 317.084 87.936C316.508 88.64 315.78 89.192 314.9 89.592C314.02 89.992 313.036 90.192 311.948 90.192C310.636 90.192 309.468 89.912 308.444 89.352C307.42 88.792 306.62 87.992 306.044 86.952C305.468 85.912 305.18 84.696 305.18 83.304C305.18 81.912 305.46 80.696 306.02 79.656C306.596 78.616 307.396 77.816 308.42 77.256C309.444 76.696 310.62 76.416 311.948 76.416C313.244 76.416 314.396 76.688 315.404 77.232C316.412 77.776 317.196 78.552 317.756 79.56C318.332 80.568 318.62 81.744 318.62 83.088ZM314.42 82.008C314.42 81.304 314.18 80.744 313.7 80.328C313.22 79.912 312.62 79.704 311.9 79.704C311.212 79.704 310.628 79.904 310.148 80.304C309.684 80.704 309.396 81.272 309.284 82.008H314.42ZM328.249 86.52V90H326.161C324.673 90 323.513 89.64 322.681 88.92C321.849 88.184 321.433 86.992 321.433 85.344V80.016H319.801V76.608H321.433V73.344H325.537V76.608H328.225V80.016H325.537V85.392C325.537 85.792 325.633 86.08 325.825 86.256C326.017 86.432 326.337 86.52 326.785 86.52H328.249ZM329.719 83.28C329.719 81.904 329.975 80.696 330.487 79.656C331.015 78.616 331.727 77.816 332.623 77.256C333.519 76.696 334.519 76.416 335.623 76.416C336.567 76.416 337.391 76.608 338.095 76.992C338.815 77.376 339.367 77.88 339.751 78.504V76.608H343.855V90H339.751V88.104C339.351 88.728 338.791 89.232 338.071 89.616C337.367 90 336.543 90.192 335.599 90.192C334.511 90.192 333.519 89.912 332.623 89.352C331.727 88.776 331.015 87.968 330.487 86.928C329.975 85.872 329.719 84.656 329.719 83.28ZM339.751 83.304C339.751 82.28 339.463 81.472 338.887 80.88C338.327 80.288 337.639 79.992 336.823 79.992C336.007 79.992 335.311 80.288 334.735 80.88C334.175 81.456 333.895 82.256 333.895 83.28C333.895 84.304 334.175 85.12 334.735 85.728C335.311 86.32 336.007 86.616 336.823 86.616C337.639 86.616 338.327 86.32 338.887 85.728C339.463 85.136 339.751 84.328 339.751 83.304ZM354.984 76.464C356.552 76.464 357.8 76.976 358.728 78C359.672 79.008 360.144 80.4 360.144 82.176V90H356.064V82.728C356.064 81.832 355.832 81.136 355.368 80.64C354.904 80.144 354.28 79.896 353.496 79.896C352.712 79.896 352.088 80.144 351.624 80.64C351.16 81.136 350.928 81.832 350.928 82.728V90H346.824V76.608H350.928V78.384C351.344 77.792 351.904 77.328 352.608 76.992C353.312 76.64 354.104 76.464 354.984 76.464ZM23.6434 122.52V126H21.5554C20.0674 126 18.9074 125.64 18.0754 124.92C17.2434 124.184 16.8274 122.992 16.8274 121.344V116.016H15.1954V112.608H16.8274V109.344H20.9314V112.608H23.6194V116.016H20.9314V121.392C20.9314 121.792 21.0274 122.08 21.2194 122.256C21.4114 122.432 21.7314 122.52 22.1794 122.52H23.6434ZM39.1534 112.608V126H35.0494V124.176C34.6334 124.768 34.0654 125.248 33.3454 125.616C32.6414 125.968 31.8574 126.144 30.9934 126.144C29.9694 126.144 29.0654 125.92 28.2814 125.472C27.4974 125.008 26.8894 124.344 26.4574 123.48C26.0254 122.616 25.8094 121.6 25.8094 120.432V112.608H29.8894V119.88C29.8894 120.776 30.1214 121.472 30.5854 121.968C31.0494 122.464 31.6734 122.712 32.4574 122.712C33.2574 122.712 33.8894 122.464 34.3534 121.968C34.8174 121.472 35.0494 120.776 35.0494 119.88V112.608H39.1534ZM51.2912 114.504C51.6912 113.88 52.2432 113.376 52.9472 112.992C53.6512 112.608 54.4752 112.416 55.4192 112.416C56.5232 112.416 57.5232 112.696 58.4192 113.256C59.3152 113.816 60.0192 114.616 60.5312 115.656C61.0592 116.696 61.3232 117.904 61.3232 119.28C61.3232 120.656 61.0592 121.872 60.5312 122.928C60.0192 123.968 59.3152 124.776 58.4192 125.352C57.5232 125.912 56.5232 126.192 55.4192 126.192C54.4912 126.192 53.6672 126 52.9472 125.616C52.2432 125.232 51.6912 124.736 51.2912 124.128V132.384H47.1872V112.608H51.2912V114.504ZM57.1472 119.28C57.1472 118.256 56.8592 117.456 56.2832 116.88C55.7232 116.288 55.0272 115.992 54.1952 115.992C53.3792 115.992 52.6832 116.288 52.1072 116.88C51.5472 117.472 51.2672 118.28 51.2672 119.304C51.2672 120.328 51.5472 121.136 52.1072 121.728C52.6832 122.32 53.3792 122.616 54.1952 122.616C55.0112 122.616 55.7072 122.32 56.2832 121.728C56.8592 121.12 57.1472 120.304 57.1472 119.28ZM76.1003 119.088C76.1003 119.472 76.0763 119.872 76.0283 120.288H66.7403C66.8043 121.12 67.0683 121.76 67.5323 122.208C68.0123 122.64 68.5963 122.856 69.2843 122.856C70.3083 122.856 71.0203 122.424 71.4203 121.56H75.7883C75.5643 122.44 75.1563 123.232 74.5643 123.936C73.9883 124.64 73.2603 125.192 72.3803 125.592C71.5003 125.992 70.5163 126.192 69.4283 126.192C68.1163 126.192 66.9483 125.912 65.9243 125.352C64.9003 124.792 64.1003 123.992 63.5243 122.952C62.9483 121.912 62.6603 120.696 62.6603 119.304C62.6603 117.912 62.9403 116.696 63.5003 115.656C64.0763 114.616 64.8763 113.816 65.9003 113.256C66.9243 112.696 68.1003 112.416 69.4283 112.416C70.7243 112.416 71.8763 112.688 72.8843 113.232C73.8923 113.776 74.6763 114.552 75.2363 115.56C75.8123 116.568 76.1003 117.744 76.1003 119.088ZM71.9003 118.008C71.9003 117.304 71.6603 116.744 71.1803 116.328C70.7003 115.912 70.1003 115.704 69.3803 115.704C68.6923 115.704 68.1083 115.904 67.6283 116.304C67.1643 116.704 66.8763 117.272 66.7643 118.008H71.9003ZM77.4493 119.28C77.4493 117.904 77.7053 116.696 78.2173 115.656C78.7453 114.616 79.4573 113.816 80.3533 113.256C81.2493 112.696 82.2493 112.416 83.3533 112.416C84.2333 112.416 85.0333 112.6 85.7533 112.968C86.4893 113.336 87.0653 113.832 87.4813 114.456V108.24H91.5853V126H87.4813V124.08C87.0973 124.72 86.5453 125.232 85.8253 125.616C85.1213 126 84.2973 126.192 83.3533 126.192C82.2493 126.192 81.2493 125.912 80.3533 125.352C79.4573 124.776 78.7453 123.968 78.2173 122.928C77.7053 121.872 77.4493 120.656 77.4493 119.28ZM87.4813 119.304C87.4813 118.28 87.1933 117.472 86.6173 116.88C86.0573 116.288 85.3693 115.992 84.5533 115.992C83.7373 115.992 83.0413 116.288 82.4653 116.88C81.9053 117.456 81.6253 118.256 81.6253 119.28C81.6253 120.304 81.9053 121.12 82.4653 121.728C83.0413 122.32 83.7373 122.616 84.5533 122.616C85.3693 122.616 86.0573 122.32 86.6173 121.728C87.1933 121.136 87.4813 120.328 87.4813 119.304ZM96.6184 111.216C95.8984 111.216 95.3064 111.008 94.8424 110.592C94.3944 110.16 94.1704 109.632 94.1704 109.008C94.1704 108.368 94.3944 107.84 94.8424 107.424C95.3064 106.992 95.8984 106.776 96.6184 106.776C97.3224 106.776 97.8984 106.992 98.3464 107.424C98.8104 107.84 99.0424 108.368 99.0424 109.008C99.0424 109.632 98.8104 110.16 98.3464 110.592C97.8984 111.008 97.3224 111.216 96.6184 111.216ZM98.6584 112.608V126H94.5544V112.608H98.6584ZM100.817 119.28C100.817 117.904 101.073 116.696 101.585 115.656C102.113 114.616 102.825 113.816 103.721 113.256C104.617 112.696 105.617 112.416 106.721 112.416C107.601 112.416 108.401 112.6 109.121 112.968C109.857 113.336 110.433 113.832 110.849 114.456V108.24H114.953V126H110.849V124.08C110.465 124.72 109.913 125.232 109.193 125.616C108.489 126 107.665 126.192 106.721 126.192C105.617 126.192 104.617 125.912 103.721 125.352C102.825 124.776 102.113 123.968 101.585 122.928C101.073 121.872 100.817 120.656 100.817 119.28ZM110.849 119.304C110.849 118.28 110.561 117.472 109.985 116.88C109.425 116.288 108.737 115.992 107.921 115.992C107.105 115.992 106.409 116.288 105.833 116.88C105.273 117.456 104.993 118.256 104.993 119.28C104.993 120.304 105.273 121.12 105.833 121.728C106.409 122.32 107.105 122.616 107.921 122.616C108.737 122.616 109.425 122.32 109.985 121.728C110.561 121.136 110.849 120.328 110.849 119.304ZM124.018 126.192C122.706 126.192 121.522 125.912 120.466 125.352C119.426 124.792 118.602 123.992 117.994 122.952C117.402 121.912 117.106 120.696 117.106 119.304C117.106 117.928 117.41 116.72 118.018 115.68C118.626 114.624 119.458 113.816 120.514 113.256C121.57 112.696 122.754 112.416 124.066 112.416C125.378 112.416 126.562 112.696 127.618 113.256C128.674 113.816 129.506 114.624 130.114 115.68C130.722 116.72 131.026 117.928 131.026 119.304C131.026 120.68 130.714 121.896 130.09 122.952C129.482 123.992 128.642 124.792 127.57 125.352C126.514 125.912 125.33 126.192 124.018 126.192ZM124.018 122.64C124.802 122.64 125.466 122.352 126.01 121.776C126.57 121.2 126.85 120.376 126.85 119.304C126.85 118.232 126.578 117.408 126.034 116.832C125.506 116.256 124.85 115.968 124.066 115.968C123.266 115.968 122.602 116.256 122.074 116.832C121.546 117.392 121.282 118.216 121.282 119.304C121.282 120.376 121.538 121.2 122.05 121.776C122.578 122.352 123.234 122.64 124.018 122.64ZM137.473 119.304C137.473 117.912 137.753 116.696 138.313 115.656C138.889 114.616 139.681 113.816 140.689 113.256C141.713 112.696 142.881 112.416 144.193 112.416C145.873 112.416 147.273 112.856 148.393 113.736C149.529 114.616 150.273 115.856 150.625 117.456H146.257C145.889 116.432 145.177 115.92 144.121 115.92C143.369 115.92 142.769 116.216 142.321 116.808C141.873 117.384 141.649 118.216 141.649 119.304C141.649 120.392 141.873 121.232 142.321 121.824C142.769 122.4 143.369 122.688 144.121 122.688C145.177 122.688 145.889 122.176 146.257 121.152H150.625C150.273 122.72 149.529 123.952 148.393 124.848C147.257 125.744 145.857 126.192 144.193 126.192C142.881 126.192 141.713 125.912 140.689 125.352C139.681 124.792 138.889 123.992 138.313 122.952C137.753 121.912 137.473 120.696 137.473 119.304ZM166.044 112.608V126H161.94V124.176C161.524 124.768 160.956 125.248 160.236 125.616C159.532 125.968 158.748 126.144 157.884 126.144C156.86 126.144 155.956 125.92 155.172 125.472C154.388 125.008 153.78 124.344 153.348 123.48C152.916 122.616 152.7 121.6 152.7 120.432V112.608H156.78V119.88C156.78 120.776 157.012 121.472 157.476 121.968C157.94 122.464 158.564 122.712 159.348 122.712C160.148 122.712 160.78 122.464 161.244 121.968C161.708 121.472 161.94 120.776 161.94 119.88V112.608H166.044ZM171.056 111.216C170.336 111.216 169.744 111.008 169.28 110.592C168.832 110.16 168.608 109.632 168.608 109.008C168.608 108.368 168.832 107.84 169.28 107.424C169.744 106.992 170.336 106.776 171.056 106.776C171.76 106.776 172.336 106.992 172.784 107.424C173.248 107.84 173.48 108.368 173.48 109.008C173.48 109.632 173.248 110.16 172.784 110.592C172.336 111.008 171.76 111.216 171.056 111.216ZM173.096 112.608V126H168.992V112.608H173.096ZM175.254 119.28C175.254 117.904 175.51 116.696 176.022 115.656C176.55 114.616 177.262 113.816 178.158 113.256C179.054 112.696 180.054 112.416 181.158 112.416C182.038 112.416 182.838 112.6 183.558 112.968C184.294 113.336 184.87 113.832 185.286 114.456V108.24H189.39V126H185.286V124.08C184.902 124.72 184.35 125.232 183.63 125.616C182.926 126 182.102 126.192 181.158 126.192C180.054 126.192 179.054 125.912 178.158 125.352C177.262 124.776 176.55 123.968 176.022 122.928C175.51 121.872 175.254 120.656 175.254 119.28ZM185.286 119.304C185.286 118.28 184.998 117.472 184.422 116.88C183.862 116.288 183.174 115.992 182.358 115.992C181.542 115.992 180.846 116.288 180.27 116.88C179.71 117.456 179.43 118.256 179.43 119.28C179.43 120.304 179.71 121.12 180.27 121.728C180.846 122.32 181.542 122.616 182.358 122.616C183.174 122.616 183.862 122.32 184.422 121.728C184.998 121.136 185.286 120.328 185.286 119.304ZM191.543 119.28C191.543 117.904 191.799 116.696 192.311 115.656C192.839 114.616 193.551 113.816 194.447 113.256C195.343 112.696 196.343 112.416 197.447 112.416C198.391 112.416 199.215 112.608 199.919 112.992C200.639 113.376 201.191 113.88 201.575 114.504V112.608H205.679V126H201.575V124.104C201.175 124.728 200.615 125.232 199.895 125.616C199.191 126 198.367 126.192 197.423 126.192C196.335 126.192 195.343 125.912 194.447 125.352C193.551 124.776 192.839 123.968 192.311 122.928C191.799 121.872 191.543 120.656 191.543 119.28ZM201.575 119.304C201.575 118.28 201.287 117.472 200.711 116.88C200.151 116.288 199.463 115.992 198.647 115.992C197.831 115.992 197.135 116.288 196.559 116.88C195.999 117.456 195.719 118.256 195.719 119.28C195.719 120.304 195.999 121.12 196.559 121.728C197.135 122.32 197.831 122.616 198.647 122.616C199.463 122.616 200.151 122.32 200.711 121.728C201.287 121.136 201.575 120.328 201.575 119.304ZM207.832 119.28C207.832 117.904 208.088 116.696 208.6 115.656C209.128 114.616 209.84 113.816 210.736 113.256C211.632 112.696 212.632 112.416 213.736 112.416C214.616 112.416 215.416 112.6 216.136 112.968C216.872 113.336 217.448 113.832 217.864 114.456V108.24H221.968V126H217.864V124.08C217.48 124.72 216.928 125.232 216.208 125.616C215.504 126 214.68 126.192 213.736 126.192C212.632 126.192 211.632 125.912 210.736 125.352C209.84 124.776 209.128 123.968 208.6 122.928C208.088 121.872 207.832 120.656 207.832 119.28ZM217.864 119.304C217.864 118.28 217.576 117.472 217 116.88C216.44 116.288 215.752 115.992 214.936 115.992C214.12 115.992 213.424 116.288 212.848 116.88C212.288 117.456 212.008 118.256 212.008 119.28C212.008 120.304 212.288 121.12 212.848 121.728C213.424 122.32 214.12 122.616 214.936 122.616C215.752 122.616 216.44 122.32 217 121.728C217.576 121.136 217.864 120.328 217.864 119.304ZM231.033 126.192C229.721 126.192 228.537 125.912 227.481 125.352C226.441 124.792 225.617 123.992 225.009 122.952C224.417 121.912 224.121 120.696 224.121 119.304C224.121 117.928 224.425 116.72 225.033 115.68C225.641 114.624 226.473 113.816 227.529 113.256C228.585 112.696 229.769 112.416 231.081 112.416C232.393 112.416 233.577 112.696 234.633 113.256C235.689 113.816 236.521 114.624 237.129 115.68C237.737 116.72 238.041 117.928 238.041 119.304C238.041 120.68 237.729 121.896 237.105 122.952C236.497 123.992 235.657 124.792 234.585 125.352C233.529 125.912 232.345 126.192 231.033 126.192ZM231.033 122.64C231.817 122.64 232.481 122.352 233.025 121.776C233.585 121.2 233.865 120.376 233.865 119.304C233.865 118.232 233.593 117.408 233.049 116.832C232.521 116.256 231.865 115.968 231.081 115.968C230.281 115.968 229.617 116.256 229.089 116.832C228.561 117.392 228.297 118.216 228.297 119.304C228.297 120.376 228.553 121.2 229.065 121.776C229.593 122.352 230.249 122.64 231.033 122.64ZM245.666 126.192C244.498 126.192 243.458 125.992 242.546 125.592C241.634 125.192 240.914 124.648 240.386 123.96C239.858 123.256 239.562 122.472 239.498 121.608H243.554C243.602 122.072 243.818 122.448 244.202 122.736C244.586 123.024 245.058 123.168 245.618 123.168C246.13 123.168 246.522 123.072 246.794 122.88C247.082 122.672 247.226 122.408 247.226 122.088C247.226 121.704 247.026 121.424 246.626 121.248C246.226 121.056 245.578 120.848 244.682 120.624C243.722 120.4 242.922 120.168 242.282 119.928C241.642 119.672 241.09 119.28 240.626 118.752C240.162 118.208 239.93 117.48 239.93 116.568C239.93 115.8 240.138 115.104 240.554 114.48C240.986 113.84 241.61 113.336 242.426 112.968C243.258 112.6 244.242 112.416 245.378 112.416C247.058 112.416 248.378 112.832 249.338 113.664C250.314 114.496 250.874 115.6 251.018 116.976H247.226C247.162 116.512 246.954 116.144 246.602 115.872C246.266 115.6 245.818 115.464 245.258 115.464C244.778 115.464 244.41 115.56 244.154 115.752C243.898 115.928 243.77 116.176 243.77 116.496C243.77 116.88 243.97 117.168 244.37 117.36C244.786 117.552 245.426 117.744 246.29 117.936C247.282 118.192 248.09 118.448 248.714 118.704C249.338 118.944 249.882 119.344 250.346 119.904C250.826 120.448 251.074 121.184 251.09 122.112C251.09 122.896 250.866 123.6 250.418 124.224C249.986 124.832 249.354 125.312 248.522 125.664C247.706 126.016 246.754 126.192 245.666 126.192ZM252.785 119.28C252.785 117.904 253.041 116.696 253.553 115.656C254.081 114.616 254.793 113.816 255.689 113.256C256.585 112.696 257.585 112.416 258.689 112.416C259.633 112.416 260.457 112.608 261.161 112.992C261.881 113.376 262.433 113.88 262.817 114.504V112.608H266.921V126H262.817V124.104C262.417 124.728 261.857 125.232 261.137 125.616C260.433 126 259.609 126.192 258.665 126.192C257.577 126.192 256.585 125.912 255.689 125.352C254.793 124.776 254.081 123.968 253.553 122.928C253.041 121.872 252.785 120.656 252.785 119.28ZM262.817 119.304C262.817 118.28 262.529 117.472 261.953 116.88C261.393 116.288 260.705 115.992 259.889 115.992C259.073 115.992 258.377 116.288 257.801 116.88C257.241 117.456 256.961 118.256 256.961 119.28C256.961 120.304 257.241 121.12 257.801 121.728C258.377 122.32 259.073 122.616 259.889 122.616C260.705 122.616 261.393 122.32 261.953 121.728C262.529 121.136 262.817 120.328 262.817 119.304ZM286.978 112.464C288.642 112.464 289.962 112.968 290.938 113.976C291.93 114.984 292.426 116.384 292.426 118.176V126H288.346V118.728C288.346 117.864 288.114 117.2 287.65 116.736C287.202 116.256 286.578 116.016 285.778 116.016C284.978 116.016 284.346 116.256 283.882 116.736C283.434 117.2 283.21 117.864 283.21 118.728V126H279.13V118.728C279.13 117.864 278.898 117.2 278.434 116.736C277.986 116.256 277.362 116.016 276.562 116.016C275.762 116.016 275.13 116.256 274.666 116.736C274.218 117.2 273.994 117.864 273.994 118.728V126H269.89V112.608H273.994V114.288C274.41 113.728 274.954 113.288 275.626 112.968C276.298 112.632 277.058 112.464 277.906 112.464C278.914 112.464 279.81 112.68 280.594 113.112C281.394 113.544 282.018 114.16 282.466 114.96C282.93 114.224 283.562 113.624 284.362 113.16C285.162 112.696 286.034 112.464 286.978 112.464ZM307.921 119.088C307.921 119.472 307.897 119.872 307.849 120.288H298.561C298.625 121.12 298.889 121.76 299.353 122.208C299.833 122.64 300.417 122.856 301.105 122.856C302.129 122.856 302.841 122.424 303.241 121.56H307.609C307.385 122.44 306.977 123.232 306.385 123.936C305.809 124.64 305.081 125.192 304.201 125.592C303.321 125.992 302.337 126.192 301.249 126.192C299.937 126.192 298.769 125.912 297.745 125.352C296.721 124.792 295.921 123.992 295.345 122.952C294.769 121.912 294.481 120.696 294.481 119.304C294.481 117.912 294.761 116.696 295.321 115.656C295.897 114.616 296.697 113.816 297.721 113.256C298.745 112.696 299.921 112.416 301.249 112.416C302.545 112.416 303.697 112.688 304.705 113.232C305.713 113.776 306.497 114.552 307.057 115.56C307.633 116.568 307.921 117.744 307.921 119.088ZM303.721 118.008C303.721 117.304 303.481 116.744 303.001 116.328C302.521 115.912 301.921 115.704 301.201 115.704C300.513 115.704 299.929 115.904 299.449 116.304C298.985 116.704 298.697 117.272 298.585 118.008H303.721ZM318.246 112.464C319.814 112.464 321.062 112.976 321.99 114C322.934 115.008 323.406 116.4 323.406 118.176V126H319.326V118.728C319.326 117.832 319.094 117.136 318.63 116.64C318.166 116.144 317.542 115.896 316.758 115.896C315.974 115.896 315.35 116.144 314.886 116.64C314.422 117.136 314.19 117.832 314.19 118.728V126H310.086V112.608H314.19V114.384C314.606 113.792 315.166 113.328 315.87 112.992C316.574 112.64 317.366 112.464 318.246 112.464ZM333.722 122.52V126H331.634C330.146 126 328.986 125.64 328.154 124.92C327.322 124.184 326.906 122.992 326.906 121.344V116.016H325.274V112.608H326.906V109.344H331.01V112.608H333.698V116.016H331.01V121.392C331.01 121.792 331.106 122.08 331.298 122.256C331.49 122.432 331.81 122.52 332.258 122.52H333.722ZM348.632 119.088C348.632 119.472 348.608 119.872 348.56 120.288H339.272C339.336 121.12 339.6 121.76 340.064 122.208C340.544 122.64 341.128 122.856 341.816 122.856C342.84 122.856 343.552 122.424 343.952 121.56H348.32C348.096 122.44 347.688 123.232 347.096 123.936C346.52 124.64 345.792 125.192 344.912 125.592C344.032 125.992 343.048 126.192 341.96 126.192C340.648 126.192 339.48 125.912 338.456 125.352C337.432 124.792 336.632 123.992 336.056 122.952C335.48 121.912 335.192 120.696 335.192 119.304C335.192 117.912 335.472 116.696 336.032 115.656C336.608 114.616 337.408 113.816 338.432 113.256C339.456 112.696 340.632 112.416 341.96 112.416C343.256 112.416 344.408 112.688 345.416 113.232C346.424 113.776 347.208 114.552 347.768 115.56C348.344 116.568 348.632 117.744 348.632 119.088ZM344.432 118.008C344.432 117.304 344.192 116.744 343.712 116.328C343.232 115.912 342.632 115.704 341.912 115.704C341.224 115.704 340.64 115.904 340.16 116.304C339.696 116.704 339.408 117.272 339.296 118.008H344.432Z" fill="#09868F"/>
<g clip-path="url(#clip0_2610_7905)">
<path d="M187.902 275.875L184.882 274.417L195.237 275.6C195.863 275.667 196.497 275.767 197.123 275.833C197.498 275.833 197.957 276.108 198.157 275.533C198.358 274.958 198.616 274.583 198.066 274.033C196.823 272.801 195.889 271.294 195.337 269.634C194.786 267.974 194.632 266.208 194.89 264.478C195.147 262.748 195.808 261.103 196.819 259.675C197.83 258.248 199.163 257.077 200.711 256.258C201.578 255.829 202.479 255.472 203.406 255.192C203.56 255.22 203.719 255.216 203.872 255.179C204.025 255.142 204.168 255.073 204.292 254.977C204.417 254.882 204.52 254.76 204.594 254.622C204.668 254.484 204.713 254.332 204.724 254.175C204.979 253.482 205.096 252.746 205.066 252.008C204.974 251.567 205.542 251.558 205.675 251.175C206.001 250.15 206.243 249.108 206.56 248.083C208.062 243.217 209.539 238.342 211.024 233.475L212.15 229.742C215.043 220.297 217.936 210.828 220.828 201.333C222.898 194.542 224.934 187.733 227.07 180.967C227.637 179.15 228.822 177.592 229.732 175.908C230.908 173.717 232.126 171.533 233.328 169.35C233.427 169.2 233.506 169.038 233.561 168.867C234.504 165.117 239.219 162.683 242.44 163.033C245.66 163.383 248.856 163.333 252.052 163.775C252.887 163.892 253.771 163.975 254.622 164.142C255.683 164.295 256.656 164.818 257.367 165.619C258.079 166.42 258.484 167.446 258.51 168.517C258.577 169.475 258.802 170.533 258.168 171.342C257.625 172.183 257.146 173.063 256.733 173.975C254.847 177.233 252.978 180.5 251.184 183.808C250.564 185.232 250.078 186.711 249.732 188.225C248.898 190.942 248.064 193.667 247.229 196.392C245.786 201.125 244.375 205.867 242.882 210.558C242.423 212.025 241.889 213.483 241.48 214.95C240.737 217.583 239.92 220.2 239.135 222.825C237.675 227.708 236.165 232.575 234.671 237.45C233.937 239.875 233.203 242.308 232.46 244.733C230.953 249.683 229.431 254.628 227.896 259.567C227.795 259.835 227.767 260.126 227.815 260.408C227.864 260.691 227.987 260.955 228.171 261.175C229.231 262.608 230.232 264.092 231.225 265.575C231.318 265.764 231.478 265.911 231.675 265.987C231.871 266.063 232.089 266.062 232.285 265.983C234.087 265.467 235.994 265.441 237.809 265.908C239.453 266.305 240.986 267.068 242.293 268.139C243.6 269.211 244.648 270.564 245.358 272.097C246.068 273.63 246.422 275.304 246.394 276.992C246.365 278.681 245.955 280.342 245.193 281.85C244.183 283.828 242.607 285.463 240.665 286.546C238.724 287.629 236.504 288.112 234.287 287.933C232.763 287.833 231.277 287.41 229.929 286.692C228.58 285.973 227.401 284.976 226.469 283.767C225.331 282.396 224.545 280.769 224.177 279.027C223.809 277.285 223.871 275.48 224.358 273.767C224.408 273.575 224.667 273.358 224.358 273.158C224.049 272.958 223.765 273.042 223.632 273.492C222.964 275.733 222.272 277.967 221.588 280.208C221.362 280.958 221.145 281.717 220.887 282.467C220.762 282.808 220.887 282.975 221.17 283.1C221.721 283.308 222.255 283.55 222.839 283.775C222.973 283.833 223.181 283.85 223.248 283.958C223.349 284.136 223.386 284.342 223.355 284.543C223.323 284.745 223.223 284.929 223.073 285.067C222.597 285.425 223.073 286.458 222.147 286.375C220.478 286.217 218.809 286.017 217.14 285.85C215.471 285.683 213.702 285.475 211.992 285.25C210.406 285.155 208.844 284.818 207.361 284.25C204.065 282.767 200.686 281.367 197.415 279.883C195.746 279.158 194.16 278.4 192.525 277.675C191.023 276.98 189.479 276.378 187.902 275.875ZM256.875 169.592C256.875 168.142 256.641 166.908 255.381 166.15C254.736 165.841 254.035 165.666 253.32 165.633C249.833 165.133 246.303 165 242.798 164.742C241.039 164.528 239.262 164.954 237.792 165.942C236.763 166.526 235.954 167.43 235.489 168.517C234.947 170.233 233.82 171.592 233.086 173.208C232.644 174.25 231.984 175.2 231.459 176.208C230.19 178.667 228.563 180.942 227.904 183.708C227.495 185.467 226.886 187.175 226.36 188.908C225.952 190.242 225.943 190.25 227.32 190.5C229.289 190.867 231.267 191.217 233.236 191.575L240.17 192.842C242.022 193.175 243.875 193.492 245.727 193.833C246.111 193.908 246.328 193.833 246.445 193.45C246.879 191.958 247.346 190.467 247.788 188.983C248.289 187.317 248.773 185.708 249.282 184.075C249.392 183.711 249.541 183.359 249.724 183.025L256.399 171.133C256.708 170.6 257.109 170.108 256.875 169.592ZM233.553 235.425C233.553 235.008 233.153 235.092 232.936 235.025C229.431 234.014 225.927 233.017 222.422 232.033C219.777 231.275 217.124 230.533 214.487 229.75C214.061 229.625 213.886 229.65 213.744 230.125C211.564 237.308 209.372 244.486 207.169 251.658C206.977 252.258 207.169 252.417 207.67 252.608C210.941 253.808 214.203 255.033 217.474 256.25L225.626 259.283C226.01 259.433 226.227 259.483 226.377 258.958C227.212 256.15 228.046 253.35 228.939 250.55C230.241 246.289 231.539 242.031 232.836 237.775C233.078 237 233.311 236.258 233.553 235.425ZM214.487 227.492C214.253 228.067 214.712 228.1 215.046 228.2L222.614 230.367C225.751 231.261 228.892 232.147 232.035 233.025C232.71 233.217 233.57 233.8 234.02 233.475C234.471 233.15 234.554 232.158 234.763 231.458C235.948 227.483 237.175 223.533 238.376 219.567C239.327 216.4 240.287 213.242 241.305 210.092C241.455 209.633 241.413 209.45 240.871 209.342C238.685 208.933 236.524 208.508 234.346 208.025L227.228 206.583C225.434 206.217 223.632 205.85 221.838 205.458C221.764 205.426 221.683 205.412 221.602 205.418C221.522 205.423 221.443 205.448 221.374 205.489C221.305 205.531 221.246 205.588 221.204 205.657C221.161 205.725 221.135 205.803 221.129 205.883C220.695 207.35 220.244 208.808 219.794 210.267C218.275 215.267 216.751 220.267 215.221 225.267C214.996 226.05 214.729 226.775 214.487 227.5V227.492ZM225.618 191.858C225.376 191.767 225.351 192.1 225.276 192.358C224.163 195.986 223.051 199.597 221.938 203.192C221.788 203.675 221.938 203.792 222.422 203.883C228.463 205.1 234.502 206.325 240.537 207.558C242.031 207.858 242.006 207.842 242.415 206.483C243.424 203.15 244.459 199.767 245.477 196.417C245.769 195.467 245.769 195.467 244.809 195.292L233.128 193.183L225.618 191.858ZM207.136 254.158C207.035 254.158 206.894 254.158 206.944 254.35C206.994 254.542 206.844 254.967 207.269 255.025C208.104 255.133 208.821 255.458 209.58 255.617C210.975 255.969 212.253 256.682 213.285 257.683C216.456 260.358 217.591 263.883 217.057 267.958C216.99 268.442 217.057 268.633 217.524 268.792C219.101 269.375 220.661 269.975 222.222 270.608C222.622 270.775 222.773 270.742 222.906 270.317C223.774 267.417 224.658 264.522 225.559 261.633C225.685 261.225 225.643 261.025 225.192 260.867C221.988 259.7 218.801 258.508 215.613 257.317L208.604 254.7L207.136 254.158ZM207.136 277.283C207.239 277.365 207.351 277.434 207.469 277.492C211.224 279.058 214.979 280.6 218.742 282.192C219.251 282.408 219.293 282.125 219.393 281.8C220.294 278.833 221.179 275.858 222.113 272.9C222.255 272.442 222.113 272.333 221.738 272.2C220.144 271.592 218.55 270.983 216.973 270.333C216.556 270.158 216.414 270.267 216.247 270.642C215.592 272.143 214.608 273.478 213.369 274.55C211.613 276.066 209.441 277.021 207.136 277.292V277.283ZM233.069 277.208C233.124 278.568 233.677 279.861 234.621 280.842C235.499 281.754 236.694 282.294 237.959 282.35C238.639 282.366 239.315 282.246 239.947 281.995C240.58 281.744 241.155 281.368 241.638 280.89C242.122 280.412 242.503 279.842 242.761 279.213C243.018 278.584 243.146 277.91 243.137 277.231C243.127 276.551 242.98 275.881 242.705 275.26C242.43 274.638 242.033 274.079 241.536 273.614C241.039 273.15 240.454 272.791 239.815 272.558C239.176 272.325 238.496 272.223 237.817 272.258C236.618 272.352 235.497 272.886 234.671 273.758C233.75 274.689 233.183 275.913 233.069 277.217V277.208ZM205.926 261.667C204.811 262.163 203.919 263.053 203.422 264.167C202.969 265.273 202.928 266.505 203.306 267.64C203.684 268.774 204.456 269.736 205.483 270.35C206.543 270.962 207.79 271.165 208.989 270.921C210.189 270.677 211.257 270.002 211.992 269.025C212.226 268.7 212.326 268.525 211.817 268.333C210.148 267.717 208.479 267.025 206.81 266.392C206.631 266.34 206.475 266.229 206.366 266.078C206.257 265.927 206.202 265.744 206.209 265.558C206.193 264.333 206.051 263.067 205.926 261.675V261.667ZM227.128 262.6C226.536 262.975 226.686 263.558 226.536 264.042C225.826 266.342 225.142 268.65 224.425 270.958C224.325 271.292 224.35 271.475 224.692 271.6C225.034 271.725 225.159 271.758 225.359 271.408C226.375 269.591 227.87 268.087 229.681 267.058C229.957 266.9 230.049 266.8 229.832 266.5C228.922 265.225 228.038 263.917 227.128 262.608V262.6ZM212.943 266.15C213.043 265.8 212.843 265.475 212.81 265.117C212.618 263.042 210.064 260.95 207.97 261.192C207.728 261.192 207.611 261.242 207.603 261.533C207.624 262.623 207.724 263.709 207.903 264.783C207.903 265.067 208.154 265.125 208.371 265.2C209.664 265.65 210.874 266.3 212.201 266.717C212.91 266.942 213.052 266.8 212.968 266.158L212.943 266.15Z" fill="#413F58"/>
<path d="M233.069 277.217C233.183 275.917 233.747 274.697 234.663 273.767C235.489 272.895 236.61 272.36 237.809 272.267C238.488 272.231 239.168 272.333 239.807 272.566C240.446 272.799 241.031 273.159 241.528 273.623C242.024 274.087 242.422 274.647 242.697 275.268C242.972 275.889 243.119 276.56 243.128 277.239C243.138 277.918 243.01 278.593 242.753 279.221C242.495 279.85 242.113 280.421 241.63 280.899C241.146 281.377 240.571 281.752 239.939 282.003C239.307 282.254 238.631 282.375 237.951 282.358C236.685 282.302 235.49 281.762 234.613 280.85C233.671 279.868 233.122 278.576 233.069 277.217Z" fill="#C9C9C9"/>
<path d="M205.926 261.675C206.051 263.067 206.193 264.333 206.268 265.6C206.261 265.786 206.316 265.969 206.425 266.12C206.534 266.271 206.69 266.381 206.869 266.433C208.538 267.067 210.207 267.758 211.876 268.375C212.385 268.567 212.285 268.742 212.051 269.067C211.316 270.044 210.248 270.718 209.048 270.962C207.849 271.206 206.602 271.003 205.542 270.392C204.515 269.777 203.743 268.816 203.365 267.681C202.987 266.547 203.028 265.315 203.481 264.208C203.957 263.093 204.827 262.191 205.926 261.675Z" fill="#B7B7B7"/>
<path d="M212.968 266.158C213.052 266.8 212.91 266.942 212.226 266.725C210.907 266.308 209.722 265.658 208.396 265.208C208.179 265.133 207.962 265.075 207.928 264.792C207.749 263.717 207.649 262.631 207.628 261.542C207.628 261.25 207.753 261.225 207.995 261.2C210.089 261 212.643 263.05 212.835 265.125C212.868 265.483 213.068 265.808 212.968 266.158Z" fill="#B7B7B7"/>
<path d="M131.856 258.592C132.465 258.126 133.173 257.805 133.924 257.651C134.676 257.497 135.453 257.515 136.197 257.703C136.941 257.891 137.633 258.245 138.22 258.738C138.808 259.231 139.276 259.851 139.591 260.55C140.165 261.65 140.482 262.865 140.518 264.105C140.554 265.345 140.308 266.577 139.799 267.708C139.19 269.15 138.161 270.376 136.845 271.225C136.015 271.796 135.285 272.5 134.684 273.308C134.559 273.507 134.383 273.669 134.175 273.779C133.967 273.889 133.734 273.942 133.499 273.933C133.366 272.942 133.241 271.95 133.107 270.958C132.924 269.625 132.732 268.292 132.54 266.958C132.348 265.625 132.148 264.092 131.956 262.658C131.789 261.433 131.63 260.158 131.472 258.975L131.856 258.592Z" fill="#E69A5F"/>
<path d="M131.455 258.975C131.614 260.2 131.772 261.475 131.939 262.658C132.131 264.092 132.323 265.525 132.523 266.958C132.723 268.392 132.907 269.625 133.09 270.958C133.224 271.95 133.349 272.942 133.483 273.933C133.248 274.005 132.999 274.015 132.759 273.963C132.519 273.91 132.297 273.797 132.114 273.633C131.218 272.98 130.231 272.461 129.185 272.092C127.19 271.326 125.567 269.82 124.656 267.889C123.745 265.957 123.616 263.749 124.296 261.725C124.723 260.547 125.571 259.568 126.676 258.976C127.782 258.383 129.068 258.22 130.287 258.517C130.391 258.548 130.497 258.57 130.604 258.583L131.455 258.975Z" fill="#F18C36"/>
<path d="M131.405 257.475H131.28L131.213 257.408C131.43 257.033 131.638 256.65 131.864 256.275C132.021 255.985 132.27 255.755 132.572 255.623C132.874 255.49 133.212 255.461 133.533 255.542C134.22 255.752 134.959 255.723 135.627 255.458C135.627 255.733 135.36 255.817 135.193 255.925C134.112 256.613 132.921 257.112 131.672 257.4C131.577 257.395 131.483 257.421 131.405 257.475Z" fill="#7DBC22"/>
<path d="M131.212 257.375L131.279 257.442L131.855 258.592L131.471 258.975L130.637 258.583C130.301 258.192 129.929 257.832 129.527 257.508C129.402 257.4 129.385 257.333 129.527 257.225C129.802 256.983 130.078 256.742 130.361 256.483C130.478 256.367 130.545 256.375 130.637 256.483C130.787 256.8 131.004 257.092 131.212 257.375Z" fill="#775439"/>
<path d="M131.404 257.475C131.48 257.407 131.578 257.369 131.68 257.367C132.929 257.078 134.12 256.58 135.201 255.892C135.368 255.783 135.626 255.7 135.635 255.425C135.635 255.425 135.718 255.35 135.76 255.425C135.802 255.5 135.76 255.558 135.76 255.617C135.586 255.963 135.367 256.285 135.109 256.575C134.643 257.064 134.046 257.408 133.389 257.568C132.732 257.727 132.043 257.695 131.404 257.475Z" fill="#9BD048"/>
<path d="M155.494 259.233C156.306 259.071 157.144 259.094 157.946 259.3C158.748 259.507 159.492 259.892 160.124 260.427C160.755 260.961 161.258 261.632 161.593 262.387C161.929 263.143 162.089 263.965 162.061 264.792C162.092 266.129 161.82 267.457 161.265 268.674C160.71 269.892 159.887 270.969 158.857 271.825C157.585 272.937 156.005 273.638 154.326 273.833C153.253 273.998 152.214 274.332 151.247 274.825C151.028 274.952 150.779 275.018 150.525 275.018C150.272 275.018 150.023 274.952 149.804 274.825C150.146 273.808 150.496 272.783 150.838 271.758L152.19 267.592C152.674 266.108 153.164 264.628 153.659 263.15L154.944 259.35L155.494 259.233Z" fill="#E69A5F"/>
<path d="M154.944 259.417L153.659 263.217C153.164 264.689 152.674 266.169 152.19 267.658L150.838 271.825C150.496 272.85 150.146 273.875 149.804 274.892C149.542 274.85 149.295 274.742 149.087 274.577C148.879 274.412 148.718 274.196 148.619 273.95C148.059 272.894 147.348 271.926 146.508 271.075C144.938 269.389 144.08 267.162 144.114 264.859C144.148 262.556 145.072 260.356 146.691 258.717C147.665 257.774 148.953 257.226 150.307 257.177C151.662 257.127 152.987 257.581 154.026 258.45C154.114 258.524 154.206 258.594 154.301 258.658L154.944 259.417Z" fill="#F18C36"/>
<path d="M155.595 257.925L155.486 257.833V257.733L156.655 256.9C156.95 256.701 157.301 256.602 157.657 256.617C158.013 256.632 158.354 256.761 158.632 256.983C159.179 257.521 159.896 257.853 160.66 257.925C160.518 258.192 160.234 258.158 160.017 258.175C158.645 258.331 157.257 258.252 155.912 257.942C155.803 257.925 155.703 257.925 155.595 257.925Z" fill="#7DBC22"/>
<path d="M155.453 257.742V257.842C155.453 258.3 155.453 258.767 155.453 259.233L154.902 259.417L154.26 258.633C154.122 258.092 153.935 257.565 153.7 257.058C153.625 256.9 153.65 256.833 153.817 256.792C154.201 256.683 154.585 256.575 154.96 256.45C155.127 256.392 155.186 256.45 155.211 256.608C155.311 256.983 155.386 257.367 155.453 257.742Z" fill="#775439"/>
<path d="M155.595 257.925C155.703 257.875 155.803 257.925 155.912 257.925C157.257 258.236 158.645 258.314 160.017 258.158C160.234 258.158 160.518 258.158 160.66 257.908C160.718 257.908 160.785 257.908 160.801 257.908C160.818 257.908 160.751 258.042 160.693 258.083C160.36 258.34 159.996 258.553 159.608 258.717C158.933 258.979 158.197 259.044 157.486 258.904C156.775 258.764 156.119 258.424 155.595 257.925Z" fill="#9BD048"/>
<path d="M111.295 259.467C112.102 258.969 113.025 258.691 113.972 258.662C114.92 258.633 115.858 258.853 116.694 259.3C117.964 259.971 118.922 261.11 119.364 262.475C119.844 263.724 120.036 265.064 119.926 266.397C119.817 267.73 119.408 269.021 118.73 270.175C117.909 271.654 116.658 272.848 115.142 273.6C114.19 274.12 113.325 274.787 112.58 275.575C112.423 275.774 112.216 275.928 111.98 276.022C111.744 276.115 111.488 276.145 111.237 276.108C111.237 275.025 111.237 273.95 111.17 272.867C111.17 271.417 111.087 269.958 111.045 268.508C111.003 267.058 110.953 265.392 110.92 263.833C110.92 262.492 110.87 261.158 110.845 259.825L111.295 259.467Z" fill="#E69A5F"/>
<path d="M110.845 259.825C110.845 261.158 110.886 262.492 110.92 263.833C110.953 265.394 110.995 266.953 111.045 268.508C111.045 269.958 111.137 271.417 111.17 272.867C111.17 273.95 111.22 275.025 111.237 276.108C110.977 276.157 110.708 276.137 110.458 276.051C110.208 275.965 109.985 275.815 109.81 275.617C108.922 274.816 107.925 274.145 106.848 273.625C104.805 272.569 103.248 270.767 102.501 268.595C101.754 266.422 101.873 264.045 102.834 261.958C103.43 260.745 104.454 259.794 105.71 259.289C106.965 258.785 108.363 258.762 109.635 259.225L109.969 259.333L110.845 259.825Z" fill="#F18C36"/>
<path d="M110.945 258.208L110.811 258.158L110.753 258.083C111.028 257.7 111.295 257.308 111.587 256.942C111.79 256.647 112.086 256.428 112.428 256.321C112.77 256.214 113.138 256.224 113.473 256.35C114.18 256.661 114.974 256.717 115.718 256.508C115.676 256.808 115.392 256.867 115.2 256.958C113.961 257.569 112.626 257.964 111.254 258.125C111.144 258.115 111.034 258.144 110.945 258.208Z" fill="#7DBC22"/>
<path d="M110.753 258.083L110.812 258.158C110.979 258.592 111.137 258.992 111.296 259.467L110.845 259.825L109.969 259.308C109.66 258.843 109.305 258.411 108.909 258.017C108.784 257.892 108.784 257.817 108.909 257.717C109.235 257.492 109.56 257.258 109.869 257.017C110.011 256.908 110.077 256.925 110.161 257.075C110.361 257.417 110.595 257.742 110.753 258.083Z" fill="#775439"/>
<path d="M110.945 258.208C111.035 258.144 111.144 258.115 111.254 258.125C112.627 257.964 113.962 257.569 115.201 256.958C115.393 256.867 115.676 256.808 115.718 256.508C115.768 256.508 115.827 256.442 115.86 256.508C115.893 256.575 115.86 256.658 115.818 256.717C115.581 257.069 115.301 257.391 114.984 257.675C114.429 258.134 113.756 258.428 113.041 258.522C112.327 258.617 111.601 258.508 110.945 258.208Z" fill="#9BD048"/>
<path d="M197.215 235.567C197.897 235.046 198.687 234.685 199.528 234.513C200.369 234.34 201.237 234.36 202.069 234.571C202.901 234.782 203.674 235.178 204.331 235.73C204.987 236.282 205.51 236.976 205.86 237.758C206.497 238.989 206.847 240.348 206.886 241.733C206.925 243.118 206.652 244.494 206.085 245.758C205.396 247.374 204.233 248.743 202.747 249.683C201.826 250.326 201.012 251.111 200.336 252.008C200.196 252.232 200 252.414 199.767 252.537C199.534 252.66 199.273 252.719 199.009 252.708C198.867 251.6 198.726 250.492 198.575 249.375C198.367 247.883 198.15 246.392 197.941 244.9C197.733 243.408 197.499 241.7 197.282 240.1C197.099 238.733 196.932 237.358 196.748 235.983L197.215 235.567Z" fill="#E69A5F"/>
<path d="M196.781 235.992C196.964 237.367 197.131 238.742 197.315 240.108C197.532 241.708 197.757 243.308 197.974 244.908C198.191 246.508 198.4 247.892 198.608 249.383C198.758 250.492 198.9 251.6 199.042 252.717C198.78 252.798 198.502 252.809 198.235 252.751C197.967 252.693 197.719 252.566 197.515 252.383C196.515 251.654 195.413 251.076 194.244 250.667C192.014 249.809 190.2 248.126 189.18 245.967C188.161 243.808 188.014 241.339 188.77 239.075C189.25 237.764 190.195 236.675 191.425 236.015C192.656 235.354 194.087 235.168 195.446 235.492L195.796 235.567L196.781 235.992Z" fill="#F18C36"/>
<path d="M196.706 234.317H196.564L196.489 234.242C196.731 233.817 196.965 233.408 197.224 232.967C197.398 232.64 197.677 232.381 198.015 232.23C198.354 232.079 198.733 232.045 199.093 232.133C199.858 232.375 200.685 232.342 201.429 232.042C201.429 232.35 201.137 232.442 200.945 232.558C199.74 233.34 198.407 233.905 197.007 234.225C196.9 234.225 196.795 234.257 196.706 234.317Z" fill="#7DBC22"/>
<path d="M196.489 234.208L196.564 234.283L197.215 235.567L196.781 235.992L195.821 235.558C195.447 235.119 195.034 234.714 194.586 234.35C194.444 234.233 194.436 234.158 194.586 234.042C194.895 233.767 195.204 233.5 195.496 233.208C195.629 233.075 195.704 233.092 195.804 233.208C196.013 233.567 196.255 233.883 196.489 234.208Z" fill="#775439"/>
<path d="M196.706 234.317C196.791 234.245 196.896 234.201 197.006 234.192C198.407 233.871 199.74 233.307 200.945 232.525C201.137 232.408 201.42 232.317 201.429 232.008C201.429 232.008 201.529 231.925 201.571 232.008C201.612 232.092 201.571 232.15 201.571 232.217C201.376 232.605 201.132 232.966 200.845 233.292C200.326 233.84 199.66 234.229 198.926 234.41C198.192 234.592 197.422 234.56 196.706 234.317Z" fill="#9BD048"/>
<path d="M171.623 248.233L174.043 248.592C174.093 248.267 179.141 216.167 198.691 216.042V213.6C177.063 213.7 171.832 246.817 171.623 248.233Z" fill="#E7BD71"/>
<path d="M199.042 213.592H198.658V216.033H199.042C218.909 216.3 224.717 248.292 224.775 248.617L227.187 248.2C226.945 246.8 220.979 213.883 199.042 213.592Z" fill="#EDC380"/>
<path d="M170.047 247.633L177.44 270.483C177.887 271.859 178.76 273.059 179.932 273.909C181.104 274.759 182.516 275.217 183.965 275.217H207.437L213.678 247.633H170.047Z" fill="#D3A76E"/>
<path d="M213.678 247.633L207.437 275.217H215.58C216.98 275.217 218.342 274.769 219.468 273.94C220.594 273.111 221.425 271.943 221.839 270.608L228.989 247.633H213.678Z" fill="#D8B07C"/>
<path d="M191.098 275.217L174.21 250.842L174.877 250.375L192.091 275.217H191.098Z" fill="#CC9F6E"/>
<path d="M200.936 275.217L184.49 251.333L175.529 264.55L175.203 263.567L184.482 249.883L201.929 275.217H200.936Z" fill="#CC9F6E"/>
<path d="M211.7 275.225L195.145 251.333L179.709 273.742L179.1 273.192L195.137 249.892L212.693 275.225H211.7Z" fill="#CC9F6E"/>
<path d="M188.846 275.217H187.861L205.1 249.883L220.67 272.792L220.103 273.408L205.1 251.333L188.846 275.217Z" fill="#CC9F6E"/>
<path d="M208.73 275.217H207.737L224.951 250.375L225.627 250.842L208.73 275.217Z" fill="#CC9F6E"/>
<path d="M198.584 275.217H197.591L215.139 249.9L224.3 262.717L224.025 263.575L215.147 251.317L198.584 275.217Z" fill="#CC9F6E"/>
<path d="M218.868 274.333L218.226 274.658L217.817 274.825L217.425 274.95L222.882 267.275L222.089 269.792L218.868 274.333Z" fill="#CC9F6E"/>
<path d="M180.477 274.258L177.131 269.517L176.288 266.9L181.945 274.908L181.111 274.592L180.477 274.258Z" fill="#CC9F6E"/>
<path d="M228.864 245.15H214.479L212.952 251.675H228.864C229.307 251.697 229.75 251.63 230.166 251.476C230.582 251.322 230.962 251.085 231.283 250.78C231.605 250.475 231.861 250.108 232.035 249.701C232.21 249.294 232.3 248.855 232.3 248.412C232.3 247.97 232.21 247.531 232.035 247.124C231.861 246.717 231.605 246.35 231.283 246.045C230.962 245.74 230.582 245.503 230.166 245.349C229.75 245.195 229.307 245.128 228.864 245.15Z" fill="#EDC380"/>
<path d="M170.171 245.15C169.729 245.128 169.286 245.195 168.87 245.349C168.454 245.503 168.074 245.74 167.753 246.045C167.431 246.35 167.175 246.717 167 247.124C166.826 247.531 166.735 247.97 166.735 248.412C166.735 248.855 166.826 249.294 167 249.701C167.175 250.108 167.431 250.475 167.753 250.78C168.074 251.085 168.454 251.322 168.87 251.476C169.286 251.63 169.729 251.697 170.171 251.675H212.952L214.479 245.15H170.171Z" fill="#E7BD71"/>
</g>
<circle cx="182" cy="30" r="30" fill="#09868F"/>
<path d="M169.764 38.32V33.352L181.14 17.08H188.016V32.992H190.968V38.32H188.016V43H181.86V38.32H169.764ZM182.292 23.848L176.244 32.992H182.292V23.848Z" fill="#F9F9F9"/>
<defs>
<clipPath id="clip0_2610_7905">
<rect width="156.586" height="125" fill="white" transform="translate(102 163)"/>
</clipPath>
</defs>
</svg>
